<?xml version="1.0" encoding="UTF-8"?>
<svg width="256" height="256" viewBox="0 0 256 256" xmlns="http://www.w3.org/2000/svg">

  
  <path d="M60 90 L90 30 L120 90 Z" fill="#FFB347" stroke="#5A3A2E" stroke-width="6"/>
  <path d="M196 90 L166 30 L136 90 Z" fill="#8B5E3C" stroke="#5A3A2E" stroke-width="6"/>

  
  <circle cx="128" cy="140" r="80" fill="#FFF4E6" stroke="#5A3A2E" stroke-width="6"/>

  
  <path d="M48 140 A80 80 0 0 1 128 60 L128 140 Z" fill="#FF9F1C"/>

  
  <path d="M128 60 A80 80 0 0 1 208 140 L128 140 Z" fill="#8B5E3C"/>

  
  <circle cx="100" cy="135" r="16" fill="#2E1A12"/>
  <circle cx="156" cy="135" r="16" fill="#2E1A12"/>
  <circle cx="95" cy="130" r="5" fill="white"/>
  <circle cx="151" cy="130" r="5" fill="white"/>

  
  <ellipse cx="128" cy="155" rx="10" ry="6" fill="#FF6B6B"/>

  
  <path d="M118 165 Q128 178 138 165" stroke="#5A3A2E" stroke-width="5" fill="none" stroke-linecap="round"/>

  
  <line x1="60" y1="150" x2="95" y2="145" stroke="#5A3A2E" stroke-width="4" stroke-linecap="round"/>
  <line x1="60" y1="165" x2="95" y2="165" stroke="#5A3A2E" stroke-width="4" stroke-linecap="round"/>
  <line x1="196" y1="150" x2="161" y2="145" stroke="#5A3A2E" stroke-width="4" stroke-linecap="round"/>
  <line x1="196" y1="165" x2="161" y2="165" stroke="#5A3A2E" stroke-width="4" stroke-linecap="round"/>

</svg>