<?xml version='1.0' encoding='utf-8'?>
<svg xmlns="http://www.w3.org/2000/svg" width="108.98mm" height="152.48mm" version="1.1" viewBox="0 0 108.98 152.48"> <defs> <linearGradient id="g" x1="74.752" x2="74.899" y1="143.78" y2="162.13" gradientUnits="userSpaceOnUse"> <stop stop-color="#826800" offset="0"/> <stop stop-color="#d4aa00" offset=".19956"/> <stop stop-color="#ffe165" offset=".46053"/> <stop stop-color="#d4aa00" offset=".77412"/> <stop stop-color="#826800" offset="1"/> </linearGradient> <linearGradient id="f" x1="73.871" x2="73.871" y1="143.78" y2="162.13" gradientTransform="translate(-5.5807 -17.917)" gradientUnits="userSpaceOnUse"> <stop stop-color="#15414b" offset="0"/> <stop stop-color="#277c90" stop-opacity=".99608" offset=".19956"/> <stop stop-color="#339fb9" stop-opacity=".99608" offset=".46053"/> <stop stop-color="#26788c" stop-opacity=".99608" offset=".77412"/> <stop stop-color="#15414b" offset="1"/> </linearGradient> <linearGradient id="e" x1="73.871" x2="73.871" y1="143.78" y2="162.13" gradientTransform="translate(-5.5807 -17.917)" gradientUnits="userSpaceOnUse"> <stop stop-color="#501616" offset="0"/> <stop stop-color="#a02c2c" offset=".19956"/> <stop stop-color="#d35f5f" offset=".46053"/> <stop stop-color="#a02c2c" offset=".77412"/> <stop stop-color="#501616" offset="1"/> </linearGradient> <linearGradient id="d" x1="74.752" x2="74.899" y1="143.78" y2="162.13" gradientUnits="userSpaceOnUse"> <stop stop-color="#2d5016" offset="0"/> <stop stop-color="#447821" offset=".19956"/> <stop stop-color="#5aa02c" offset=".46053"/> <stop stop-color="#447821" offset=".77412"/> <stop stop-color="#2d5016" offset="1"/> </linearGradient> <linearGradient id="c" x1="74.752" x2="74.899" y1="143.78" y2="162.13" gradientTransform="rotate(-.11282 -28225 -3743)" gradientUnits="userSpaceOnUse"> <stop stop-color="#1f1c24" offset="0"/> <stop stop-color="#5d536c" offset=".19956"/> <stop stop-color="#7c6f91" offset=".46053"/> <stop stop-color="#5d536c" offset=".77412"/> <stop stop-color="#1f1c24" offset="1"/> </linearGradient> <linearGradient id="b" x1="81.727" x2="81.727" y1="89.427" y2="104.88" gradientUnits="userSpaceOnUse"> <stop stop-color="#c2b16d" offset="0"/> <stop stop-color="#f0ecdb" stop-opacity=".99608" offset=".22368"/> <stop stop-color="#f0ecdb" stop-opacity=".99608" offset=".83114"/> <stop stop-color="#d6cb9c" stop-opacity=".99669" offset="1"/> </linearGradient> <linearGradient id="a" x1="125.82" x2="133.09" y1="193.57" y2="192.3" gradientUnits="userSpaceOnUse"> <stop stop-color="#6c0000" offset="0"/> <stop stop-color="#d40000" stop-opacity=".99669" offset="1"/> </linearGradient> </defs> <g transform="translate(-742.7 -84.757)"> <g transform="translate(692.86 -14.954)"> <g transform="translate(48.065 68.086)"> <g transform="translate(-19.523 22.01)" stroke="#000" stroke-linecap="square" stroke-linejoin="round" stroke-width=".5"> <path d="m29.666 143.92h88.998c3.3528 3.9456 2.7127 13.741 0 17.917h-88.998c-2.9459-3.0633-3.7886-13.171 0-17.917z" fill="url(#g)"/> <path d="m37.177 143.92h6.9577c-0.77133 5.6638-1.1692 11.477 0 17.917h-6.9577c-1.3707-5.9723-1.3707-11.945 0-17.917z" fill="#9d7d00" opacity=".5"/> <path d="m114.85 143.92h0.93462c1.3699 5.7224 1.117 11.742 0 17.917h-0.93462c0.77703-5.671 1.2736-11.461 0-17.917z" fill="#9d7d00" opacity=".5"/> <path d="m46.367 143.92h3.1154c-0.77188 5.9723-0.73846 11.945-0.1298 17.917h-2.9596c-0.62794-5.9723-0.91169-11.945-0.02596-17.917z" fill="#d4aa00" opacity=".5"/> <path d="m24.085 126.01h88.998c3.3528 3.9456 2.7127 13.741 0 17.917h-88.998c-2.9459-3.0633-3.7886-13.171 0-17.917z" fill="url(#f)"/> <path d="m31.596 126.01h6.9577c-0.95612 6.042-0.98212 12.013 0 17.917h-6.9577c-1.2841-5.9723-1.2065-11.945 0-17.917z" fill="#003542" opacity=".50605"/> <path d="m109.27 126.01h0.93462c1.0822 5.7361 1.6579 11.502 0 17.917h-0.93462c1.0769-5.9388 1.1321-11.979 0-17.917z" fill="#18677a" opacity=".5"/> <g transform="translate(6.9577 -17.917)"> <path d="m24.085 126.01h88.998c3.3528 3.9456 2.7127 13.741 0 17.917h-88.998c-2.9459-3.0633-3.7886-13.171 0-17.917z" fill="url(#e)"/> <path d="m33.986 126.01h14.092c-1.9365 6.042-1.9892 12.013 0 17.917h-14.092c-2.6008-5.9723-2.4437-11.945 0-17.917z" fill="#782121" opacity=".50605"/> <path d="m109.27 126.01h0.93462c1.0822 5.7361 1.6579 11.502 0 17.917h-0.93462c1.0769-5.9388 1.1321-11.979 0-17.917z" fill="#a02c2c" opacity=".5"/> </g> <g transform="translate(-.67906 -53.751)"> <path d="m29.666 143.92h88.998c3.3528 3.9456 2.7127 13.741 0 17.917h-88.998c-2.9459-3.0633-3.7886-13.171 0-17.917z" fill="url(#d)"/> <path d="m37.177 143.92h6.9577c-0.77133 5.6638-1.1692 11.477 0 17.917h-6.9577c-1.3707-5.9723-1.3707-11.945 0-17.917z" fill="#2d5016" opacity=".5"/> <path d="m114.85 143.92h0.93462c1.3699 5.7224 1.117 11.742 0 17.917h-0.93462c0.77703-5.671 1.2736-11.461 0-17.917z" fill="#9d7d00" opacity=".5"/> <path d="m46.367 143.92h3.1154c-0.77188 5.9723-0.66058 12.092-0.05192 18.064h-3.0115c-0.62794-5.9723-0.93765-12.092-0.05192-18.064z" fill="#2d5016" opacity=".5"/> <path d="m51.654 143.92h3.1154c-0.77188 5.9723-0.66058 12.092-0.05192 18.064h-3.0115c-0.62794-5.9723-0.93765-12.092-0.05192-18.064z" fill="#2d5016" opacity=".5"/> </g> </g> <g transform="translate(-23.677 5.8154)" stroke="#000" stroke-linecap="square" stroke-linejoin="round" stroke-width=".5"> <path d="m126.26 88.105-89.085 0.13847c-0.96817 0.39368-0.33349 0.93495 0 1.2608 6.3199 6.1743 2.4811 12.625 0 15.449-0.37209 0.42345-0.38551 1.0527 0 1.3541l89.12-0.28534c0.36521-0.38718 0.16916-0.92845-0.0203-1.2239-4.1061-6.4036-2.6385-10.343-2e-5 -15.449 0.15495-0.29983 0.2802-0.95262-0.0148-1.2441 0-5e-6 -2e-5 0-2e-5 0zm0.0149 1.2441c-0.41712 0.59176-2.5908 7.6644 4e-5 15.449l-89.1 0.1551c0.76091-7.2827 1.3038-7.371 0-15.449l88.503-0.15406z" fill="url(#c)"/> <path d="m37.177 89.504 89.1-0.1551c-2.8291 5.5916-3.2771 10.677 0 15.449l-89.1 0.1551s1.6636-5.1101 1.6615-7.7532c-2e-3 -2.6243-1.6615-7.6955-1.6615-7.6955z" fill="url(#b)"/> </g> <path transform="matrix(.68679 0 0 .69276 16.12 -13.37)" d="m122.86 168.63c0.11448-1.1751 0.34338-3.5247 0.34338-3.5247 4.7443 13.677 14.23 41.022 14.23 41.022-1.4754-1.0088-3.7131-2.5212-5.2846-4.1443-1.601-1.6535-2.4731-3.3412-2.4731-3.3412-0.54049 2.6417-1.203 5.5783-2.1563 8.9541-0.82592 2.925-1.4287 4.8427-1.4287 4.8427-1.077-14.603 2.8823-39.751-3.2309-43.808z" fill="url(#a)" stroke="#000" stroke-linecap="square" stroke-linejoin="round" stroke-width=".72488"/> <path d="m25.478 99.101c0.90744-0.0264 1.3736-0.0416 2.4156-0.059 4.8114-0.0801 9.6395-0.0841 14.458-0.0977 6.2988-9e-3 12.598-0.0151 18.897-0.0163 2.8832-1e-3 5.7663 3.1e-4 8.6492 0.0127 0.23845 8.3e-4 0.47688 2e-3 0.71535 2e-3 4.7148 9e-3 -12.268 0.0198-6.6315-6e-3 0.54778-2e-3 1.0955-5e-3 1.6433-8e-3 0.76989-4e-3 1.5398-7e-3 2.3097-0.0107 3.9636-0.022 7.9246 0.0231 11.886 0.0449 3.2027 2e-3 6.3997 0.0425 9.5927 0.1077 0.8233 0.0163 1.6435 0.0415 2.4633 0.0677l9.1366-0.37591c-1.005-0.0179-2.01-0.0359-3.0155-0.0519-3.1959-0.0394-6.3893-0.0965-9.5875-0.11956-4.1539-2e-3 -8.3086 0.0112-12.462-0.0223-5.031-0.0301-10.063-0.0497-15.095-0.0224-2.5326 0.0162-5.0657 0.0215-7.5984 0.035-5.7308 0.0326-11.461 0.0799-17.193 0.0901-6.6551 0.0184-13.31 0.0326-19.966 0.032z" fill="#d1c591"/> <path d="m23.92 108.97c0.90744-0.0264 1.3736-0.0416 2.4156-0.059 4.8114-0.0801 9.6395-0.0841 14.458-0.0977 6.2988-9e-3 12.598-0.0151 18.897-0.0163 2.8832-1e-3 5.7663 3.1e-4 8.6492 0.0127 0.23845 8.3e-4 0.47688 2e-3 0.71535 2e-3 4.7148 9e-3 -12.268 0.0198-6.6315-6e-3 0.54778-2e-3 1.0955-5e-3 1.6433-8e-3 0.76989-4e-3 1.5398-7e-3 2.3097-0.0107 3.9636-0.022 7.9246 0.0231 11.886 0.0449 3.2027 2e-3 6.3997 0.0425 9.5927 0.1077 0.8233 0.0163 1.6435 0.0415 2.4633 0.0677l9.1366-0.37591c-1.005-0.0179-2.01-0.0359-3.0155-0.0519-3.1959-0.0394-6.3893-0.0965-9.5875-0.11956-4.1539-2e-3 -8.3086 0.0112-12.462-0.0223-5.031-0.0301-10.063-0.0497-15.095-0.0224-2.5326 0.0162-5.0657 0.0215-7.5984 0.035-5.7308 0.0326-11.461 0.0799-17.193 0.0901-6.6551 0.0184-13.31 0.0326-19.966 0.032z" fill="#d1c591"/> <path d="m28.423 104.61c0.86083-0.0264 1.3031-0.0416 2.2915-0.059 4.5643-0.0801 9.1444-0.0841 13.715-0.0977 5.9753-9e-3 11.951-0.0151 17.926-0.0163 2.7351-1e-3 5.4702 3.1e-4 8.205 0.0127 0.22621 8.3e-4 0.45239 2e-3 0.67861 2e-3 4.4727 9e-3 -11.637 0.0198-6.2909-6e-3 0.51964-2e-3 1.0393-5e-3 1.5589-8e-3 0.73034-4e-3 1.4607-7e-3 2.191-0.0107 3.76-0.022 7.5176 0.0231 11.276 0.0449 3.0382 2e-3 6.071 0.0425 9.1 0.1077 0.78101 0.0163 1.5591 0.0415 2.3367 0.0677l8.6674-0.37591c-0.95341-0.0179-1.9068-0.0359-2.8606-0.0519-3.0318-0.0394-6.0612-0.0965-9.0951-0.11956-3.9406-2e-3 -7.8819 0.0112-11.822-0.0223-4.7726-0.0301-9.546-0.0497-14.32-0.0224-2.4025 0.0162-4.8055 0.0215-7.2082 0.035-5.4364 0.0326-10.872 0.0799-16.31 0.0901-6.3133 0.0184-12.627 0.0326-18.941 0.032z" fill="#d1c591"/> <path d="m23.958 102.63c0.86083-0.0264 1.3031-0.0416 2.2915-0.059 4.5643-0.0801 9.1444-0.0841 13.715-0.0977 5.9753-9e-3 11.951-0.0151 17.926-0.0163 2.7351-1e-3 5.4702 3.1e-4 8.205 0.0127 0.22621 8.3e-4 0.45239 2e-3 0.67861 2e-3 4.4727 9e-3 -11.637 0.0198-6.2909-6e-3 0.51964-2e-3 1.0393-5e-3 1.5589-8e-3 0.73034-4e-3 1.4607-7e-3 2.191-0.0107 3.76-0.022 7.5176 0.0231 11.276 0.0449 3.0382 2e-3 6.071 0.0425 9.1 0.1077 0.78101 0.0163 1.5591 0.0415 2.3367 0.0677l8.6674-0.37591c-0.95341-0.0179-1.9068-0.0359-2.8606-0.0519-3.0318-0.0394-6.0612-0.0965-9.0951-0.11956-3.9406-2e-3 -7.8819 0.0112-11.822-0.0223-4.7726-0.0301-9.546-0.0497-14.32-0.0224-2.4025 0.0162-4.8055 0.0215-7.2082 0.035-5.4364 0.0326-10.872 0.0799-16.31 0.0901-6.3133 0.0184-12.627 0.0326-18.941 0.032z" fill="#d1c591"/> <path d="m23.713 98.167c0.90744-0.0264 1.3736-0.0416 2.4156-0.059 4.8114-0.0801 9.6395-0.0841 14.458-0.0977 6.2988-9e-3 12.598-0.0151 18.897-0.0163 2.8832-1e-3 5.7663 3.1e-4 8.6492 0.0127 0.23845 8.3e-4 0.47688 2e-3 0.71535 2e-3 4.7148 9e-3 -12.268 0.0198-6.6315-6e-3 0.54778-2e-3 1.0955-5e-3 1.6433-8e-3 0.76989-4e-3 1.5398-7e-3 2.3097-0.0107 3.9636-0.022 7.9246 0.0231 11.886 0.0449 3.2027 2e-3 6.3997 0.0425 9.5927 0.1077 0.8233 0.0163 1.6435 0.0415 2.4633 0.0677l9.1366-0.37591c-1.005-0.0179-2.01-0.0359-3.0155-0.0519-3.1959-0.0394-6.3893-0.0965-9.5875-0.11956-4.1539-2e-3 -8.3086 0.0112-12.462-0.0223-5.031-0.0301-10.063-0.0497-15.095-0.0224-2.5326 0.0162-5.0657 0.0215-7.5984 0.035-5.7308 0.0326-11.461 0.0799-17.193 0.0901-6.6551 0.0184-13.31 0.0326-19.966 0.032z" fill="#d1c591"/> <path d="m23.333 107.94c0.90744-0.0264 1.3736-0.0416 2.4156-0.059 4.8114-0.0801 9.6395-0.0841 14.458-0.0977 6.2988-9e-3 12.598-0.0151 18.897-0.0163 2.8832-1e-3 5.7663 3.1e-4 8.6492 0.0127 0.23845 8.3e-4 0.47688 2e-3 0.71535 2e-3 4.7148 9e-3 -12.268 0.0198-6.6315-6e-3 0.54778-2e-3 1.0955-5e-3 1.6433-8e-3 0.76989-4e-3 1.5398-7e-3 2.3097-0.0107 3.9636-0.022 7.9246 0.0231 11.886 0.0449 3.2027 2e-3 6.3997 0.0425 9.5927 0.1077 0.8233 0.0163 1.6435 0.0415 2.4633 0.0677l9.1366-0.37591c-1.005-0.0179-2.01-0.0359-3.0155-0.0519-3.1959-0.0394-6.3893-0.0965-9.5875-0.11956-4.1539-2e-3 -8.3086 0.0112-12.462-0.0223-5.031-0.0301-10.063-0.0497-15.095-0.0224-2.5326 0.0162-5.0657 0.0215-7.5984 0.035-5.7308 0.0326-11.461 0.0799-17.193 0.0901-6.6551 0.0184-13.31 0.0326-19.966 0.032z" fill="#d1c591"/> </g> <path d="m75.898 134.48c3.8199-1.6326 9.3444 0.1035 13.342-2.7522 11.46-8.1864 49.571-21.384 59.544 7.8444 10.843 31.779-35.796 37.031-52.334 19.823-15.974-1.4728-27.252-6.9541-28.816-12.616-1.684-6.0952 2.4502-9.8144 8.2641-12.299z" stroke-linecap="round" stroke-linejoin="round" stroke-width="2.134"/> <path transform="matrix(-.71077 1.8511 1.8499 .70939 46.389 -53.052)" d="m95.764 66.246c0.679-0.2452 1.2772-0.70893 1.6838-1.3054 0.40668-0.59647 0.61984-1.3227 0.60004-2.0444-0.0198-0.72165-0.27244-1.4351-0.71121-2.0084-0.43877-0.57328-1.0615-1.0035-1.7529-1.2111-0.78045-0.23434-1.636-0.18317-2.4002 0.09984-0.76415 0.28301-1.437 0.79098-1.9555 1.4196-1.0371 1.2572-1.4349 2.9431-1.4304 4.5729 0.0045 1.6297 0.37639 3.233 0.72427 4.8252s0.67541 3.2106 0.58948 4.8381c-0.09141 1.7313-0.66154 3.435-1.6306 4.8726-0.96909 1.4376-2.3344 2.6052-3.905 3.3394-1.5706 0.73422-3.3421 1.033-5.0666 0.85461-1.7245-0.17841-3.3973-0.83353-4.7844-1.8737" fill="none" stroke="#000" stroke-linecap="round" stroke-linejoin="round" stroke-width="4.3066"/> <g transform="matrix(2.4804 0 0 2.4804 -11.749 -110.27)"> <path d="m49.664 84.655-5.1964 7.044c-0.90686-0.19782-1.8539-0.30515-2.8292-0.30515-2.6251 0-5.0496 0.76155-7.0142 2.048l-6.735-5.6126c1.3597 2.9946 3.7454 5.0121 2.6976 10.3-0.51943 1.1884-0.80741 2.4797-0.80741 3.8318 0 5.8358 4.7134 9.4911 11.201 8.5927 7.6025-1.0527 12.517-2.7569 12.517-8.5927 0-3.141-1.5396-5.9602-3.9814-7.8957-1.7145-2.6957-0.48906-6.1264 0.14766-9.41z" stroke-linecap="square" stroke-linejoin="round" stroke-width=".5"/> <g transform="matrix(.56428 .46981 -.46981 .56428 52.604 9.9973)" stroke-width="1.3619"> <path d="m75.633 102.44c0 2.5525-2.2272 4.2576-4.9198 4.6217-1.3564 0.18339-1.0256 0.41494 1.332-0.67375 2.1199-0.97888 3.0961-2.6628 3.3266-4.4432 0.16663-1.2872 0.26121-2.0572 0.26121 0.49526z" fill="#fff" stroke-linecap="square" stroke-linejoin="round" stroke-width=".68096"/> </g> <path d="m40.116 105.62c0.80658-1.2535 1.9751-1.2775 3.1418-0.44812 0.0518 0.18149 0.14227 0.36486-0.11006 0.5314-1.2654-0.11638-0.96342 0.71295-0.88533 1.5906-0.16393 0.2146-0.35528 0.24576-0.57423 0.0923-0.14013-0.85148-0.05481-1.656-1.3593-1.2325-0.14889-0.0394-0.23703-0.18672-0.21282-0.53366z" fill="#fff" stroke-linecap="square" stroke-linejoin="round" stroke-width=".5"/> <path d="m33.439 106.08c1.97 0 3.5671 1.1494 3.5671 2.567 0 0.0556-0.0035 0.1077-0.0088 0.15827l0.6163 1.0876-1.0461-0.36214c-0.20667 0.13119-0.47802 0.20766-0.79795 0.25016l-0.5302 1.1998-0.36348-1.1508c-0.1441 1e-3 -0.29691-6.3e-4 -0.44941-3e-3l-0.55392 1.2537-0.39947-1.2651c-0.05645-3.2e-4 -0.1105-2e-3 -0.16739-2e-3 -0.1067 0-0.21112 1e-3 -0.3147 3e-3l-0.48524 1.098-0.34307-1.0863c-0.20186 3e-3 -0.39974 4e-3 -0.58063-1e-3l-0.5098 1.154-0.39765-1.2592c-0.50549-0.1371-0.8026-0.43658-0.8026-1.0745 0-1.4177 1.597-2.5671 3.5671-2.5671z" stroke-linecap="square" stroke-linejoin="round" stroke-width=".5"/> <g transform="matrix(.49306 .54408 -.54408 .49306 58.394 12.771)" stroke-linecap="square" stroke-linejoin="round"> <path d="m75.633 102.44c0 2.5525-2.2272 4.2576-4.9198 4.6217-1.3564 0.18339-1.0256 0.41494 1.332-0.67375 2.1199-0.97888 3.0961-2.6628 3.3266-4.4432 0.16663-1.2872 0.26121-2.0572 0.26121 0.49526z" fill="#fff" stroke-width=".68096"/> <circle cx="73.108" cy="103.79" r="1.8747" stroke-width="1.2418"/> <circle cx="78.897" cy="95.721" r="1.8747" stroke-width="1.2418"/> </g> </g> </g> </g> </svg>