<?xml version='1.0' encoding='utf-8'?>
<svg xmlns="http://www.w3.org/2000/svg" width="290.82mm" height="302.22mm" version="1.1" viewBox="0 0 290.82 302.22"> <g transform="translate(38.172 33.369)"> <g transform="translate(291.57 -57.679)"> <path d="m-162.42 204.16c10.8 14.847 19.485 53.971 8.8526 75.573-28.988 15.409-44.765 8.6308-61.726-3.8715 0 0-7.1128-58.204 21.008-75.027 8.381-5.0138 26.121-4.5708 31.866 3.3259z" stroke-linecap="round" stroke-linejoin="round" stroke-width="3.2958"/> <path d="m-217.49 119.12 23.072 17.987c8.4762-3.3949 22.019-4.9495 41.453 3.5696l20.804-19.049c-6.2041 16.338-5.9496 27.157-3.6603 43.294 3.4885 20.828-11.162 36.701-34.872 37.386-27.784 0.8023-46.356-2.3325-49.845-23.161-1.8776-11.21 0.67244-20.264 5.7773-28.694 6.343-10.474 1.5053-19.996-2.7298-31.334z" stroke-linecap="square" stroke-linejoin="round" stroke-width="1.6479"/> <g transform="matrix(-2.2877 -.17569 -.17731 2.2863 -128.71 -54.617)" stroke-width="1.4368"> <g transform="rotate(-13.594 -77.289 193.84)" fill-rule="evenodd" stroke="#000" stroke-linecap="round" stroke-linejoin="round" stroke-width=".71842"> <path transform="rotate(-40.832 47.762 100.66)" d="m17.036 93.403-6.1681-2.3498"/> <path transform="translate(2.6435 21.515)" d="m17.036 93.403-6.1681-2.3498"/> <path transform="rotate(-19.266 82.607 96.345)" d="m17.036 93.403-6.1681-2.3498"/> </g> </g> <g transform="matrix(2.2606 -.39086 .3888 2.2602 -303.14 -90.439)" fill-rule="evenodd" stroke="#000" stroke-linecap="round" stroke-linejoin="round" stroke-width=".71842"> <path transform="rotate(-40.832 47.762 100.66)" d="m17.036 93.403-6.1681-2.3498"/> <path transform="translate(2.6435 21.515)" d="m17.036 93.403-6.1681-2.3498"/> <path transform="rotate(-19.266 82.607 96.345)" d="m17.036 93.403-6.1681-2.3498"/> </g> <path d="m-174.25 164.08c-3.9693-4.6228-8.6151-4.0734-12.728-0.0747-0.0938 0.76222-0.33952 1.554 0.76373 2.088 4.9433-1.1703 4.2577 2.35 4.4892 5.9423 0.78196 0.77719 1.5595 0.79741 2.3327 0.0542 0.0304-3.5206-0.80339-6.7265 4.6276-5.7355 0.56517-0.24345 0.82429-0.88612 0.51453-2.2756z" fill="#fff" stroke-linecap="square" stroke-linejoin="round" stroke-width="1.6479"/> <path d="m-169.59 285.62s2.0034-52.026 21.241-52.867c15.908-0.69564 5.155 31.747 0.72214 38.816 10.16-0.83459 19.414 14.164 10.936 14.04-21.341-0.31308-32.9 0.0111-32.9 0.0111z"/> <path d="m-194.18 284.84s-2.0034-52.026-21.241-52.867c-15.908-0.69564-5.155 31.747-0.72214 38.816-10.16-0.83459-19.414 14.164-10.936 14.04 21.341-0.31308 32.9 0.0111 32.9 0.0111z"/> <path d="m-168.65 280.99c-4.9052 0.11873-8.8116 3.078-8.7255 6.6094 3e-3 0.13823 0.0155 0.26804 0.0315 0.39368l-1.4684 2.7463 2.5827-0.96516c0.52256 0.31434 1.2028 0.48843 2.002 0.57503l1.393 2.9565 0.83506-2.8885c0.35885-6e-3 0.73923-0.0196 1.1188-0.035l1.4554 3.0894 0.91773-3.1754c0.14055-4e-3 0.27506-0.0105 0.41666-0.0145 0.26566-7e-3 0.52574-0.01 0.78369-0.0137l1.2749 2.7059 0.78817-2.7265c0.50277-6e-3 0.99553-0.0152 1.4456-0.0382l1.3395 2.8437 0.91356-3.1604c1.2502-0.37199 1.9718-1.1359 1.933-2.7249-0.0862-3.5313-4.1324-6.298-9.0376-6.1792z" stroke-linecap="square" stroke-linejoin="round" stroke-width=".87074"/> <path d="m-199.94 280.99c4.9052 0.11873 8.8116 3.078 8.7255 6.6094-3e-3 0.13823-0.0155 0.26804-0.0315 0.39368l1.4684 2.7463-2.5827-0.96516c-0.52256 0.31434-1.2028 0.48843-2.002 0.57503l-1.393 2.9565-0.83506-2.8885c-0.35885-6e-3 -0.73923-0.0196-1.1188-0.035l-1.4554 3.0894-0.91773-3.1754c-0.14055-4e-3 -0.27506-0.0105-0.41666-0.0145-0.26566-7e-3 -0.52574-0.01-0.78369-0.0137l-1.2749 2.7059-0.78817-2.7265c-0.50277-6e-3 -0.99553-0.0152-1.4456-0.0382l-1.3395 2.8437-0.91356-3.1604c-1.2502-0.37199-1.9718-1.1359-1.933-2.7249 0.0862-3.5313 4.1324-6.298 9.0376-6.1792z" stroke-linecap="square" stroke-linejoin="round" stroke-width=".87074"/> <g transform="translate(44.185 14.552)" stroke-linejoin="round"> <ellipse transform="rotate(38.626)" cx="-98.412" cy="257.45" rx="9.525" ry="11.112" fill="#f9f9f9" fill-opacity=".99471" stroke-linecap="round" stroke-width="10"/> <g transform="matrix(1.4827 0 0 1.4827 54.715 17.855)" stroke-linecap="square"> <ellipse transform="matrix(.99978 -.021003 .02077 .99978 0 0)" cx="-196.66" cy="76.2" rx="4.3835" ry="4.3853" stroke-width=".56308"/> <circle transform="rotate(-22.884)" cx="-207.64" cy="-2.9188" r="1.0268" fill="#fff" stroke-width="1.8833"/> <circle transform="rotate(-22.884)" cx="-207.21" cy="-1.3787" r=".34225" fill="#fff" stroke-width=".62777"/> </g> </g> <g transform="matrix(-1 0 0 1 -405.34 14.552)" stroke-linejoin="round"> <ellipse transform="rotate(38.626)" cx="-98.412" cy="257.45" rx="9.525" ry="11.112" fill="#f9f9f9" fill-opacity=".99471" stroke-linecap="round" stroke-width="10"/> <g transform="matrix(1.4827 0 0 1.4827 54.715 17.855)" stroke-linecap="square"> <ellipse transform="matrix(.99978 -.021003 .02077 .99978 0 0)" cx="-196.66" cy="76.2" rx="4.3835" ry="4.3853" stroke-width=".56308"/> <circle transform="rotate(-22.884)" cx="-207.64" cy="-2.9188" r="1.0268" fill="#fff" stroke-width="1.8833"/> <circle transform="rotate(-22.884)" cx="-207.21" cy="-1.3787" r=".34225" fill="#fff" stroke-width=".62777"/> </g> </g> </g> <g transform="matrix(.65929 0 0 .65929 138.24 -95.75)"> <path d="m-40.756 195.78v-100.16" fill="#999" fill-opacity=".99608" stroke="#000" stroke-linecap="round" stroke-linejoin="round" stroke-width="2"/> <g transform="translate(-113.29 84.86)"> <g transform="matrix(.61958 0 0 .61958 30.98 42.047)" stroke-width="1.614"> <path d="m95.455 114.06c-0.48583 0.0672-0.90811 0.36772-1.1309 0.80469-1.7462 3.4362-3.0493 5.4579-4.2559 6.6992-1.2065 1.2413-2.3177 1.8024-4.127 2.3965-0.78675 0.25851-1.2152 1.1057-0.95703 1.8926 0.25851 0.78675 0.94993 2.2017 1.7887 2.4109 1.061 0.46538 4.9151-0.7993 6.5491-2.1115 0.99578-0.7997 3.5168-4.0044 2.4962-7.813 4.417 5.8105 5.9035 13.14 6.4238 21.24 0.0533 0.82605 0.76568 1.4528 1.5918 1.4004 0.82605-0.0533 1.4528-0.76569 1.4004-1.5918 1.7469-8.8449 1.6596-17.574-8.4707-24.859-0.33313-0.3611-0.82196-0.53621-1.3086-0.46875z" color="#000000" stroke-linecap="round" stroke-linejoin="round" stroke-width="1.614" style="-inkscape-stroke:none"/> <path d="m102.84 124.93c-0.59327-2.6269 2.1186-3.8528 4.2198-2.9806-1.4399-0.61627-4.0951 0.64677-3.383 3.7893z" fill-opacity=".99608"/> <path d="m104.94 128.59c1.1483-0.23163 1.8079-0.4857 3.1278 1.3672-0.89467-1.2856-2.5696-1.4914-2.9556-7e-3z" fill-opacity=".99608"/> <path d="m99.902 119.13c0.58161-0.42397 2.0636-1.9069 4.1647-1.0347-1.4399-0.61627-3.1772 0.79363-3.4931 1.6047z" fill-opacity=".99608"/> </g> <g transform="matrix(-.61958 0 0 .61958 113.83 42.047)" stroke-width="1.614"> <path d="m95.455 114.06c-0.48583 0.0672-0.90811 0.36772-1.1309 0.80469-1.7462 3.4362-3.0493 5.4579-4.2559 6.6992-1.2065 1.2413-2.3177 1.8024-4.127 2.3965-0.78675 0.25851-1.2152 1.1057-0.95703 1.8926 0.25851 0.78675 0.94993 2.2017 1.7887 2.4109 1.061 0.46538 4.9151-0.7993 6.5491-2.1115 0.99578-0.7997 3.5168-4.0044 2.4962-7.813 4.417 5.8105 5.9035 13.14 6.4238 21.24 0.0533 0.82605 0.76568 1.4528 1.5918 1.4004 0.82605-0.0533 1.4528-0.76569 1.4004-1.5918 1.7469-8.8449 1.6596-17.574-8.4707-24.859-0.33313-0.3611-0.82196-0.53621-1.3086-0.46875z" color="#000000" stroke-linecap="round" stroke-linejoin="round" stroke-width="1.614" style="-inkscape-stroke:none"/> <path d="m102.84 124.93c-0.59327-2.6269 2.1186-3.8528 4.2198-2.9806-1.4399-0.61627-4.0951 0.64677-3.383 3.7893z" fill-opacity=".99608"/> <path d="m104.94 128.59c1.1483-0.23163 1.8079-0.4857 3.1278 1.3672-0.89467-1.2856-2.5696-1.4914-2.9556-7e-3z" fill-opacity=".99608"/> <path d="m99.902 119.13c0.58161-0.42397 2.0636-1.9069 4.1647-1.0347-1.4399-0.61627-3.1772 0.79363-3.4931 1.6047z" fill-opacity=".99608"/> </g> <g fill-opacity=".99608"> <circle cx="73.118" cy="133.33" r="8.353" stroke="#000" stroke-linecap="square" stroke-linejoin="round" stroke-width=".1"/> <circle cx="72.485" cy="123.68" r="15.785" stroke="#000" stroke-linecap="square" stroke-linejoin="round" stroke-width=".1"/> <g transform="translate(0 .10385)"> <circle transform="scale(-1,1)" cx="-79.338" cy="122.95" r="5.8154" fill="#fff"/> <ellipse transform="scale(-1,1)" cx="-77.158" cy="125.03" rx="2.5427" ry="2.8364"/> </g> <g transform="translate(-54.192 20.077)" fill="#fff"> <path d="m123.16 112.57c0.99742-1.06 5.2599-1.3391 3.4788-0.20769-1.3329 0.84675-2.017 1.6132-2.2075 5.9327 0 0-3.0255-3.8608-1.2714-5.725z"/> <path d="m131.37 112.57c-0.99742-1.06-5.2599-1.3391-3.4788-0.20769 1.3329 0.84675 2.017 1.6132 2.2075 5.9327 0 0 3.0255-3.8608 1.2714-5.725z"/> </g> <g transform="matrix(-1 0 0 1 146.19 .10385)"> <circle transform="scale(-1,1)" cx="-79.338" cy="122.95" r="5.8154" fill="#fff"/> <ellipse transform="scale(-1,1)" cx="-77.054" cy="124.93" rx="2.5427" ry="2.8364"/> </g> <path d="m72.661 111.28c-1.0496-4.265 2.4829-5.8172 4.7226-8.1348-2.1269 2.2939-5.4031 3.7732-4.0584 8.528z"/> <path d="m72.225 110.08c-0.25082-4.3851-4.0836-4.83-6.9058-6.3865 2.7074 1.5671 6.2737 2.0176 6.3865 6.9577z"/> <path d="m61.425 116.2c-0.23826-4.5985-4.785-6.5093-7.8404-4.1019 2.6459-1.5776 7.0401-0.82918 7.3212 4.6731z"/> <path d="m78.646 113.74c0.44045-4.5836 4.9051-6.5828 7.8515-4.0432-2.0093-1.7705-6.9968-1.1383-7.5198 4.3463z"/> <path d="m73.807 111.61c-1.0144-4.4916 2.6016-7.7862 6.1942-6.2949-2.462-1.0537-7.002 1.1059-5.7843 6.4791z"/> <path d="m73.807 111.61c-1.0144-4.4916 2.6016-7.7862 6.1942-6.2949-2.462-1.0537-7.002 1.1059-5.7843 6.4791z"/> </g> <path d="m95.455 114.06c-0.48583 0.0672-0.90811 0.36772-1.1309 0.80469-1.7462 3.4362-3.0493 5.4579-4.2559 6.6992-1.2065 1.2413-2.3177 1.8024-4.127 2.3965-0.78675 0.25851-1.2152 1.1057-0.95703 1.8926 0.25851 0.78675 0.94993 2.2017 1.7887 2.4109 1.061 0.46538 4.9151-0.7993 6.5491-2.1115 0.99578-0.7997 3.5168-4.0044 2.4962-7.813 4.417 5.8105 5.9035 13.14 6.4238 21.24 0.0533 0.82605 0.76568 1.4528 1.5918 1.4004 0.82605-0.0533 1.4528-0.76569 1.4004-1.5918 1.7469-8.8449 1.6596-17.574-8.4707-24.859-0.33313-0.3611-0.82196-0.53621-1.3086-0.46875z" color="#000000" stroke-linecap="round" stroke-linejoin="round" style="-inkscape-stroke:none"/> <path d="m102.84 124.93c-0.59327-2.6269 2.1186-3.8528 4.2198-2.9806-1.4399-0.61627-4.0951 0.64677-3.383 3.7893z" fill-opacity=".99608"/> <path d="m104.94 128.59c1.1483-0.23163 1.8079-0.4857 3.1278 1.3672-0.89467-1.2856-2.5696-1.4914-2.9556-7e-3z" fill-opacity=".99608"/> <path d="m99.902 119.13c0.58161-0.42397 2.0636-1.9069 4.1647-1.0347-1.4399-0.61627-3.1772 0.79363-3.4931 1.6047z" fill-opacity=".99608"/> <g transform="matrix(-1 0 0 1 145.11 0)"> <path d="m95.455 114.06c-0.48583 0.0672-0.90811 0.36772-1.1309 0.80469-1.7462 3.4362-3.0493 5.4579-4.2559 6.6992-1.2065 1.2413-2.3177 1.8024-4.127 2.3965-0.78675 0.25851-1.2152 1.1057-0.95703 1.8926 0.25851 0.78675 0.94993 2.2017 1.7887 2.4109 1.061 0.46538 4.9151-0.7993 6.5491-2.1115 0.99578-0.7997 3.5168-4.0044 2.4962-7.813 4.417 5.8105 5.9035 13.14 6.4238 21.24 0.0533 0.82605 0.76568 1.4528 1.5918 1.4004 0.82605-0.0533 1.4528-0.76569 1.4004-1.5918 1.7469-8.8449 1.6596-17.574-8.4707-24.859-0.33313-0.3611-0.82196-0.53621-1.3086-0.46875z" color="#000000" stroke-linecap="round" stroke-linejoin="round" style="-inkscape-stroke:none"/> <path d="m102.84 124.93c-0.59327-2.6269 2.1186-3.8528 4.2198-2.9806-1.4399-0.61627-4.0951 0.64677-3.383 3.7893z" fill-opacity=".99608"/> <path d="m104.94 128.59c1.1483-0.23163 1.8079-0.4857 3.1278 1.3672-0.89467-1.2856-2.5696-1.4914-2.9556-7e-3z" fill-opacity=".99608"/> <path d="m99.902 119.13c0.58161-0.42397 2.0636-1.9069 4.1647-1.0347-1.4399-0.61627-3.1772 0.79363-3.4931 1.6047z" fill-opacity=".99608"/> </g> <g transform="matrix(-.79319 .27773 .27773 .79319 96.992 10.437)" stroke-width="1.1899"> <path d="m95.455 114.06c-0.48583 0.0672-0.90811 0.36772-1.1309 0.80469-1.7462 3.4362-3.0493 5.4579-4.2559 6.6992-1.2065 1.2413-2.3177 1.8024-4.127 2.3965-0.78675 0.25851-1.2152 1.1057-0.95703 1.8926 0.25851 0.78675 0.94993 2.2017 1.7887 2.4109 1.061 0.46538 4.9151-0.7993 6.5491-2.1115 0.99578-0.7997 3.5168-4.0044 2.4962-7.813 4.417 5.8105 5.9035 13.14 6.4238 21.24 0.0533 0.82605 0.76568 1.4528 1.5918 1.4004 0.82605-0.0533 1.4528-0.76569 1.4004-1.5918 1.7469-8.8449 1.6596-17.574-8.4707-24.859-0.33313-0.3611-0.82196-0.53621-1.3086-0.46875z" color="#000000" stroke-linecap="round" stroke-linejoin="round" stroke-width="1.1899" style="-inkscape-stroke:none"/> <path d="m102.84 124.93c-0.59327-2.6269 2.1186-3.8528 4.2198-2.9806-1.4399-0.61627-4.0951 0.64677-3.383 3.7893z" fill-opacity=".99608"/> <path d="m104.94 128.59c1.1483-0.23163 1.8079-0.4857 3.1278 1.3672-0.89467-1.2856-2.5696-1.4914-2.9556-7e-3z" fill-opacity=".99608"/> <path d="m99.902 119.13c0.58161-0.42397 2.0636-1.9069 4.1647-1.0347-1.4399-0.61627-3.1772 0.79363-3.4931 1.6047z" fill-opacity=".99608"/> </g> <g transform="matrix(.79319 .27773 -.27773 .79319 48.07 10.437)" stroke-width="1.1899"> <path d="m95.455 114.06c-0.48583 0.0672-0.90811 0.36772-1.1309 0.80469-1.7462 3.4362-3.0493 5.4579-4.2559 6.6992-1.2065 1.2413-2.3177 1.8024-4.127 2.3965-0.78675 0.25851-1.2152 1.1057-0.95703 1.8926 0.25851 0.78675 0.94993 2.2017 1.7887 2.4109 1.061 0.46538 4.9151-0.7993 6.5491-2.1115 0.99578-0.7997 3.5168-4.0044 2.4962-7.813 4.417 5.8105 5.9035 13.14 6.4238 21.24 0.0533 0.82605 0.76568 1.4528 1.5918 1.4004 0.82605-0.0533 1.4528-0.76569 1.4004-1.5918 1.7469-8.8449 1.6596-17.574-8.4707-24.859-0.33313-0.3611-0.82196-0.53621-1.3086-0.46875z" color="#000000" stroke-linecap="round" stroke-linejoin="round" stroke-width="1.1899" style="-inkscape-stroke:none"/> <path d="m102.84 124.93c-0.59327-2.6269 2.1186-3.8528 4.2198-2.9806-1.4399-0.61627-4.0951 0.64677-3.383 3.7893z" fill-opacity=".99608"/> <path d="m104.94 128.59c1.1483-0.23163 1.8079-0.4857 3.1278 1.3672-0.89467-1.2856-2.5696-1.4914-2.9556-7e-3z" fill-opacity=".99608"/> <path d="m99.902 119.13c0.58161-0.42397 2.0636-1.9069 4.1647-1.0347-1.4399-0.61627-3.1772 0.79363-3.4931 1.6047z" fill-opacity=".99608"/> </g> <g transform="matrix(-.38769 .40229 .40708 .57471 54.283 30.113)" stroke-width="1.6084"> <path d="m94.324 114.86s1.5545 3.4553 1.4941 3.4746c4.417 5.8105 5.9035 13.14 6.4238 21.24 0.0533 0.82605 0.76568 1.4528 1.5918 1.4004 0.82605-0.0533 1.4528-0.76569 1.4004-1.5918 1.7469-8.8449 1.6596-17.574-8.4707-24.859-0.70586-0.76514-1.9666-0.59158-2.4395 0.33594z" color="#000000" stroke-linecap="round" stroke-linejoin="round" stroke-width="1.6084" style="-inkscape-stroke:none"/> <path d="m102.84 124.93c-0.59327-2.6269 2.1186-3.8528 4.2198-2.9806-1.4399-0.61627-4.0951 0.64677-3.383 3.7893z" fill-opacity=".99608"/> <path d="m104.94 128.59c1.1483-0.23163 1.8079-0.4857 3.1278 1.3672-0.89467-1.2856-2.5696-1.4914-2.9556-7e-3z" fill-opacity=".99608"/> <path d="m99.902 119.13c0.58161-0.42397 2.0636-1.9069 4.1647-1.0347-1.4399-0.61627-3.1772 0.79363-3.4931 1.6047z" fill-opacity=".99608"/> </g> <g transform="matrix(.38769 .40229 -.40708 .57471 91.644 30.234)" stroke-width="1.6084"> <path d="m94.324 114.86s1.5545 3.4553 1.4941 3.4746c4.417 5.8105 5.9035 13.14 6.4238 21.24 0.0533 0.82605 0.76568 1.4528 1.5918 1.4004 0.82605-0.0533 1.4528-0.76569 1.4004-1.5918 1.7469-8.8449 1.6596-17.574-8.4707-24.859-0.70586-0.76514-1.9666-0.59158-2.4395 0.33594z" color="#000000" stroke-linecap="round" stroke-linejoin="round" stroke-width="1.6084" style="-inkscape-stroke:none"/> <path d="m102.84 124.93c-0.59327-2.6269 2.1186-3.8528 4.2198-2.9806-1.4399-0.61627-4.0951 0.64677-3.383 3.7893z" fill-opacity=".99608"/> <path d="m104.94 128.59c1.1483-0.23163 1.8079-0.4857 3.1278 1.3672-0.89467-1.2856-2.5696-1.4914-2.9556-7e-3z" fill-opacity=".99608"/> <path d="m99.902 119.13c0.58161-0.42397 2.0636-1.9069 4.1647-1.0347-1.4399-0.61627-3.1772 0.79363-3.4931 1.6047z" fill-opacity=".99608"/> </g> <circle cx="76.626" cy="126.61" r="1.0904" fill="#fff" fill-opacity=".99608"/> <circle cx="69.772" cy="126.51" r="1.0904" fill="#fff" fill-opacity=".99608"/> </g> </g> <g transform="translate(-55.341 -50.14)"> <path d="m215.6 302.05-5.1e-4 5.2e-4c-4.6969 0.0576-8.4968 2.7606-8.5804 6.1815-2e-3 0.0804-2.8e-4 0.15731 2e-3 0.23358l-1.7586 1.4934 2.0505-0.21239c0.0603 0.11627 0.13218 0.22133 0.20981 0.32091l-1.1824 1.0511 1.8536-0.47646c0.22446 0.12811 0.47801 0.23122 0.75861 0.31471l-0.86816 1.2521 3.1213-0.93534c0.45008 0.023 0.94262 0.0322 1.4454 0.0382l2.0634 0.0207c0.25794 4e-3 0.51775 7e-3 0.78341 0.0139 0.14159 4e-3 0.27648 0.0105 0.41703 0.0145l2.373 0.0858c0.37954 0.0154 0.75995 0.0291 1.1188 0.0351l2.2278-0.0682c0.79919-0.0866 1.4799-0.26082 2.0025-0.57516 0.4131-0.17209 1.1087-0.47355 1.1457-2.1745 0.0862-3.5314-3.8204-6.4907-8.7256-6.6094v-2e-3c-0.15328-4e-3 -0.30583-4e-3 -0.45734-3e-3z" stroke-linecap="square" stroke-linejoin="round" stroke-width=".87074"/> <path transform="matrix(2.9671 .73641 -.73709 2.9643 79.369 .7496)" d="m87.201 65.968c0.45071-0.24508 0.80329-0.66512 0.96656-1.1515 0.16327-0.48636 0.13556-1.0341-0.07597-1.5015-0.21142-0.46716-0.60123-0.84739-1.0658-1.0645-0.46455-0.2171-0.99954-0.27289-1.5029-0.17518-0.50338 0.09771-0.97392 0.34591-1.3523 0.69201s-0.66527 0.78799-0.84613 1.2678c-0.36171 0.95964-0.29246 2.0466 0.04883 3.0137 0.34129 0.96709 0.93843 1.8258 1.6147 2.5968 0.82303 0.93828 1.7845 1.7823 2.37 2.8846 0.57277 1.0782 0.74181 2.3483 0.57014 3.5571s-0.67189 2.3575-1.3567 3.3683c-1.4693 2.1688-3.8243 3.7178-6.3977 4.2081" fill="none" stroke="#000" stroke-linecap="round" stroke-linejoin="round" stroke-width="3.2724"/> <path d="m248.6 234.32c4.7747 4.2686 1.7571 16.682 8.3559 20.401 18.917 10.659 18.511 34.767 12.895 44.476-15.468 26.74-65.916 7.2312-64.887 2.9383 0 0-5.98-59.971 14.995-73.776 8.1436-5.36 21.374-0.53563 28.641 5.9614z" stroke-linecap="round" stroke-linejoin="round" stroke-width="3.2901"/> <path d="m236.1 144.82 10.534 27.293c9.0151 1.4485 21.428 7.0811 33.713 24.383l27.639-5.6348c-13.724 10.819-19.071 20.229-25.408 35.245-7.7218 19.656-28.45 25.733-49.135 14.124-24.239-13.603-38.554-25.844-30.832-45.501 4.1561-10.58 11-17.032 19.713-21.635 10.827-5.7194 11.576-16.374 13.776-28.275z" stroke-linecap="square" stroke-linejoin="round" stroke-width="1.6479"/> <g transform="matrix(-1.8715 -1.3274 -1.3281 1.8695 401.6 41.502)" stroke-width="1.4368"> <g transform="rotate(-13.594 -77.289 193.84)" fill-rule="evenodd" stroke="#000" stroke-linecap="round" stroke-linejoin="round" stroke-width=".71842"> <path transform="rotate(-40.832 47.762 100.66)" d="m17.036 93.403-6.1681-2.3498"/> <path transform="translate(2.6435 21.515)" d="m17.036 93.403-6.1681-2.3498"/> <path transform="rotate(-19.266 82.607 96.345)" d="m17.036 93.403-6.1681-2.3498"/> </g> </g> <g transform="matrix(2.1397 .82761 -.82913 2.1382 270.44 -78.936)" fill-rule="evenodd" stroke="#000" stroke-linecap="round" stroke-linejoin="round" stroke-width=".71842"> <path transform="rotate(-40.832 47.762 100.66)" d="m17.036 93.403-6.1681-2.3498"/> <path transform="translate(2.6435 21.515)" d="m17.036 93.403-6.1681-2.3498"/> <path transform="rotate(-19.266 82.607 96.345)" d="m17.036 93.403-6.1681-2.3498"/> </g> <path d="m240.66 209.18c-0.83815-6.0351-5.0428-8.086-10.665-6.9471-0.49117 0.59036-1.1261 1.1234-0.48699 2.1693 4.7908 1.6894 2.31 4.2796 0.56173 7.4262 0.23732 1.0766 0.8804 1.5142 1.9327 1.3073 1.9298-2.9448 2.9626-6.0922 6.9945-2.3211 0.60705 0.1009 1.1726-0.29946 1.6636-1.6357z" fill="#fff" stroke-linecap="square" stroke-linejoin="round" stroke-width="1.6479"/> <g transform="rotate(-29.779 89.555 -725.7)" stroke-linejoin="round"> <ellipse transform="rotate(38.626)" cx="-98.412" cy="257.45" rx="9.525" ry="11.112" fill="#f9f9f9" fill-opacity=".99471" stroke-linecap="round" stroke-width="10"/> <g transform="matrix(1.4827 0 0 1.4827 54.715 17.855)" stroke-linecap="square"> <ellipse transform="matrix(.99978 -.021003 .02077 .99978 0 0)" cx="-198.19" cy="75.404" rx="4.3835" ry="4.3853" stroke-width=".56308"/> <circle transform="rotate(-22.884)" cx="-210.24" cy="-5.5247" r="1.0268" fill="#fff" stroke-width="1.8833"/> </g> </g> <g transform="rotate(-29.779 121.24 -754.19)" stroke-linejoin="round"> <ellipse transform="rotate(38.626)" cx="-98.412" cy="257.45" rx="9.525" ry="11.112" fill="#f9f9f9" fill-opacity=".99471" stroke-linecap="round" stroke-width="10"/> <g transform="matrix(1.4827 0 0 1.4827 54.715 17.855)" stroke-linecap="square"> <ellipse transform="matrix(.99978 -.021003 .02077 .99978 0 0)" cx="-198.19" cy="75.404" rx="4.3835" ry="4.3853" stroke-width=".56308"/> <circle transform="rotate(-22.884)" cx="-210.24" cy="-5.5247" r="1.0268" fill="#fff" stroke-width="1.8833"/> </g> </g> <path d="m204.19 294.76-5.1e-4 5.2e-4c-4.6969 0.0576-8.4968 2.7606-8.5804 6.1815-2e-3 0.0804-2.8e-4 0.15731 2e-3 0.23358l-1.7586 1.4934 2.0505-0.21239c0.0603 0.11627 0.13218 0.22133 0.20981 0.32091l-1.1824 1.0511 1.8536-0.47646c0.22446 0.12811 0.47801 0.23122 0.75861 0.31471l-0.86816 1.2521 3.1213-0.93534c0.45008 0.023 0.94262 0.0322 1.4454 0.0382l2.0634 0.0207c0.25794 4e-3 0.51775 7e-3 0.78341 0.0139 0.14159 4e-3 0.27648 0.0105 0.41703 0.0145l2.373 0.0858c0.37954 0.0154 0.75995 0.0291 1.1188 0.0351l2.2278-0.0682c0.79919-0.0866 1.4799-0.26082 2.0025-0.57516 0.4131-0.17209 1.1087-0.47355 1.1457-2.1745 0.0862-3.5314-3.8204-6.4907-8.7256-6.6094v-2e-3c-0.15328-4e-3 -0.30583-4e-3 -0.45734-3e-3z" stroke-linecap="square" stroke-linejoin="round" stroke-width=".87074"/> <path d="m259.68 311.44s-11.098-43.06-31.602-39.635c-16.955 2.8318-0.0179 27.888 5.8843 32.899-10.896 1.4793-18.219 15.587-9.1692 14.194 22.637-3.4851 34.956-6.5489 34.887-7.4571z"/> </g> <g transform="translate(2.1167 5.2917)"> <path d="m41.528 90.569-10.534 27.293c-9.0151 1.4485-21.428 7.0811-33.713 24.383l-27.639-5.6348c13.724 10.819 19.071 20.229 25.408 35.245 7.7218 19.656 28.45 25.733 49.135 14.124 24.239-13.603 38.554-25.844 30.832-45.501-4.1561-10.58-11-17.032-19.713-21.635-10.827-5.7194-11.576-16.374-13.776-28.275z" stroke-linecap="square" stroke-linejoin="round" stroke-width="1.6479"/> <g transform="matrix(1.8715 -1.3274 1.3281 1.8695 -123.97 -12.754)" stroke-width="1.4368"> <g transform="rotate(-13.594 -77.289 193.84)" fill-rule="evenodd" stroke="#000" stroke-linecap="round" stroke-linejoin="round" stroke-width=".71842"> <path transform="rotate(-40.832 47.762 100.66)" d="m17.036 93.403-6.1681-2.3498"/> <path transform="translate(2.6435 21.515)" d="m17.036 93.403-6.1681-2.3498"/> <path transform="rotate(-19.266 82.607 96.345)" d="m17.036 93.403-6.1681-2.3498"/> </g> </g> <g transform="matrix(-2.1397 .82761 .82913 2.1382 7.1863 -133.19)" fill-rule="evenodd" stroke="#000" stroke-linecap="round" stroke-linejoin="round" stroke-width=".71842"> <path transform="rotate(-40.832 47.762 100.66)" d="m17.036 93.403-6.1681-2.3498"/> <path transform="translate(2.6435 21.515)" d="m17.036 93.403-6.1681-2.3498"/> <path transform="rotate(-19.266 82.607 96.345)" d="m17.036 93.403-6.1681-2.3498"/> </g> <path d="m41.83 150.18c0.83359-6.0358 5.0367-8.0898 10.66-6.9551 0.49162 0.58998 1.1269 1.1225 0.48863 2.1689-4.7895 1.693-2.3068 4.2813-0.55612 7.4266-0.23646 1.0768-0.87926 1.5149-1.9317 1.3088-1.9321-2.9433-2.9672-6.0899-6.9962-2.3158-0.60698 0.10137-1.1728-0.29857-1.6649-1.6345z" fill="#fff" stroke-linecap="square" stroke-linejoin="round" stroke-width="1.6479"/> <g transform="translate(4.4901 -2.6192)" stroke-linejoin="round"> <ellipse transform="matrix(-.65057 .75945 .75945 .65057 0 0)" cx="74.03" cy="119.01" rx="9.525" ry="11.112" fill="#f9f9f9" fill-opacity=".99471" stroke-linecap="round" stroke-width="10"/> <g transform="matrix(-1.8757 .35743 .35743 1.8757 -354.25 53.275)" stroke-linecap="square"> <ellipse transform="matrix(.99978 -.021003 .02077 .99978 0 0)" cx="-197.41" cy="75.274" rx="4.3835" ry="4.3853" stroke-width=".56308"/> <circle transform="rotate(-22.884)" cx="-211.11" cy="-5.9486" r="1.0268" fill="#fff" stroke-width="1.8833"/> </g> </g> <g transform="translate(-12.722 9.7286)" stroke-linejoin="round"> <ellipse transform="matrix(-.65057 .75945 .75945 .65057 0 0)" cx="74.03" cy="119.01" rx="9.525" ry="11.112" fill="#f9f9f9" fill-opacity=".99471" stroke-linecap="round" stroke-width="10"/> <g transform="matrix(-1.8757 .35743 .35743 1.8757 -354.25 53.275)" stroke-linecap="square"> <ellipse transform="matrix(.99978 -.021003 .02077 .99978 0 0)" cx="-197.41" cy="75.274" rx="4.3835" ry="4.3853" stroke-width=".56308"/> <circle transform="rotate(-22.884)" cx="-211.11" cy="-5.9486" r="1.0268" fill="#fff" stroke-width="1.8833"/> </g> </g> <g transform="matrix(-1 0 0 1 338.53 -178.86)"> <path d="m285.14 418.07-5.1e-4 5.2e-4c-4.6969 0.0576-8.4968 2.7606-8.5804 6.1815-2e-3 0.0804-2.8e-4 0.15731 2e-3 0.23358l-1.7586 1.4934 2.0505-0.21239c0.0603 0.11627 0.13218 0.22133 0.20981 0.32091l-1.1824 1.0511 1.8536-0.47646c0.22446 0.12811 0.47801 0.23122 0.75861 0.31471l-0.86816 1.2521 3.1213-0.93534c0.45008 0.023 0.94262 0.0322 1.4454 0.0382l2.0634 0.0207c0.25794 4e-3 0.51775 7e-3 0.78341 0.0139 0.14159 4e-3 0.27648 0.0105 0.41703 0.0145l2.373 0.0858c0.37954 0.0154 0.75995 0.0291 1.1188 0.0351l2.2278-0.0682c0.79919-0.0866 1.4799-0.26082 2.0025-0.57516 0.4131-0.17209 1.1087-0.47355 1.1457-2.1745 0.0862-3.5314-3.8204-6.4907-8.7256-6.6094v-2e-3c-0.15328-4e-3 -0.30583-4e-3 -0.45734-3e-3z" stroke-linecap="square" stroke-linejoin="round" stroke-width=".87074"/> <path transform="matrix(-.78571 -2.9544 -2.9516 .78635 643.87 572.42)" d="m87.199 68.281c1.0283-0.3077 2.1888-0.13954 3.0874 0.4474 0.89868 0.58695 1.5191 1.5819 1.6507 2.6472 0.10793 0.87364-0.10429 1.7741-0.53972 2.5392-0.43543 0.76504-1.0864 1.3972-1.8331 1.8634-1.4934 0.93244-3.3127 1.1932-5.0732 1.1988-1.7606 0.0057-3.5177-0.22158-5.2775-0.17075-1.7598 0.05082-3.5754 0.4091-4.9926 1.4536-0.87548 0.64524-1.5665 1.5379-1.9717 2.5472-0.40524 1.0092-0.52344 2.1319-0.33728 3.2035 0.18616 1.0715 0.67612 2.0885 1.398 2.902 0.72191 0.81342 1.6735 1.4207 2.7154 1.7328" fill="none" stroke="#000" stroke-linecap="round" stroke-linejoin="round" stroke-width="3.2724"/> <path d="m318.14 350.34c4.7747 4.2686 1.7571 16.682 8.3559 20.401 18.917 10.659 18.511 34.767 12.895 44.476-15.468 26.74-65.916 7.2312-64.887 2.9383 0 0-5.98-59.971 14.995-73.776 8.1436-5.36 21.374-0.53563 28.641 5.9614z" stroke-linecap="round" stroke-linejoin="round" stroke-width="3.2901"/> <path d="m273.73 410.78-5.1e-4 5.2e-4c-4.6969 0.0576-8.4968 2.7606-8.5804 6.1815-2e-3 0.0804-2.8e-4 0.15731 2e-3 0.23358l-1.7586 1.4934 2.0505-0.21239c0.0603 0.11627 0.13218 0.22133 0.20981 0.32091l-1.1824 1.0511 1.8536-0.47646c0.22446 0.12811 0.47801 0.23122 0.75861 0.31471l-0.86816 1.2521 3.1213-0.93534c0.45008 0.023 0.94262 0.0322 1.4454 0.0382l2.0634 0.0207c0.25794 4e-3 0.51775 7e-3 0.78341 0.0139 0.14159 4e-3 0.27648 0.0105 0.41703 0.0145l2.373 0.0858c0.37954 0.0154 0.75995 0.0291 1.1188 0.0351l2.2278-0.0682c0.79919-0.0866 1.4799-0.26082 2.0025-0.57516 0.4131-0.17209 1.1087-0.47355 1.1457-2.1745 0.0862-3.5314-3.8204-6.4907-8.7256-6.6094v-2e-3c-0.15328-4e-3 -0.30583-4e-3 -0.45734-3e-3z" stroke-linecap="square" stroke-linejoin="round" stroke-width=".87074"/> <path d="m329.16 427.86s-11.032-43.457-31.536-40.032c-16.955 2.8318-0.0179 27.888 5.8843 32.899-10.896 1.4793-18.121 16.121-9.1692 14.194 22.532-4.8501 34.82-7.0601 34.82-7.0601z"/> </g> </g> </g> </svg>