<?xml version='1.0' encoding='utf-8'?>
<svg xmlns="http://www.w3.org/2000/svg" width="88.04mm" height="47.627mm" version="1.1" viewBox="0 0 88.04 47.627"> <defs> <linearGradient id="b" x1="100.1" x2="117.75" y1="92.014" y2="92.118" gradientUnits="userSpaceOnUse"> <stop offset="0"/> <stop stop-color="#976236" offset="1"/> </linearGradient> <linearGradient id="a" x1="58.143" x2="73.72" y1="91.391" y2="91.495" gradientUnits="userSpaceOnUse"> <stop stop-color="#976236" offset="0"/> <stop offset="1"/> </linearGradient> </defs> <g transform="translate(-297.23 -139.27)"> <g transform="translate(253.19 73.724)"> <path d="m73.585 78.198h28.952l0.06224 20.51-29.1-0.31154z" fill="#c28a65" fill-rule="evenodd" stroke="#000" stroke-linecap="round"/> <path d="m117.76 108.1-15.162-9.3927-0.0622-20.51h15.224z" fill="url(#b)" fill-rule="evenodd" stroke="#000" stroke-linecap="round"/> <path d="m58.362 108.1 15.138-9.7043 29.1 0.31154 15.162 9.3927z" fill="#976236" fill-rule="evenodd" stroke="#000" stroke-linecap="round"/> <path d="m58.362 108.1 15.138-9.7043 0.08557-20.199h-15.224z" fill="url(#a)" fill-rule="evenodd" stroke="#000" stroke-linecap="round"/> <g stroke="#000" stroke-linecap="round"> <rect x="58.362" y="78.198" width="59.4" height="29.903" ry="0" fill="none"/> <path d="m58.362 78.198h59.4l4.7769-12.152h-68.538z" fill="#c0834f" fill-rule="evenodd"/> <path d="m58.362 108.1h59.4l2.8154 4.5715h-65.527z" fill="#c0834f" fill-rule="evenodd"/> <path d="m58.362 78.198-13.292-6.5446-0.51923 40.188 13.812-3.7408z" fill="#c0834f" fill-rule="evenodd"/> <path d="m117.76 78.198 13.292-6.5446 0.51923 40.188-13.812-3.7408z" fill="#c0834f" fill-rule="evenodd"/> </g> <path d="m113.08 81.48s-6.7163-4.5281-16.822-3.2819c-5.9448-0.13269-8.4002 0.16055-20.03 1e-6 -8.224-0.17351-16.459 2.5962-16.459 2.5962 6.5641 2.3728 9.9822 0.16746 8.3671 7.5577-2.3314 9.5202 3.7417 19.651 14.996 19.635 12.891-0.0183 21.365-0.63914 23.697-10.159 1.2548-5.124 0.86568-7.9326-1.3715-11.919-1.3266-2.3638 0.49568-3.1688 7.6222-4.4287z" stroke-linecap="square" stroke-linejoin="round" stroke-width=".5"/> <path d="m85.557 98.457c1.5745-1.9464 3.5299-1.774 5.3272-0.17729 0.05351 0.31242 0.17125 0.63504-0.28033 0.86728-2.0916-0.42425-1.7382 1.0153-1.7673 2.495-0.31271 0.32853-0.63787 0.34578-0.97555 0.0497-0.07924-1.4472 0.20939-2.7749-2.0457-2.3049-0.24145-0.09283-0.36184-0.35486-0.25837-0.92973z" fill="#fff" stroke-linecap="square" stroke-linejoin="round" stroke-width=".5"/> <path d="m106.38 100.65c-3.308 0.0735-5.9467 2.0631-5.8938 4.4436 2e-3 0.0933 0.01 0.1807 0.0207 0.26541l-0.99425 1.8493 1.7431-0.64715c0.35192 0.21258 0.81039 0.33088 1.3492 0.39023l0.93506 1.9948 0.56737-1.9459c0.24202-3e-3 0.49854-0.0122 0.7545-0.0221l0.97692 2.0844 0.62356-2.1392c0.0947-3e-3 0.18549-7e-3 0.281-9e-3 0.17915-4e-3 0.35455-6e-3 0.52851-8e-3l0.8558 1.8257 0.53558-1.8368c0.33904-3e-3 0.67135-9e-3 0.97489-0.0238l0.8991 1.9186 0.62075-2.1291c0.84365-0.24909 1.3314-0.76305 1.3076-1.8342-0.0529-2.3805-2.7774-4.2508-6.0854-4.1773z" stroke-linecap="square" stroke-linejoin="round" stroke-width=".5"/> <path d="m69.966 100.68c3.3035 0.18773 5.8719 2.2672 5.7368 4.6445-0.0053 0.0931-0.01625 0.18025-0.02983 0.26454l0.9298 1.8825-1.7197-0.70696c-0.35906 0.2003-0.82134 0.30266-1.3619 0.34346l-1.0034 1.9613-0.49983-1.9644c-0.24175-0.0117-0.49782-0.0293-0.75331-0.0478l-1.0483 2.0494-0.54931-2.1595c-0.09463-6e-3 -0.18513-0.0135-0.28051-0.0189-0.17892-0.0102-0.35413-0.0181-0.52793-0.026l-0.91831 1.795-0.47177-1.8542c-0.33872-0.0152-0.67065-0.0321-0.97352-0.0573l-0.96481 1.8864-0.54681-2.1493c-0.83456-0.27807-1.3042-0.80856-1.2434-1.8782 0.13509-2.3772 2.9226-4.1524 6.226-3.9646z" stroke-linecap="square" stroke-linejoin="round" stroke-width=".5"/> <g transform="matrix(1.0537 .14899 -.14899 1.0537 88.853 -2.5576)" stroke-width=".93972"> <g transform="rotate(-13.594 -77.289 193.84)" fill-rule="evenodd" stroke="#000" stroke-linecap="round" stroke-linejoin="round" stroke-width=".46986"> <path transform="rotate(-40.832 47.762 100.66)" d="m17.036 93.403-6.1681-2.3498"/> <path transform="translate(2.6435 21.515)" d="m17.036 93.403-6.1681-2.3498"/> <path transform="rotate(-19.266 82.607 96.345)" d="m17.036 93.403-6.1681-2.3498"/> </g> </g> <g transform="matrix(-1.0534 -.1509 -.1509 1.0534 141.19 -21.491)" fill-rule="evenodd" stroke="#000" stroke-linecap="round" stroke-linejoin="round" stroke-width=".46986"> <path transform="rotate(-40.832 47.762 100.66)" d="m17.036 93.403-6.1681-2.3498"/> <path transform="translate(2.6435 21.515)" d="m17.036 93.403-6.1681-2.3498"/> <path transform="rotate(-19.266 82.607 96.345)" d="m17.036 93.403-6.1681-2.3498"/> </g> <g transform="translate(-.10618 .45662)"> <g transform="matrix(1.2141 0 0 1.2141 -4.9209 -30.993)" stroke-linecap="square" stroke-linejoin="round" stroke-width=".41184"> <ellipse transform="scale(1,-1)" cx="70.713" cy="-102.44" rx="4.9198" ry="4.6217" fill="#fff"/> <circle cx="70.619" cy="103.12" r="3.7652"/> </g> <circle cx="82.876" cy="91.72" r="1.0196" fill="#fff" fill-rule="evenodd"/> <g transform="translate(14.613)"> <g transform="matrix(1.2141 0 0 1.2141 -4.9209 -30.993)" stroke-linecap="square" stroke-linejoin="round" stroke-width=".41184"> <ellipse transform="scale(1,-1)" cx="70.713" cy="-102.44" rx="4.9198" ry="4.6217" fill="#fff"/> <circle cx="70.619" cy="103.12" r="3.7652"/> </g> <circle cx="82.876" cy="91.72" r="1.0196" fill="#fff" fill-rule="evenodd"/> </g> </g> </g> </g> </svg>