<?xml version='1.0' encoding='utf-8'?>
<svg xmlns="http://www.w3.org/2000/svg" width="193.05mm" height="187.59mm" version="1.1" viewBox="0 0 193.05 187.59"> <g transform="translate(529.18 -623.79)"> <g transform="translate(-7.9375 423.33)"> <g transform="translate(-534.15 387.05)"> <path d="m41.534-94.293c6.8925-41.041-4.4901-89.803-4.4901-89.803s35.039 6.9036 49.391 26.192c21.196-10.809 36.671-5.4106 52.011 0.37417 10.677-21.027 45.65-28.063 45.65-28.063s-12.582 43.779-3.7418 90.925c15.852-4.2327 14.946 3.8239 16.464 10.103 9.8737 6.3271 7.519 13.354 0.37418 25.07 13.853 25.76 5.6856 42.547 2.2873 59.494l-179.65-1.1225c-6.8091-14.71-9.5297-32.146 1.4967-58.746-1.3973-8.2694-6.1348-17.374 3.7418-22.825 1.1974-7.871 0.82682-17.205 16.464-11.599z" fill="#fff" stroke="#000" stroke-linecap="round" stroke-linejoin="round" stroke-width="2"/> <g transform="matrix(.43856 -.08832 .08832 .43856 325.9 -215.02)"> <path d="m-660.64 180.78c-5.6533-1.3504-8.9767-7.8037-7.0891-13.242 1.4163-7.0302 5.611-14.877 13.227-16.401 5.8346-0.90564 11.478 4.0842 11.502 9.9607 0.8039 7.3369-2.1474 15.532-8.5295 19.585-2.83 1.4094-6.2116 1.1453-9.1108 0.0967z"/> <path d="m-683.66 180.46c-6.3217 1.379-11.583-4.2488-13.353-9.7907-2.5368-6.2151-2.7361-14.96 3.3499-19.191 5.4826-3.3987 12.873-0.31279 15.771 5.0838 3.2648 4.9668 5.5588 11.296 3.9286 17.223-1.5344 3.9309-5.7678 5.99-9.6962 6.6746z"/> <path d="m-645.89 200.02c-5.4166-1.9364-7.1083-8.8934-4.3559-13.637 3.174-6.7279 10.522-11.787 18.046-11.458 6.1467 0.90893 7.8058 8.0772 5.7255 13.113-2.0596 7.2811-9.2416 14.135-17.227 12.735-0.75247-0.17706-1.4841-0.43658-2.1889-0.75299z"/> <path d="m-699.48 201.79c-8.6356 0.53941-15.124-7.8852-15.946-15.847-1.1605-5.1157 2.119-11.53 7.9445-11.068 6.3039 0.33507 11.551 5.1133 14.729 10.253 2.7048 4.5403 3.2185 11.675-1.8059 14.841-1.4816 0.95852-3.1843 1.5444-4.9213 1.8211z"/> <path d="m-689.08 229.05c-7.067-0.85171-14.435-7.3506-12.777-14.995 1.0861-6.0627 5.023-7.8429 9.7639-11.174 2.0406-1.4339 7.1121-3.0982 8.4924-5.1707 2.0161-3.0273 0.89674-9.2715 2.9794-12.226 4.8204-6.0573 15.459-5.9231 19.705 0.73541 1.7372 3.2657 0.0908 8.1166 2.2728 11.164 2.3591 3.2946 8.6085 4.7337 12.192 6.8106 6.9608 4.7458 8.2149 16.32 1.2648 21.647-9.5688 8.1221-25.515-3.2269-25.792-3.2351-1.4784-0.0436-6.9733 7.165-18.101 6.4443z"/> </g> <g transform="matrix(-.44626 -.031454 -.031454 .44626 -119.31 -180.01)"> <path d="m-660.64 180.78c-5.6533-1.3504-8.9767-7.8037-7.0891-13.242 1.4163-7.0302 5.611-14.877 13.227-16.401 5.8346-0.90564 11.478 4.0842 11.502 9.9607 0.8039 7.3369-2.1474 15.532-8.5295 19.585-2.83 1.4094-6.2116 1.1453-9.1108 0.0967z"/> <path d="m-683.66 180.46c-6.3217 1.379-11.583-4.2488-13.353-9.7907-2.5368-6.2151-2.7361-14.96 3.3499-19.191 5.4826-3.3987 12.873-0.31279 15.771 5.0838 3.2648 4.9668 5.5588 11.296 3.9286 17.223-1.5344 3.9309-5.7678 5.99-9.6962 6.6746z"/> <path d="m-645.89 200.02c-5.4166-1.9364-7.1083-8.8934-4.3559-13.637 3.174-6.7279 10.522-11.787 18.046-11.458 6.1467 0.90893 7.8058 8.0772 5.7255 13.113-2.0596 7.2811-9.2416 14.135-17.227 12.735-0.75247-0.17706-1.4841-0.43658-2.1889-0.75299z"/> <path d="m-699.48 201.79c-8.6356 0.53941-15.124-7.8852-15.946-15.847-1.1605-5.1157 2.119-11.53 7.9445-11.068 6.3039 0.33507 11.551 5.1133 14.729 10.253 2.7048 4.5403 3.2185 11.675-1.8059 14.841-1.4816 0.95852-3.1843 1.5444-4.9213 1.8211z"/> <path d="m-689.08 229.05c-7.067-0.85171-14.435-7.3506-12.777-14.995 1.0861-6.0627 5.023-7.8429 9.7639-11.174 2.0406-1.4339 7.1121-3.0982 8.4924-5.1707 2.0161-3.0273 0.89674-9.2715 2.9794-12.226 4.8204-6.0573 15.459-5.9231 19.705 0.73541 1.7372 3.2657 0.0908 8.1166 2.2728 11.164 2.3591 3.2946 8.6085 4.7337 12.192 6.8106 6.9608 4.7458 8.2149 16.32 1.2648 21.647-9.5688 8.1221-25.515-3.2269-25.792-3.2351-1.4784-0.0436-6.9733 7.165-18.101 6.4443z"/> </g> <path d="m41.534-94.293c6.6712-5.4142 19.294-5.3152 24.322 5.2385 6.792-2.9626 13.581 8.6481 11.225 15.715-0.72108 2.1632-2.0495 4.099-2.9934 5.9868-3.5351 7.0703-2.6264 20.191 0.74836 26.941" fill="none" stroke="#000" stroke-linecap="round" stroke-linejoin="round" stroke-width="2"/> <path d="m180.35-94.667c-6.8802-4.5108-22.348-1.6387-23.507 9.729-7.2992-1.2767-11.158 11.608-7.2011 17.92 1.211 1.9321 2.9586 3.4998 4.3213 5.1117 5.1033 6.0368 7.3155 19.002 5.6282 26.357" fill="none" stroke="#000" stroke-linecap="round" stroke-linejoin="round" stroke-width="2"/> <g transform="translate(.8599 -.3521)" stroke="#000" stroke-linecap="round" stroke-linejoin="round"> <circle cx="95.515" cy="-129.65" r="9.2604" fill="#fff" stroke-width="2"/> <circle cx="95.515" cy="-133.09" r="2.9847" stroke-width=".3223"/> </g> <g transform="translate(31.221 -.058347)" stroke="#000" stroke-linecap="round" stroke-linejoin="round"> <circle cx="95.515" cy="-129.65" r="9.2604" fill="#fff" stroke-width="2"/> <circle cx="95.515" cy="-133.09" r="2.9847" stroke-width=".3223"/> </g> <path d="m117.12-123.57c2.144 0.31257 4.337 2.3458 3.7748 4.6596-0.37631 1.8367-1.5877 2.3486-3.0556 3.3265-0.63179 0.42091-2.1876 0.88903-2.6232 1.5092-0.63638 0.90595-0.34294 2.8145-0.99901 3.6977-1.5126 1.8068-4.7488 1.6856-5.9905-0.37268-0.50394-1.0069 0.0337-2.4705-0.60723-3.4143-0.69298-1.0204-2.5838-1.5055-3.6585-2.1646-2.0823-1.4967-2.3764-5.0281-0.22131-6.5966 2.9731-2.3992 7.7397 1.1747 7.8239 1.1793 0.44956 0.0243 2.1761-2.1276 5.5567-1.8242z" stroke-width=".30439"/> <path d="m111.12-111v7.2765" stroke="#000" stroke-linecap="round" stroke-linejoin="round" stroke-width="2"/> <path d="m95.405-81.054c18.715 11.699 27.088 5.2352 36.248 0.31469" fill="none" stroke="#000" stroke-linecap="round" stroke-linejoin="round" stroke-width="2"/> <path d="m111.12-103.73c9.1195 9.0185 13.199 4.0356 17.663 0.24259" fill="none" stroke="#000" stroke-linecap="round" stroke-linejoin="round" stroke-width="2"/> <path d="m111.12-103.73c-9.1195 9.0185-13.199 4.0356-17.663 0.24259" fill="none" stroke="#000" stroke-linecap="round" stroke-linejoin="round" stroke-width="2"/> <path d="m119.96-98.212c-9.1195 9.0185-13.199 4.0356-17.663 0.24259" fill="none" stroke="#000" stroke-linecap="round" stroke-linejoin="round" stroke-width="2"/> <g transform="translate(-10.676)" fill="none" stroke="#000" stroke-linecap="round" stroke-linejoin="round" stroke-width="2"> <path d="m132.46-113 49.391-7.4835"/> <path d="m132.49-112.9 49.95 0.74877"/> <path d="m132.5-112.79 48.904 10.192"/> </g> <g transform="matrix(-1 0 0 1 232.91 0)" fill="none" stroke="#000" stroke-linecap="round" stroke-linejoin="round" stroke-width="2"> <path d="m132.46-113 49.391-7.4835"/> <path d="m132.49-112.9 49.95 0.74877"/> <path d="m132.5-112.79 48.904 10.192"/> </g> <path d="m51.262-172.87c10.745 3.7074 19.015 8.5297 23.199 22.076-6.7985 1.182-12.283 6.3046-16.09 16.464" fill="none" stroke="#000" stroke-linecap="round" stroke-linejoin="round" stroke-width="2"/> <path d="m175.53-172.87c-10.745 3.7074-19.015 8.5297-23.199 22.076 6.7985 1.182 12.283 6.3046 16.09 16.464" fill="none" stroke="#000" stroke-linecap="round" stroke-linejoin="round" stroke-width="2"/> </g> </g> </g> </svg>