<svg width="260" height="260" viewBox="0 0 260 260" xmlns="http://www.w3.org/2000/svg">
  <path d="M190 170
           C230 160 230 110 195 105"
        stroke="#0f0f0f"
        stroke-width="14"
        fill="none"
        stroke-linecap="round"/>


  <ellipse cx="130" cy="175" rx="48" ry="50" fill="#111"/>


  <ellipse cx="105" cy="215" rx="14" ry="10" fill="#111"/>


  <ellipse cx="150" cy="215" rx="14" ry="10" fill="#111"/>


  <ellipse cx="165" cy="110" rx="10" ry="18" fill="#111" transform="rotate(-25 165 110)"/>


  <circle cx="130" cy="105" r="58" fill="#111"/>


  <path d="M85 70 L105 30 L120 75 Z" fill="#111"/>
  <path d="M175 70 L155 30 L140 75 Z" fill="#111"/>


  <path d="M95 68 L105 48 L113 72 Z" fill="#3a3a3a"/>
  <path d="M165 68 L155 48 L147 72 Z" fill="#3a3a3a"/>


  <ellipse cx="108" cy="105" rx="18" ry="20" fill="white"/>
  <ellipse cx="152" cy="105" rx="18" ry="20" fill="white"/>


  <circle cx="113" cy="110" r="7" fill="#111"/>
  <circle cx="147" cy="108" r="7" fill="#111"/>


  <ellipse cx="130" cy="125" rx="4" ry="3" fill="#e5e5e5"/>


  <path d="M122 132 Q130 142 138 132"
        stroke="#e5e5e5"
        stroke-width="3"
        fill="none"
        stroke-linecap="round"/>


  <line x1="65" y1="120" x2="102" y2="122" stroke="#e5e5e5" stroke-width="3"/>
  <line x1="65" y1="132" x2="102" y2="128" stroke="#e5e5e5" stroke-width="3"/>

  <line x1="195" y1="120" x2="158" y2="122" stroke="#e5e5e5" stroke-width="3"/>
  <line x1="195" y1="132" x2="158" y2="128" stroke="#e5e5e5" stroke-width="3"/>


  <path d="M175 55 Q185 45 195 55"
        stroke="#555"
        stroke-width="3"
        fill="none"
        stroke-linecap="round"/>

</svg>