<?xml version='1.0' encoding='utf-8'?>
<svg xmlns:xlink="http://www.w3.org/1999/xlink" xmlns="http://www.w3.org/2000/svg" width="5.57in" height="5.3979in" version="1.1" viewBox="0 0 141.48 137.11"> <defs> <linearGradient id="a"> <stop stop-color="#164652" offset="0"/> <stop stop-color="#2f95ad" stop-opacity=".56813" offset="1"/> </linearGradient> <linearGradient id="b"> <stop stop-color="#287b90" offset="0"/> <stop stop-color="#164450" offset="1"/> </linearGradient> <linearGradient id="h" x1="84.667" x2="93.662" y1="91.281" y2="51.329" gradientTransform="matrix(-1 0 0 1 216.91 -.18709)" gradientUnits="userSpaceOnUse" xlink:href="#a"/> <linearGradient id="g" x1="140.2" x2="132.16" y1="87.392" y2="81.227" gradientUnits="userSpaceOnUse" xlink:href="#b"/> <linearGradient id="f" x1="84.667" x2="93.662" y1="91.281" y2="51.329" gradientTransform="translate(1.4967 -.18709)" gradientUnits="userSpaceOnUse" xlink:href="#a"/> <linearGradient id="e" x1="139.27" x2="132.16" y1="85.147" y2="81.227" gradientTransform="matrix(-1 0 0 1 216.05 1.3229)" gradientUnits="userSpaceOnUse" xlink:href="#b"/> <linearGradient id="d" x1="107.85" x2="108.01" y1="102.3" y2="86.721" gradientTransform="matrix(1.0013 0 0 .8795 -.13732 12.351)" gradientUnits="userSpaceOnUse"> <stop stop-color="#2e91a9" offset="0"/> <stop stop-color="#123943" offset="1"/> </linearGradient> <linearGradient id="c" x1="-56.273" x2="-46.955" y1="126.6" y2="126.6" gradientTransform="matrix(.72077 0 0 .72469 217.73 43.466)" gradientUnits="userSpaceOnUse"> <stop stop-color="#03090b" offset="0"/> <stop stop-color="#257589" offset="1"/> </linearGradient> </defs> <g transform="translate(-53.353 -45.993)"> <g transform="translate(0 -58.208)"> <g transform="matrix(1.1189 0 0 1.1189 -6.7333 47.385)"> <path transform="matrix(.23594 -.4749 .47823 .23557 40.761 187.26)" d="m59.031 9.8193c-1.7249 0.934-3.0247 2.6205-3.4886 4.5264-0.46386 1.9059-0.08444 4.0011 1.0183 5.6233 0.74658 1.0983 1.7901 1.9646 2.8993 2.6948s2.2939 1.3376 3.4334 2.0195 2.246 1.4491 3.1276 2.4423 1.5292 2.2353 1.6243 3.5599c0.07193 1.0014-0.16982 1.9949-0.36828 2.9792-0.19846 0.98421-0.35411 2.0097-0.11374 2.9845 0.27363 1.1097 1.0343 2.0376 1.8778 2.8089 0.8435 0.77128 1.7901 1.4278 2.5953 2.2389 0.57825 0.58242 1.0794 1.2413 1.4861 1.9542" fill="none" stroke="#000" stroke-linecap="round" stroke-linejoin="round" stroke-width="5.8831"/> <g transform="matrix(.74582 0 0 .74582 19.122 12.302)"> <path d="m91.183 202.51c0 2.9582 0.8936 7.4323-4.1185 5.6607-2.9883-1.0563-8.4557-2.8105-8.5991-5.7651-1.0619-21.871 10.105-13.813 12.095-9.7744 0.4189 0.85018 0.62295 6.9206 0.62296 9.8788z" fill-rule="evenodd" stroke-linecap="round" stroke-linejoin="round" stroke-width="2.6476"/> <path d="m110.56 205.41c-2.2094 0.059-3.9643 1.4033-3.9198 3.0024 2e-3 0.0628 7e-3 0.12139 0.0149 0.17823l-0.65701 1.2453 1.1618-0.43988c0.23589 0.14186 0.5426 0.21995 0.90275 0.25827l0.6323 1.3374 0.3715-1.309c0.16161-2e-3 0.33297-0.01 0.50389-0.0171l0.66058 1.3976 0.40825-1.439c0.0634-2e-3 0.12382-5e-3 0.18766-7e-3 0.11971-4e-3 0.23682-5e-3 0.35303-6e-3l0.57872 1.2241 0.35063-1.2356c0.22646-3e-3 0.44843-8e-3 0.65113-0.0189l0.60794 1.2864 0.4064-1.4322c0.5624-0.17045 0.88638-0.51648 0.86635-1.2361-0.0445-1.5992-1.8716-2.8478-4.081-2.7889z" stroke-linecap="square" stroke-linejoin="round" stroke-width=".44127"/> <path d="m94.174 206.6c2.2064 0.12677 3.9191 1.5244 3.8256 3.1215-3e-3 0.0626-0.0114 0.12103-0.0203 0.17772l0.61847 1.2649-1.1477-0.47531c-0.24014 0.13447-0.54906 0.20319-0.91018 0.23047l-0.67299 1.3175-0.33114-1.3199c-0.16146-9e-3 -0.33248-0.0198-0.5031-0.0324l-0.70311 1.3767-0.3639-1.451c-0.06314-4e-3 -0.12365-9e-3 -0.18735-0.0129-0.11952-8e-3 -0.23655-0.0123-0.35264-0.0174l-0.61592 1.2058-0.31254-1.2459c-0.22622-9e-3 -0.44792-0.0215-0.6502-0.0387l-0.64711 1.2672-0.36225-1.4441c-0.5571-0.18691-0.87007-0.54348-0.82796-1.2621 0.09356-1.5972 1.958-2.7892 4.1644-2.6624z" stroke-linecap="square" stroke-linejoin="round" stroke-width=".44127"/> <path d="m80.902 203.57c2.0324 0.12548 3.6043 1.4201 3.511 2.8913-0.0031 0.0577-0.01097 0.11149-0.01905 0.1638l-0.49122 0.72542c-0.22186 0.12299-0.50683 0.18502-0.8397 0.20875l-0.626 1.2112-0.2992-1.2174c-0.14882-7e-3 -0.30627-0.0195-0.46346-0.0316l-0.65403 1.2657-0.32881-1.3383c-0.05814-5e-3 -0.11386-9e-3 -0.17256-0.0127-0.11005-7e-3 -0.21798-0.0106-0.32492-0.0166l-0.57292 1.1086-0.2824-1.1491c-0.2084-0.0106-0.41264-0.0213-0.59894-0.0383l-0.60193 1.165-0.32732-1.332c-0.51248-0.17437-0.79926-0.50424-0.75724-1.1662 0.09338-1.4712 1.8167-2.5621 3.8491-2.4365z" stroke-linecap="square" stroke-linejoin="round" stroke-width=".52059"/> <g transform="matrix(.70734 .068843 -.068411 .71181 81.873 119.44)" fill-rule="evenodd" stroke="#000" stroke-linecap="round" stroke-linejoin="round" stroke-width=".61899"> <path transform="rotate(-40.832 47.762 100.66)" d="m17.036 93.403-6.1681-2.3498"/> <path transform="translate(2.6435 21.515)" d="m17.036 93.403-6.1681-2.3498"/> <path transform="rotate(-19.266 82.607 96.345)" d="m17.036 93.403-6.1681-2.3498"/> <path transform="rotate(-40.832 47.762 100.66)" d="m17.036 93.403-6.1681-2.3498"/> <path transform="translate(2.6435 21.515)" d="m17.036 93.403-6.1681-2.3498"/> <path transform="rotate(-19.266 82.607 96.345)" d="m17.036 93.403-6.1681-2.3498"/> </g> <g transform="matrix(.51599 0 0 .51599 49.036 72.196)"> <path d="m70.393 210.65 15.56 12.13c5.7163-2.2895 14.849-3.3379 27.956 2.4073l14.03-12.846c-4.184 11.018-4.0123 18.314-2.4685 29.197 2.3526 14.046-7.5274 24.751-23.517 25.213-18.737 0.54106-31.262-1.573-33.615-15.62-1.2662-7.5602 0.45349-13.666 3.8961-19.351 4.2777-7.0634 1.0152-13.485-1.8409-21.131z" stroke-linecap="square" stroke-linejoin="round" stroke-width="1.1113"/> <g transform="matrix(-1.5428 -.11849 -.11958 1.5419 130.26 93.491)" stroke-width="1.4368"> <g transform="rotate(-13.594 -77.289 193.84)" fill-rule="evenodd" stroke="#000" stroke-linecap="round" stroke-linejoin="round" stroke-width=".71842"> <path transform="rotate(-40.832 47.762 100.66)" d="m17.036 93.403-6.1681-2.3498"/> <path transform="translate(2.6435 21.515)" d="m17.036 93.403-6.1681-2.3498"/> <path transform="rotate(-19.266 82.607 96.345)" d="m17.036 93.403-6.1681-2.3498"/> </g> </g> <g transform="matrix(1.5246 -.26359 .2622 1.5242 12.635 69.333)" fill-rule="evenodd" stroke="#000" stroke-linecap="round" stroke-linejoin="round" stroke-width=".71842"> <path transform="rotate(-40.832 47.762 100.66)" d="m17.036 93.403-6.1681-2.3498"/> <path transform="translate(2.6435 21.515)" d="m17.036 93.403-6.1681-2.3498"/> <path transform="rotate(-19.266 82.607 96.345)" d="m17.036 93.403-6.1681-2.3498"/> </g> <path d="m99.557 240.98c-2.6769-3.1176-5.8099-2.7471-8.5835-0.0504-0.06326 0.51404-0.22896 1.048 0.51505 1.4081 3.3337-0.78925 2.8714 1.5849 3.0275 4.0075 0.52735 0.52413 1.0517 0.53777 1.5732 0.0366 0.02053-2.3743-0.5418-4.5363 3.1208-3.868 0.38114-0.16418 0.55589-0.5976 0.34699-1.5347z" fill="#fff" stroke-linecap="square" stroke-linejoin="round" stroke-width="1.1113"/> <g stroke-linejoin="round"> <ellipse transform="matrix(.99205 .12584 .12584 -.99205 0 0)" cx="132.75" cy="-219.39" rx="6.4236" ry="7.4942" fill="#f9f9f9" fill-opacity=".99471" stroke-linecap="round" stroke-width="6.7439"/> <g transform="matrix(.69641 .71752 .71752 -.69641 182.42 426.86)" stroke-linecap="square"> <ellipse transform="matrix(.99978 -.021003 .02077 .99978 0 0)" cx="-196.66" cy="76.2" rx="4.3835" ry="4.3853" stroke-width=".56308"/> <circle transform="rotate(-22.884)" cx="-213.29" cy="-.9221" r="1.0268" fill="#fff" stroke-width="1.8833"/> </g> </g> <g transform="translate(-17.586)" stroke-linejoin="round"> <ellipse transform="matrix(.99205 .12584 .12584 -.99205 0 0)" cx="132.75" cy="-219.39" rx="6.4236" ry="7.4942" fill="#f9f9f9" fill-opacity=".99471" stroke-linecap="round" stroke-width="6.7439"/> <g transform="matrix(.69641 .71752 .71752 -.69641 182.42 426.86)" stroke-linecap="square"> <ellipse transform="matrix(.99978 -.021003 .02077 .99978 0 0)" cx="-196.66" cy="76.2" rx="4.3835" ry="4.3853" stroke-width=".56308"/> <circle transform="rotate(-22.884)" cx="-213.29" cy="-.9221" r="1.0268" fill="#fff" stroke-width="1.8833"/> </g> </g> </g> </g> </g> <g transform="translate(-8.4218 86.139)" stroke-linecap="round"> <path d="m72.201 36.483c-0.60975 0.0053-1.2661 0.05302-1.9766 0.14624-1.6124 0-2.9104 1.298-2.9104 2.9104l0.17518 6.0172c1.0753 15.803 4.8507 30.795 9.7601 45.448 20.227 5.4924 40.453 4.4633 60.68 0 4.8606-15.371 10.347-29.865 11.538-45.072 0.26783-2.7671 0.339-4.301 0.339-6.3934 0-1.6124-1.298-2.9104-2.9104-2.9104-7.3372-0.96271-8.9001 2.9462-13.173 8-16.922 2.7754-33.668 2.8048-50.237 0.1049-3.9235-4.6136-5.5544-8.301-11.285-8.2512z" fill="#2f93ab" stroke="#000"/> <path d="m82.109 119.11 49.967 0.5774c1.2626 9.5769-0.62946 14.387-2.903 20.101l-3.298-0.0787s1.9217-7.2214-0.55623-10.517c-3.9928-5.3107-12.655-4.337-19.217-4.3805-6.543-0.0433-15.182-1.0278-19.352 4.1136-2.663 3.283-0.70064 10.863-0.70064 10.863h-3.056c-1.3905-6.2592-4.8486-10.696-0.88403-20.678z" fill="#260f00" stroke="#000" stroke-width=".76404"/> <path d="m134.22 47.521c0.81538 13.908 1.4065 25.154-2.3735 44.563l-17.832-3.2165c16.917-0.92337 16.045-26.323 20.206-41.347z" fill="url(#h)" opacity=".50524"/> <path d="m150.26 71.087c-3.8048-1.8088-11.174-4.2029-15.061 0.46772-2.6098 3.1363-5.1305 10.509-5.2742 18.244-0.14214 7.6489 2.0762 15.651 2.4272 20.446 8.3412-9.0064 13.831-26.325 17.908-39.157z" fill="url(#g)" stroke="#000"/> <path d="m74.351 122.22 64.785 0.74862c1.637 12.417-0.81613 18.654-3.7638 26.062l-4.276-0.10205s2.4916-9.3628-0.72117-13.636c-5.1768-6.8856-16.408-5.6232-24.916-5.6796-8.4833-0.0562-19.684-1.3326-25.091 5.3335-3.4527 4.2565-0.90841 14.084-0.90841 14.084h-3.9622c-1.8029-8.1153-6.2864-13.867-1.1462-26.81z" fill="#520" stroke="#000" stroke-width=".9906"/> <path d="m84.19 47.521c-0.81537 13.908-1.4065 25.154 2.3735 44.563l17.832-3.2165c-16.917-0.92337-16.045-26.323-20.206-41.347z" fill="url(#f)" opacity=".50524"/> <path d="m65.787 72.41c3.8048-1.8088 11.174-4.2029 15.061 0.46772 2.4315 2.9219 5.6797 10.01 5.9122 17.148 0.26375 8.0997-2.6898 16.417-3.0651 21.542-8.3412-9.0064-13.831-26.325-17.908-39.157z" fill="url(#e)" stroke="#000"/> <path d="m86.737 91.643c10.386-4.0495 37.329-2.678 43.22-0.34977 0.8523 1.3792 2.4879 5.1264 2.2299 8.8927-12.751 2.6439-31.608 2.709-48.485 0.52932-0.4047-1.2609 0.60699-6.4345 3.0356-9.0722z" fill="url(#d)" stroke="#000" stroke-width=".93841"/> <path d="m148.21 70.592c-1.2335-0.04415-2.5933 0.39825-3.9677 1.5255-7.9 6.4794-11.945 24.32-13.725 37.605-12.456-1.7741-40.422-1.571-45.546-0.5824-1.7837-13.219-5.8812-29.384-13.582-35.7-4.8867-4.008-9.591 0.64339-9.0764 5.0286 1.4401 12.274 3.806 26.752 12.016 44.676 26.151 1.2361 53.625 2.9602 64.772 0.14521 10.327-17.961 12.955-32.368 14.217-46.144 0.36982-3.1519-1.9564-6.4413-5.1087-6.5541z" fill="#2c89a0" stroke="#000"/> <path d="m83.545 100.1c29.283 2.8848 46.084 0.8772 48.402-0.46303 0.30298 4.8935-0.28482 8.7931-1.8067 10.954-15.402 2.2368-26.435 2.1957-44.58-0.14835-1.3359-1.8309-2.1397-4.979-2.0145-10.343z" fill="#2e91a9" stroke="#000"/> </g> <g transform="matrix(.99719 .074855 -.10544 1.4046 5.4961 31.845)" stroke-linecap="round" stroke-linejoin="round"> <path transform="translate(-.27828 3.1666)" d="m143.33 94.878c-0.23226 0.40491-0.46451 0.80982-0.46891 1.138-4e-3 0.32815 0.21906 0.57955 0.14335 0.81294-0.0757 0.23339-0.45058 0.44878-0.47068 0.73819s0.31455 0.65286 0.23751 1.0335c-0.077 0.38068-0.56581 0.77859-0.6383 1.1903-0.0725 0.41176 0.27127 0.83736 0.25362 1.1074-0.0177 0.26998-0.39671 0.38435-0.58327 0.62557-0.18657 0.24123-0.18063 0.60931-0.1747 0.9774" fill="none" stroke="#000" stroke-width=".25278"/> <path d="m144.98 95.357c-0.13871 0.33475-0.27743 0.6695-0.16099 1.0054 0.11643 0.33595 0.39446 0.63801 0.27198 0.90648s-0.64547 0.50334-0.71625 0.78496c-0.0708 0.28162 0.40421 0.64506 0.32716 1.0257-0.077 0.38068-0.70612 0.77859-0.77472 1.2371-0.0686 0.45853 0.42328 0.97768 0.40861 1.5916-0.0147 0.61388-0.53591 1.3225-1.0571 2.0311" color="#000000" fill="#b2dfea" stroke-width=".84259" style="-inkscape-stroke:none"/> <path d="m144.95 95.429c7e-3 0.36229 0.013 0.72458-0.21835 0.99457-0.23136 0.26999-0.60069 0.44926-0.58502 0.74394 0.0157 0.29467 0.41634 0.70473 0.37908 0.99271-0.0372 0.28798-0.61234 0.45226-0.68003 0.83471-0.0677 0.38244 0.37199 0.98307 0.26792 1.4349-0.10406 0.45181-0.75187 0.75479-0.963 1.3314-0.21111 0.57663 0.0144 1.4269 0.23999 2.2771" color="#000000" fill="#b2dfea" stroke-width=".84259" style="-inkscape-stroke:none"/> <path d="m145.11 94.903c-0.0836 9.05e-4 -0.15031 0.06983-0.14831 0.15348-0.14504 0.38567-0.3075 0.53928-0.49455 0.75809-0.0935 0.10941-0.26063 0.22061-0.41392 0.34313-0.0767 0.06124-0.15049 0.12673-0.20929 0.20774-0.0589 0.08097-0.1016 0.18409-0.0956 0.29817 0.0124 0.2282 0.16391 0.40354 0.28525 0.57723 0.12135 0.1737 0.20185 0.33945 0.19585 0.38964-3e-3 0.02511-0.0225 0.06188-0.0713 0.11214s-0.12184 0.10744-0.20154 0.17105c-0.15941 0.12721-0.36109 0.28576-0.40669 0.54519-0.0456 0.25945 0.0671 0.51403 0.15503 0.76584 0.088 0.25183 0.15499 0.49368 0.11679 0.66042-0.0382 0.16676-0.19803 0.34336-0.39946 0.54829-0.20143 0.20491-0.4365 0.43894-0.55604 0.76584-0.23848 0.65403 0.0834 1.8455 0.31006 2.6954 4e-3 0.0148 0.0107 0.0285 0.0186 0.0408 2e-3 0.043 0.0227 0.0849 0.06 0.11265 0.0664 0.0487 0.1595 0.0345 0.20877-0.0315 0.52123-0.70861 1.0711-1.4212 1.0878-2.1172 8e-3 -0.34798-0.12547-0.65142-0.23823-0.91571-0.11275-0.2643-0.19739-0.4871-0.17208-0.65629 0.0253-0.16918 0.17609-0.3702 0.34985-0.57258 0.17375-0.20237 0.37151-0.39758 0.42374-0.65577 0.0522-0.25818-0.0778-0.47968-0.17983-0.65629-0.051-0.08831-0.0974-0.16793-0.12454-0.23254-0.0271-0.06461-0.032-0.1062-0.0258-0.13074 0.0123-0.04909 0.14816-0.17403 0.32453-0.29146 0.17636-0.11743 0.38159-0.22565 0.47645-0.43357 0.0474-0.10396 0.0449-0.21524 0.0196-0.31212-0.0252-0.09689-0.0703-0.18475-0.11937-0.26975-0.098-0.17001-0.21228-0.33478-0.25942-0.47077-0.18939-0.54629 0.24268-0.88774 0.23565-1.2516-3e-4 -0.03971-0.0161-0.07751-0.0444-0.10542-0.0287-0.02775-0.0676-0.04268-0.10749-0.04186zm-0.39378 1.0811c-0.0241 0.13443-0.0225 0.27294 0.0269 0.41548 0.0693 0.19996 0.19691 0.37175 0.28318 0.52142 0.0431 0.07483 0.0763 0.143 0.0899 0.19534 0.0136 0.05233 0.01 0.0829-4e-3 0.11317-0.0276 0.06055-0.18876 0.18904-0.36897 0.30902-0.0724 0.04819-0.14928 0.096-0.21963 0.15038 1e-3 -0.0072 3e-3 -0.01429 4e-3 -0.0217 0.0305-0.23782-0.12354-0.42093-0.24753-0.59841s-0.22699-0.35575-0.23099-0.4222c-2e-3 -0.0333 5e-3 -0.06321 0.0372-0.10697 0.0318-0.04376 0.0876-0.09489 0.15503-0.14883 0.13494-0.10786 0.31675-0.22153 0.45424-0.38241 7e-3 -0.0083 0.014-0.01602 0.0212-0.02429zm-0.42736 2.0448c-0.02 0.10739 7e-3 0.20847 0.0439 0.29662 0.0397 0.09464 0.0933 0.18234 0.14262 0.26768 0.0986 0.17068 0.1695 0.32244 0.1447 0.44493s-0.18039 0.31503-0.3576 0.52142c-0.0428 0.04988-0.0865 0.10165-0.1292 0.15451-0.01-0.20356-0.0795-0.40285-0.14417-0.58808-0.0897-0.25682-0.16423-0.49289-0.14263-0.61598 0.0216-0.1231 0.14305-0.23881 0.29714-0.36174 0.048-0.03831 0.0971-0.07797 0.14521-0.11937zm-0.45113 2.4035c8e-3 0.23233 0.10731 0.45096 0.19998 0.66818 0.11237 0.26339 0.21927 0.52733 0.21291 0.79323-0.0112 0.46908-0.39651 1.0728-0.84491 1.695-0.21092-0.81956-0.42393-1.8284-0.25735-2.2851 0.0911-0.24988 0.28657-0.45672 0.48731-0.66094 0.0681-0.0693 0.13745-0.13825 0.20206-0.21033z" color="#000000" stroke-width=".84259" style="-inkscape-stroke:none"/> <path transform="matrix(.55519 .46638 .35577 -.42352 29.053 80.511)" d="m143.33 94.878c-0.23226 0.40491-0.46451 0.80982-0.46891 1.138-4e-3 0.32815 0.21906 0.57955 0.14335 0.81294-0.0757 0.23339-0.45058 0.44878-0.47068 0.73819s0.31455 0.65286 0.23751 1.0335c-0.077 0.38068-0.56581 0.77859-0.6383 1.1903-0.0725 0.41176 0.27127 0.83736 0.31635 1.4894 0.0451 0.65208-0.2085 1.5306-0.46209 2.4092" fill="none" stroke="#000" stroke-width=".39915"/> <path transform="matrix(-.66008 -.30008 -.22891 .50353 262.79 87.055)" d="m143.33 94.878c-0.23226 0.40491-0.46451 0.80982-0.46891 1.138-4e-3 0.32815 0.21906 0.57955 0.14335 0.81294-0.0757 0.23339-0.45058 0.44878-0.47068 0.73819s0.31455 0.65286 0.23751 1.0335c-0.077 0.38068-0.56581 0.77859-0.6383 1.1903-0.0725 0.41176 0.27127 0.83736 0.32065 1.4198 0.0494 0.58239-0.1956 1.3216-0.44059 2.0608" fill="none" stroke="#000" stroke-width=".39915"/> <path transform="matrix(.91091 .4126 .4126 -.91091 -27.544 126.92)" d="m143.33 94.878c-0.23226 0.40491-0.46451 0.80982-0.46891 1.138-4e-3 0.32815 0.21906 0.57955 0.14335 0.81294-0.0757 0.23339-0.45058 0.44878-0.47068 0.73819s0.31455 0.65286 0.23751 1.0335c-0.077 0.38068-0.56581 0.77859-0.6383 1.1903-0.0725 0.41176 0.27127 0.83736 0.25362 1.1074-0.0177 0.26998-0.39671 0.38435-0.58327 0.62557-0.18657 0.24123-0.18063 0.60931-0.1747 0.9774" fill="none" stroke="#000" stroke-width=".25278"/> <path transform="matrix(-.66008 -.30008 -.22891 .50353 262.35 84.927)" d="m142.75 97.276c0.14425 0.43575 0.2885 0.87149 0.11625 1.2883-0.17225 0.41683-0.66101 0.81474-0.7335 1.2265-0.0725 0.41176 0.27127 0.83736 0.32065 1.4198 0.0494 0.58239-0.1956 1.3216-0.44059 2.0608" fill="none" stroke="#000" stroke-width=".39915"/> <path transform="matrix(-.66008 -.30008 -.22891 .50353 262.21 91.872)" d="m142.75 97.276c0.14425 0.43575 0.2885 0.87149 0.11625 1.2883-0.17225 0.41683-0.66101 0.81474-0.7335 1.2265-0.0725 0.41176 0.27127 0.83736 0.32065 1.4198 0.0494 0.58239-0.1956 1.3216-0.44059 2.0608" fill="none" stroke="#000" stroke-width=".39915"/> <path transform="rotate(1.479 407.53 181)" d="m143.33 94.878c-0.23226 0.40491-0.46451 0.80982-0.46891 1.138-4e-3 0.32815 0.21906 0.57955 0.14335 0.81294-0.0757 0.23339-0.45058 0.44878-0.47068 0.73819s0.31455 0.65286 0.23751 1.0335c-0.077 0.38068-0.56581 0.77859-0.6383 1.1903-0.0725 0.41176 0.27127 0.83736 0.25362 1.1074-0.0177 0.26998-0.39671 0.38435-0.58327 0.62557-0.18657 0.24123-0.18063 0.60931-0.1747 0.9774" fill="none" stroke="#000" stroke-width=".25278"/> <path transform="matrix(-.66008 -.30008 -.22891 .50353 258.38 100.01)" d="m142.75 97.276c0.14425 0.43575 0.2885 0.87149 0.11625 1.2883-0.17225 0.41683-0.66101 0.81474-0.7335 1.2265-0.0725 0.41176 0.27127 0.83736 0.32065 1.4198 0.0494 0.58239-0.1956 1.3216-0.44059 2.0608" fill="none" stroke="#000" stroke-width=".39915"/> </g> <g transform="matrix(-.99719 -.074855 .10544 -1.4046 265.15 341.17)" stroke-linecap="round" stroke-linejoin="round"> <path transform="translate(-.27828 3.1666)" d="m143.33 94.878c-0.23226 0.40491-0.46451 0.80982-0.46891 1.138-4e-3 0.32815 0.21906 0.57955 0.14335 0.81294-0.0757 0.23339-0.45058 0.44878-0.47068 0.73819s0.31455 0.65286 0.23751 1.0335c-0.077 0.38068-0.56581 0.77859-0.6383 1.1903-0.0725 0.41176 0.27127 0.83736 0.25362 1.1074-0.0177 0.26998-0.39671 0.38435-0.58327 0.62557-0.18657 0.24123-0.18063 0.60931-0.1747 0.9774" fill="none" stroke="#000" stroke-width=".25278"/> <path d="m144.98 95.357c-0.13871 0.33475-0.27743 0.6695-0.16099 1.0054 0.11643 0.33595 0.39446 0.63801 0.27198 0.90648s-0.64547 0.50334-0.71625 0.78496c-0.0708 0.28162 0.40421 0.64506 0.32716 1.0257-0.077 0.38068-0.70612 0.77859-0.77472 1.2371-0.0686 0.45853 0.42328 0.97768 0.40861 1.5916-0.0147 0.61388-0.53591 1.3225-1.0571 2.0311" color="#000000" fill="#b2dfea" stroke-width=".84259" style="-inkscape-stroke:none"/> <path d="m144.95 95.429c7e-3 0.36229 0.013 0.72458-0.21835 0.99457-0.23136 0.26999-0.60069 0.44926-0.58502 0.74394 0.0157 0.29467 0.41634 0.70473 0.37908 0.99271-0.0372 0.28798-0.61234 0.45226-0.68003 0.83471-0.0677 0.38244 0.37199 0.98307 0.26792 1.4349-0.10406 0.45181-0.75187 0.75479-0.963 1.3314-0.21111 0.57663 0.0144 1.4269 0.23999 2.2771" color="#000000" fill="#b2dfea" stroke-width=".84259" style="-inkscape-stroke:none"/> <path d="m145.11 94.903c-0.0836 9.05e-4 -0.15031 0.06983-0.14831 0.15348-0.14504 0.38567-0.3075 0.53928-0.49455 0.75809-0.0935 0.10941-0.26063 0.22061-0.41392 0.34313-0.0767 0.06124-0.15049 0.12673-0.20929 0.20774-0.0589 0.08097-0.1016 0.18409-0.0956 0.29817 0.0124 0.2282 0.16391 0.40354 0.28525 0.57723 0.12135 0.1737 0.20185 0.33945 0.19585 0.38964-3e-3 0.02511-0.0225 0.06188-0.0713 0.11214s-0.12184 0.10744-0.20154 0.17105c-0.15941 0.12721-0.36109 0.28576-0.40669 0.54519-0.0456 0.25945 0.0671 0.51403 0.15503 0.76584 0.088 0.25183 0.15499 0.49368 0.11679 0.66042-0.0382 0.16676-0.19803 0.34336-0.39946 0.54829-0.20143 0.20491-0.4365 0.43894-0.55604 0.76584-0.23848 0.65403 0.0834 1.8455 0.31006 2.6954 4e-3 0.0148 0.0107 0.0285 0.0186 0.0408 2e-3 0.043 0.0227 0.0849 0.06 0.11265 0.0664 0.0487 0.1595 0.0345 0.20877-0.0315 0.52123-0.70861 1.0711-1.4212 1.0878-2.1172 8e-3 -0.34798-0.12547-0.65142-0.23823-0.91571-0.11275-0.2643-0.19739-0.4871-0.17208-0.65629 0.0253-0.16918 0.17609-0.3702 0.34985-0.57258 0.17375-0.20237 0.37151-0.39758 0.42374-0.65577 0.0522-0.25818-0.0778-0.47968-0.17983-0.65629-0.051-0.08831-0.0974-0.16793-0.12454-0.23254-0.0271-0.06461-0.032-0.1062-0.0258-0.13074 0.0123-0.04909 0.14816-0.17403 0.32453-0.29146 0.17636-0.11743 0.38159-0.22565 0.47645-0.43357 0.0474-0.10396 0.0449-0.21524 0.0196-0.31212-0.0252-0.09689-0.0703-0.18475-0.11937-0.26975-0.098-0.17001-0.21228-0.33478-0.25942-0.47077-0.18939-0.54629 0.24268-0.88774 0.23565-1.2516-3e-4 -0.03971-0.0161-0.07751-0.0444-0.10542-0.0287-0.02775-0.0676-0.04268-0.10749-0.04186zm-0.39378 1.0811c-0.0241 0.13443-0.0225 0.27294 0.0269 0.41548 0.0693 0.19996 0.19691 0.37175 0.28318 0.52142 0.0431 0.07483 0.0763 0.143 0.0899 0.19534 0.0136 0.05233 0.01 0.0829-4e-3 0.11317-0.0276 0.06055-0.18876 0.18904-0.36897 0.30902-0.0724 0.04819-0.14928 0.096-0.21963 0.15038 1e-3 -0.0072 3e-3 -0.01429 4e-3 -0.0217 0.0305-0.23782-0.12354-0.42093-0.24753-0.59841s-0.22699-0.35575-0.23099-0.4222c-2e-3 -0.0333 5e-3 -0.06321 0.0372-0.10697 0.0318-0.04376 0.0876-0.09489 0.15503-0.14883 0.13494-0.10786 0.31675-0.22153 0.45424-0.38241 7e-3 -0.0083 0.014-0.01602 0.0212-0.02429zm-0.42736 2.0448c-0.02 0.10739 7e-3 0.20847 0.0439 0.29662 0.0397 0.09464 0.0933 0.18234 0.14262 0.26768 0.0986 0.17068 0.1695 0.32244 0.1447 0.44493s-0.18039 0.31503-0.3576 0.52142c-0.0428 0.04988-0.0865 0.10165-0.1292 0.15451-0.01-0.20356-0.0795-0.40285-0.14417-0.58808-0.0897-0.25682-0.16423-0.49289-0.14263-0.61598 0.0216-0.1231 0.14305-0.23881 0.29714-0.36174 0.048-0.03831 0.0971-0.07797 0.14521-0.11937zm-0.45113 2.4035c8e-3 0.23233 0.10731 0.45096 0.19998 0.66818 0.11237 0.26339 0.21927 0.52733 0.21291 0.79323-0.0112 0.46908-0.39651 1.0728-0.84491 1.695-0.21092-0.81956-0.42393-1.8284-0.25735-2.2851 0.0911-0.24988 0.28657-0.45672 0.48731-0.66094 0.0681-0.0693 0.13745-0.13825 0.20206-0.21033z" color="#000000" stroke-width=".84259" style="-inkscape-stroke:none"/> <path transform="matrix(.55519 .46638 .35577 -.42352 29.053 80.511)" d="m143.33 94.878c-0.23226 0.40491-0.46451 0.80982-0.46891 1.138-4e-3 0.32815 0.21906 0.57955 0.14335 0.81294-0.0757 0.23339-0.45058 0.44878-0.47068 0.73819s0.31455 0.65286 0.23751 1.0335c-0.077 0.38068-0.56581 0.77859-0.6383 1.1903-0.0725 0.41176 0.27127 0.83736 0.31635 1.4894 0.0451 0.65208-0.2085 1.5306-0.46209 2.4092" fill="none" stroke="#000" stroke-width=".39915"/> <path transform="matrix(-.66008 -.30008 -.22891 .50353 262.79 87.055)" d="m143.33 94.878c-0.23226 0.40491-0.46451 0.80982-0.46891 1.138-4e-3 0.32815 0.21906 0.57955 0.14335 0.81294-0.0757 0.23339-0.45058 0.44878-0.47068 0.73819s0.31455 0.65286 0.23751 1.0335c-0.077 0.38068-0.56581 0.77859-0.6383 1.1903-0.0725 0.41176 0.27127 0.83736 0.32065 1.4198 0.0494 0.58239-0.1956 1.3216-0.44059 2.0608" fill="none" stroke="#000" stroke-width=".39915"/> <path transform="matrix(.91091 .4126 .4126 -.91091 -27.544 126.92)" d="m143.33 94.878c-0.23226 0.40491-0.46451 0.80982-0.46891 1.138-4e-3 0.32815 0.21906 0.57955 0.14335 0.81294-0.0757 0.23339-0.45058 0.44878-0.47068 0.73819s0.31455 0.65286 0.23751 1.0335c-0.077 0.38068-0.56581 0.77859-0.6383 1.1903-0.0725 0.41176 0.27127 0.83736 0.25362 1.1074-0.0177 0.26998-0.39671 0.38435-0.58327 0.62557-0.18657 0.24123-0.18063 0.60931-0.1747 0.9774" fill="none" stroke="#000" stroke-width=".25278"/> <path transform="matrix(-.66008 -.30008 -.22891 .50353 262.35 84.927)" d="m142.75 97.276c0.14425 0.43575 0.2885 0.87149 0.11625 1.2883-0.17225 0.41683-0.66101 0.81474-0.7335 1.2265-0.0725 0.41176 0.27127 0.83736 0.32065 1.4198 0.0494 0.58239-0.1956 1.3216-0.44059 2.0608" fill="none" stroke="#000" stroke-width=".39915"/> <path transform="matrix(-.66008 -.30008 -.22891 .50353 262.21 91.872)" d="m142.75 97.276c0.14425 0.43575 0.2885 0.87149 0.11625 1.2883-0.17225 0.41683-0.66101 0.81474-0.7335 1.2265-0.0725 0.41176 0.27127 0.83736 0.32065 1.4198 0.0494 0.58239-0.1956 1.3216-0.44059 2.0608" fill="none" stroke="#000" stroke-width=".39915"/> <path transform="rotate(1.479 407.53 181)" d="m143.33 94.878c-0.23226 0.40491-0.46451 0.80982-0.46891 1.138-4e-3 0.32815 0.21906 0.57955 0.14335 0.81294-0.0757 0.23339-0.45058 0.44878-0.47068 0.73819s0.31455 0.65286 0.23751 1.0335c-0.077 0.38068-0.56581 0.77859-0.6383 1.1903-0.0725 0.41176 0.27127 0.83736 0.25362 1.1074-0.0177 0.26998-0.39671 0.38435-0.58327 0.62557-0.18657 0.24123-0.18063 0.60931-0.1747 0.9774" fill="none" stroke="#000" stroke-width=".25278"/> <path transform="matrix(-.66008 -.30008 -.22891 .50353 258.38 100.01)" d="m142.75 97.276c0.14425 0.43575 0.2885 0.87149 0.11625 1.2883-0.17225 0.41683-0.66101 0.81474-0.7335 1.2265-0.0725 0.41176 0.27127 0.83736 0.32065 1.4198 0.0494 0.58239-0.1956 1.3216-0.44059 2.0608" fill="none" stroke="#000" stroke-width=".39915"/> </g> <g transform="matrix(-1.6772 -.23739 .078046 1.1597 297.59 114.24)" stroke-linecap="round" stroke-linejoin="round"> <path transform="translate(-.27828 3.1666)" d="m143.33 94.878c-0.23226 0.40491-0.46451 0.80982-0.46891 1.138-4e-3 0.32815 0.21906 0.57955 0.14335 0.81294-0.0757 0.23339-0.45058 0.44878-0.47068 0.73819s0.31455 0.65286 0.23751 1.0335c-0.077 0.38068-0.56581 0.77859-0.6383 1.1903-0.0725 0.41176 0.27127 0.83736 0.25362 1.1074-0.0177 0.26998-0.39671 0.38435-0.58327 0.62557-0.18657 0.24123-0.18063 0.60931-0.1747 0.9774" fill="none" stroke="#000" stroke-width=".25278"/> <path d="m144.98 95.357c-0.13871 0.33475-0.27743 0.6695-0.16099 1.0054 0.11643 0.33595 0.39446 0.63801 0.27198 0.90648s-0.64547 0.50334-0.71625 0.78496c-0.0708 0.28162 0.40421 0.64506 0.32716 1.0257-0.077 0.38068-0.70612 0.77859-0.77472 1.2371-0.0686 0.45853 0.42328 0.97768 0.40861 1.5916-0.0147 0.61388-0.53591 1.3225-1.0571 2.0311" color="#000000" fill="#b2dfea" stroke-width=".84259" style="-inkscape-stroke:none"/> <path d="m144.95 95.429c7e-3 0.36229 0.013 0.72458-0.21835 0.99457-0.23136 0.26999-0.60069 0.44926-0.58502 0.74394 0.0157 0.29467 0.41634 0.70473 0.37908 0.99271-0.0372 0.28798-0.61234 0.45226-0.68003 0.83471-0.0677 0.38244 0.37199 0.98307 0.26792 1.4349-0.10406 0.45181-0.75187 0.75479-0.963 1.3314-0.21111 0.57663 0.0144 1.4269 0.23999 2.2771" color="#000000" fill="#b2dfea" stroke-width=".84259" style="-inkscape-stroke:none"/> <path d="m145.11 94.903c-0.0836 9.05e-4 -0.15031 0.06983-0.14831 0.15348-0.14504 0.38567-0.3075 0.53928-0.49455 0.75809-0.0935 0.10941-0.26063 0.22061-0.41392 0.34313-0.0767 0.06124-0.15049 0.12673-0.20929 0.20774-0.0589 0.08097-0.1016 0.18409-0.0956 0.29817 0.0124 0.2282 0.16391 0.40354 0.28525 0.57723 0.12135 0.1737 0.20185 0.33945 0.19585 0.38964-3e-3 0.02511-0.0225 0.06188-0.0713 0.11214s-0.12184 0.10744-0.20154 0.17105c-0.15941 0.12721-0.36109 0.28576-0.40669 0.54519-0.0456 0.25945 0.0671 0.51403 0.15503 0.76584 0.088 0.25183 0.15499 0.49368 0.11679 0.66042-0.0382 0.16676-0.19803 0.34336-0.39946 0.54829-0.20143 0.20491-0.4365 0.43894-0.55604 0.76584-0.23848 0.65403 0.0834 1.8455 0.31006 2.6954 4e-3 0.0148 0.0107 0.0285 0.0186 0.0408 2e-3 0.043 0.0227 0.0849 0.06 0.11265 0.0664 0.0487 0.1595 0.0345 0.20877-0.0315 0.52123-0.70861 1.0711-1.4212 1.0878-2.1172 8e-3 -0.34798-0.12547-0.65142-0.23823-0.91571-0.11275-0.2643-0.19739-0.4871-0.17208-0.65629 0.0253-0.16918 0.17609-0.3702 0.34985-0.57258 0.17375-0.20237 0.37151-0.39758 0.42374-0.65577 0.0522-0.25818-0.0778-0.47968-0.17983-0.65629-0.051-0.08831-0.0974-0.16793-0.12454-0.23254-0.0271-0.06461-0.032-0.1062-0.0258-0.13074 0.0123-0.04909 0.14816-0.17403 0.32453-0.29146 0.17636-0.11743 0.38159-0.22565 0.47645-0.43357 0.0474-0.10396 0.0449-0.21524 0.0196-0.31212-0.0252-0.09689-0.0703-0.18475-0.11937-0.26975-0.098-0.17001-0.21228-0.33478-0.25942-0.47077-0.18939-0.54629 0.24268-0.88774 0.23565-1.2516-3e-4 -0.03971-0.0161-0.07751-0.0444-0.10542-0.0287-0.02775-0.0676-0.04268-0.10749-0.04186zm-0.39378 1.0811c-0.0241 0.13443-0.0225 0.27294 0.0269 0.41548 0.0693 0.19996 0.19691 0.37175 0.28318 0.52142 0.0431 0.07483 0.0763 0.143 0.0899 0.19534 0.0136 0.05233 0.01 0.0829-4e-3 0.11317-0.0276 0.06055-0.18876 0.18904-0.36897 0.30902-0.0724 0.04819-0.14928 0.096-0.21963 0.15038 1e-3 -0.0072 3e-3 -0.01429 4e-3 -0.0217 0.0305-0.23782-0.12354-0.42093-0.24753-0.59841s-0.22699-0.35575-0.23099-0.4222c-2e-3 -0.0333 5e-3 -0.06321 0.0372-0.10697 0.0318-0.04376 0.0876-0.09489 0.15503-0.14883 0.13494-0.10786 0.31675-0.22153 0.45424-0.38241 7e-3 -0.0083 0.014-0.01602 0.0212-0.02429zm-0.42736 2.0448c-0.02 0.10739 7e-3 0.20847 0.0439 0.29662 0.0397 0.09464 0.0933 0.18234 0.14262 0.26768 0.0986 0.17068 0.1695 0.32244 0.1447 0.44493s-0.18039 0.31503-0.3576 0.52142c-0.0428 0.04988-0.0865 0.10165-0.1292 0.15451-0.01-0.20356-0.0795-0.40285-0.14417-0.58808-0.0897-0.25682-0.16423-0.49289-0.14263-0.61598 0.0216-0.1231 0.14305-0.23881 0.29714-0.36174 0.048-0.03831 0.0971-0.07797 0.14521-0.11937zm-0.45113 2.4035c8e-3 0.23233 0.10731 0.45096 0.19998 0.66818 0.11237 0.26339 0.21927 0.52733 0.21291 0.79323-0.0112 0.46908-0.39651 1.0728-0.84491 1.695-0.21092-0.81956-0.42393-1.8284-0.25735-2.2851 0.0911-0.24988 0.28657-0.45672 0.48731-0.66094 0.0681-0.0693 0.13745-0.13825 0.20206-0.21033z" color="#000000" stroke-width=".84259" style="-inkscape-stroke:none"/> <path transform="matrix(.55519 .46638 .35577 -.42352 29.053 80.511)" d="m143.33 94.878c-0.23226 0.40491-0.46451 0.80982-0.46891 1.138-4e-3 0.32815 0.21906 0.57955 0.14335 0.81294-0.0757 0.23339-0.45058 0.44878-0.47068 0.73819s0.31455 0.65286 0.23751 1.0335c-0.077 0.38068-0.56581 0.77859-0.6383 1.1903-0.0725 0.41176 0.27127 0.83736 0.31635 1.4894 0.0451 0.65208-0.2085 1.5306-0.46209 2.4092" fill="none" stroke="#000" stroke-width=".39915"/> <path transform="matrix(-.66008 -.30008 -.22891 .50353 262.79 87.055)" d="m143.33 94.878c-0.23226 0.40491-0.46451 0.80982-0.46891 1.138-4e-3 0.32815 0.21906 0.57955 0.14335 0.81294-0.0757 0.23339-0.45058 0.44878-0.47068 0.73819s0.31455 0.65286 0.23751 1.0335c-0.077 0.38068-0.56581 0.77859-0.6383 1.1903-0.0725 0.41176 0.27127 0.83736 0.32065 1.4198 0.0494 0.58239-0.1956 1.3216-0.44059 2.0608" fill="none" stroke="#000" stroke-width=".39915"/> <path transform="matrix(.91091 .4126 .4126 -.91091 -27.544 126.92)" d="m143.33 94.878c-0.23226 0.40491-0.46451 0.80982-0.46891 1.138-4e-3 0.32815 0.21906 0.57955 0.14335 0.81294-0.0757 0.23339-0.45058 0.44878-0.47068 0.73819s0.31455 0.65286 0.23751 1.0335c-0.077 0.38068-0.56581 0.77859-0.6383 1.1903-0.0725 0.41176 0.27127 0.83736 0.25362 1.1074-0.0177 0.26998-0.39671 0.38435-0.58327 0.62557-0.18657 0.24123-0.18063 0.60931-0.1747 0.9774" fill="none" stroke="#000" stroke-width=".25278"/> <path transform="matrix(-.66008 -.30008 -.22891 .50353 262.35 84.927)" d="m142.75 97.276c0.14425 0.43575 0.2885 0.87149 0.11625 1.2883-0.17225 0.41683-0.66101 0.81474-0.7335 1.2265-0.0725 0.41176 0.27127 0.83736 0.32065 1.4198 0.0494 0.58239-0.1956 1.3216-0.44059 2.0608" fill="none" stroke="#000" stroke-width=".39915"/> <path transform="matrix(-.66008 -.30008 -.22891 .50353 262.21 91.872)" d="m142.75 97.276c0.14425 0.43575 0.2885 0.87149 0.11625 1.2883-0.17225 0.41683-0.66101 0.81474-0.7335 1.2265-0.0725 0.41176 0.27127 0.83736 0.32065 1.4198 0.0494 0.58239-0.1956 1.3216-0.44059 2.0608" fill="none" stroke="#000" stroke-width=".39915"/> <path transform="rotate(1.479 407.53 181)" d="m143.33 94.878c-0.23226 0.40491-0.46451 0.80982-0.46891 1.138-4e-3 0.32815 0.21906 0.57955 0.14335 0.81294-0.0757 0.23339-0.45058 0.44878-0.47068 0.73819s0.31455 0.65286 0.23751 1.0335c-0.077 0.38068-0.56581 0.77859-0.6383 1.1903-0.0725 0.41176 0.27127 0.83736 0.25362 1.1074-0.0177 0.26998-0.39671 0.38435-0.58327 0.62557-0.18657 0.24123-0.18063 0.60931-0.1747 0.9774" fill="none" stroke="#000" stroke-width=".25278"/> <path transform="matrix(-.66008 -.30008 -.22891 .50353 258.38 100.01)" d="m142.75 97.276c0.14425 0.43575 0.2885 0.87149 0.11625 1.2883-0.17225 0.41683-0.66101 0.81474-0.7335 1.2265-0.0725 0.41176 0.27127 0.83736 0.32065 1.4198 0.0494 0.58239-0.1956 1.3216-0.44059 2.0608" fill="none" stroke="#000" stroke-width=".39915"/> </g> <g transform="translate(31.512 114.88)"> <path d="m125.67 95.613c13.732 5.4713 21.459 22.24 12.312 27.033-5.3319 2.7942-5.0361 1.626-5.0361 1.626-2.1314-0.23778-6.3858-1.0018-5.9359-8.7259-8.8295-3.2726-9.4671-8.1227-11.826-10.795-5.9707-6.7627-3.9099-6.1653-4.2164-7.5066-0.79498-3.478 11.825-3.7387 14.703-1.6316z" stroke-linecap="round" stroke-linejoin="round" stroke-width="1.4648"/> <g transform="matrix(.29149 .89198 -.89198 .29149 211.9 -82.865)" stroke-width="1.5609"> <path d="m119.87 157.74c-0.0331 0.0584-0.0543 0.10845-0.0632 0.14723-0.0407 0.17592-0.0162 0.29506 0.042 0.38212-0.0583 0.2904-0.0708 0.64262 0.10161 0.91375 0.0377-0.3779 0.0424-0.62514 0.2771-0.70837 0.0726 0.0152 0.14685 0.0275 0.21671 0.0384 0.15537 0.0242-0.13773 0.38457-0.21626 0.53661-0.11961 0.2316-0.12369 0.45628-0.047 0.63063-0.0368 0.30062-6.2e-4 0.67607 0.28999 0.97864-9e-3 -0.31665-0.033-0.54542 0.12556-0.6562 6e-3 1e-3 0.0111 4e-3 0.0173 5e-3 0.2873 0.0448 0.43786-0.0368 0.53025-0.0486-0.0806 0.27434-0.15729 0.57653-0.0317 0.82316-0.0507 0.31045-0.0329 0.72115 0.28026 1.0472-0.01-0.35987-0.0397-0.60604 0.20146-0.69469 0.39818 0.10413 0.91702 0.10332 1.162-0.16442 0.48892-0.53427 1.1817-0.25788 3.1093 0.26223-0.0891 0.3101-0.16184 0.85331 0.23165 1.263-0.0114-0.42172-0.0508-0.68771 0.3512-0.72653 0.0172 2e-3 0.0327 0.01 0.0505 0.0105 0.29189 0.01 0.94823-0.0145 1.2353-0.26178 6.7469-0.60563 11.982 0.63858 19.582-0.40176 8.6159-2.7096 4.761-5.7852 0.38448-7.0229-5.8203 1.1722-14.633 4.8137-19.539 3.2219-4.6235-3.2713-7.7946-0.45155-8.2914 0.42489z" stroke-linecap="square" stroke-linejoin="round" stroke-width=".78046"/> </g> <path d="m131.2 122.68c1.2359-7.8128-3.2473-4.2041-6.6574-2.9589-2.2429-0.18423-0.0785-0.33379-4.9456 0.23628-4.3824 0.98817-1.4274 3.698 0.3236 3.2494 7.5703-1.9394 7.8514 1.1541 11.279-0.52693z"/> <path d="m134.07 125.59s3.8932-18.475-7.4976-18.84c-6.9062-0.22131-11.202 11.398 0.84015 15.881-2.2429-0.18422-0.73999-0.0692-5.6071 0.50088-4.3824 0.98816-1.4274 3.6979 0.3236 3.2494 7.5703-1.9394 8.5128 0.88953 11.941-0.79152z"/> <path transform="matrix(.91665 .64133 -.64121 .91562 117.09 -1.5485)" d="m89.646 65.114c0.6126-0.5823 1.4669-0.90205 2.3113-0.86507s1.6675 0.43019 2.2268 1.0638c0.45604 0.5166 0.73468 1.1818 0.81008 1.8668 0.0754 0.68495-0.04907 1.3872-0.33031 2.0163-0.56248 1.2582-1.7317 2.1838-3.0306 2.6446-1.4327 0.50824-2.9882 0.49359-4.4998 0.65452-0.75581 0.08047-1.5115 0.20733-2.227 0.46365-0.71556 0.25632-1.3927 0.64773-1.9119 1.2028-0.62309 0.66613-0.98864 1.5301-1.2796 2.3946-0.29092 0.86449-0.52211 1.7549-0.93212 2.5696-0.961 1.9097-2.932 3.2734-5.0579 3.4993" fill="none" stroke="#000" stroke-linecap="round" stroke-linejoin="round" stroke-width="3.1298"/> <g transform="matrix(.54928 .76084 -.76084 .54928 154.66 -102.83)" stroke-width="1.5609"> <path d="m119.87 157.74c-0.0331 0.0584-0.0543 0.10845-0.0632 0.14723-0.0407 0.17592-0.0162 0.29506 0.042 0.38212-0.0583 0.2904-0.0708 0.64262 0.10161 0.91375 0.0377-0.3779 0.0424-0.62514 0.2771-0.70837 0.0726 0.0152 0.14685 0.0275 0.21671 0.0384 0.15537 0.0242-0.13773 0.38457-0.21626 0.53661-0.11961 0.2316-0.12369 0.45628-0.047 0.63063-0.0368 0.30062-6.2e-4 0.67607 0.28999 0.97864-9e-3 -0.31665-0.033-0.54542 0.12556-0.6562 6e-3 1e-3 0.0111 4e-3 0.0173 5e-3 0.2873 0.0448 0.43786-0.0368 0.53025-0.0486-0.0806 0.27434-0.15729 0.57653-0.0317 0.82316-0.0507 0.31045-0.0329 0.72115 0.28026 1.0472-0.01-0.35987-0.0397-0.60604 0.20146-0.69469 0.39818 0.10413 0.91702 0.10332 1.162-0.16442 8.2086 0.1428 22.507 6.6337 29.515 1.6544 2.2092-1.3703-0.35808-3.9292-4.7345-5.1669-5.8203 1.1722-14.47 1.4489-19.376-0.14288-4.6235-3.2713-7.7946-0.45155-8.2914 0.42489z" stroke-linecap="square" stroke-linejoin="round" stroke-width=".78046"/> </g> <path d="m120.37 73.349 1.8565 6.5754c2.0649 0.53271 4.829 2.1122 7.3097 6.4025l6.5496-0.70975c-3.4264 2.2177-4.8742 4.2895-6.6741 7.6437-2.2227 4.403-7.1748 5.3656-11.733 2.2168-5.3409-3.6898-8.4037-6.8475-6.181-11.25 1.1963-2.3698 2.928-3.7216 5.0542-4.6026 2.6419-1.0947 3.0477-3.556 3.8178-6.2756z" stroke-linecap="square" stroke-linejoin="round" stroke-width=".64106"/> <g transform="matrix(.33193 .42061 -.42074 .33145 155.83 36.373)" fill-rule="evenodd" stroke="#000" stroke-linecap="round" stroke-linejoin="round" stroke-width="1.1967"> <path transform="rotate(-40.832 47.762 100.66)" d="m17.036 93.403-6.1681-2.3498"/> <path transform="translate(2.6435 21.515)" d="m17.036 93.403-6.1681-2.3498"/> <path transform="rotate(-19.266 82.607 96.345)" d="m17.036 93.403-6.1681-2.3498"/> </g> <path d="m116.34 87.585c0.72166-1.2265 0.24924-2.2116-0.94518-2.8183-0.17553 0.03692-0.36907 0.0424-0.40372 0.32653 0.63215 1.004-0.19762 1.1185-0.97396 1.4411-0.11267 0.23152-0.0584 0.40489 0.16428 0.5196 0.78032-0.25929 1.4258-0.68579 1.6171 0.58927 0.0965 0.1065 0.25809 0.11521 0.54176-0.05824z" fill="#fff" stroke-linecap="square" stroke-linejoin="round" stroke-width=".64106"/> <g transform="matrix(.56159 .13179 -.13179 .56159 -.37648 -14.542)"> <path d="m233.03 118.33a3.8564 4.4992 43.522 0 0 1.0237 1.9947 3.8564 4.4992 43.522 0 0 5.8947-0.60669 3.8564 4.4992 43.522 0 0 0.30179-5.918 3.8564 4.4992 43.522 0 0-2.6712-0.93379c0.74162 0.56477 1.2618 1.4185 1.3782 2.4174 0.22743 1.9513-1.1708 3.718-3.1228 3.946-1.0626 0.12409-2.0701-0.23349-2.8045-0.89968z" fill="#f9f9f9" fill-opacity=".99471" stroke-linecap="round" stroke-linejoin="round" stroke-width="6.7439"/> <path d="m233.03 118.33c0.73439 0.66619 1.7419 1.0238 2.8045 0.89968 1.952-0.22797 3.3502-1.9947 3.1228-3.946-0.11642-0.99895-0.63659-1.8526-1.3782-2.4174a3.8564 4.4992 43.522 0 0-3.2236 1.5405 3.8564 4.4992 43.522 0 0-1.3255 3.9233z" fill-opacity=".99471" stroke-linecap="round" stroke-linejoin="round" stroke-width="6.7439"/> <g transform="matrix(.082002 .59467 .59467 -.082002 204.45 241.04)" stroke-width="1.6657"> <circle transform="rotate(-22.884)" cx="-218.27" cy="-3.2641" r="1.0268" fill="#fff" stroke-linecap="square" stroke-linejoin="round" stroke-width="3.137"/> </g> </g> <g transform="matrix(.52796 .23238 -.23238 .52796 22.215 -30.023)"> <path d="m233.03 118.33a3.8564 4.4992 43.522 0 0 1.0237 1.9947 3.8564 4.4992 43.522 0 0 5.8947-0.60669 3.8564 4.4992 43.522 0 0 0.30179-5.918 3.8564 4.4992 43.522 0 0-2.6712-0.93379c0.74162 0.56477 1.2618 1.4185 1.3782 2.4174 0.22743 1.9513-1.1708 3.718-3.1228 3.946-1.0626 0.12409-2.0701-0.23349-2.8045-0.89968z" fill="#f9f9f9" fill-opacity=".99471" stroke-linecap="round" stroke-linejoin="round" stroke-width="6.7439"/> <path d="m233.03 118.33c0.73439 0.66619 1.7419 1.0238 2.8045 0.89968 1.952-0.22797 3.3502-1.9947 3.1228-3.946-0.11642-0.99895-0.63659-1.8526-1.3782-2.4174a3.8564 4.4992 43.522 0 0-3.2236 1.5405 3.8564 4.4992 43.522 0 0-1.3255 3.9233z" fill-opacity=".99471" stroke-linecap="round" stroke-linejoin="round" stroke-width="6.7439"/> <g transform="matrix(.082002 .59467 .59467 -.082002 204.45 241.04)" stroke-width="1.6657"> <circle transform="rotate(-22.884)" cx="-218.27" cy="-3.2641" r="1.0268" fill="#fff" stroke-linecap="square" stroke-linejoin="round" stroke-width="3.137"/> </g> </g> </g> <g transform="matrix(.98186 -.15973 .1806 .82747 -126.02 86.292)" stroke="#000" stroke-linecap="round" stroke-linejoin="round"> <path d="m179.78 123.61c3.9015 5.9182 5.9571 16.366-0.0234 23.271-2.9709-8.1203-1.1796-14.926 0.0234-23.271z" fill="url(#c)"/> <path d="m179.78 123.61c3.5047-2.2512 7.4208-0.18101 12.463 0.36249 3.4049 0.36698 9.4177-2.7466 10.612-0.36245 2.3456 4.6844 2.5976 21.168 0 23.201-4.0171 3.1441-23.75 2.052-23.075 0 3.839-11.678 0-21.968 0-23.201z" fill="#164550"/> </g> <g transform="translate(1.0583 65.617)"> <ellipse transform="rotate(10.786)" cx="102.38" cy="53.615" rx="3.0284" ry="2.3295"/> <path d="m77.493 63.668c1.8413 0.02843 3.3171 1.1263 3.2964 2.4519-1e-3 0.05188-0.0053 0.10064-0.01052 0.14784l0.56009 1.0259-0.97245-0.35374c-0.19508 0.11969-0.44982 0.18726-0.74947 0.22238l-0.5131 1.1141-0.32288-1.0813c-0.13469-8.42e-4 -0.2775-0.0052-0.41999-0.0095l-0.53607 1.1642-0.35484-1.1887c-0.05279-0.0017-0.10326-0.0026-0.15643-0.0043-0.09972-0.0017-0.19734-0.0017-0.29416-0.0026l-0.4696 1.0197-0.30475-1.0207c-0.1887-3.61e-4 -0.37367-0.0026-0.54267-0.0095l-0.49336 1.0716-0.35323-1.1831c-0.47044-0.1355-0.74375-0.41981-0.73442-1.0163 0.02075-1.3256 1.5302-2.3772 3.3715-2.3487z" stroke-linecap="square" stroke-linejoin="round" stroke-width=".2981"/> <path d="m98.795 66.274s1.6961-15.235-3.8683-16.323c-4.6013-0.89952-2.8918 9.0174-1.9109 11.27-2.9216-0.68814-6.2732 3.2734-3.7993 3.6087 6.2273 0.84386 9.5785 1.4446 9.5785 1.4446z"/> <path transform="matrix(.94661 .64489 -.95361 1.1483 59.016 -71.948)" d="m99.743 41.564c0.50925-0.26693 1.1121-0.35063 1.6749-0.23253 0.5627 0.1181 1.0811 0.43713 1.44 0.88628s0.55587 1.0251 0.54702 1.6c-9e-3 0.5749-0.22341 1.1445-0.59603 1.5824-0.2879 0.33831-0.66224 0.5949-1.0603 0.79209-0.39807 0.19719-0.82135 0.33785-1.2446 0.47262-0.84658 0.26954-1.7346 0.53808-2.3743 1.1547-0.41448 0.39959-0.69878 0.93213-0.80017 1.4989-0.10139 0.56673-0.01936 1.1648 0.23088 1.6833 0.25024 0.51851 0.66742 0.95483 1.1742 1.2281 0.50676 0.27323 1.1006 0.382 1.6713 0.30612" fill="none" stroke="#000" stroke-linecap="round" stroke-linejoin="round" stroke-width="2.3046"/> <path d="m101.34 71.937c-2.8831 0.7855-11.275-6.7746-10.997-8.5223 0.77381-4.8568 0.63052-8.7351 3.7738-11.84 0 0 9.7609-4.503 15.323 0.933 2.0201 1.9744 2.4682 16.55-8.1001 19.429z" stroke-linecap="round" stroke-linejoin="round" stroke-width="1.1283"/> <path d="m106.57 67.835s-1.6125-15.244 3.9577-16.302c4.6061-0.87428 2.8423 9.0332 1.849 11.28 2.9253-0.67212 6.2552 3.3078 3.7794 3.6294-6.2318 0.80973-9.5863 1.392-9.5863 1.392z"/> <g transform="matrix(.85901 0 0 .85901 5.9371 -38.168)" stroke-linejoin="round"> <path d="m91.195 98.54 6.6147 7.5364c3.0718-0.59936 7.7313-0.25409 13.729 3.861l8.2269-5.0794c-3.137 5.103-3.7453 8.7622-4.0097 14.343-0.1615 7.2368-6.1126 11.642-14.14 10.351-9.4063-1.5121-15.459-3.759-15.297-10.996 0.08693-3.8951 1.5263-6.78 3.7859-9.2907 2.8076-3.1197 1.7896-6.6363 1.0908-10.725z" stroke-linecap="square" stroke-width=".65675"/> <g transform="matrix(1.2107 .36262 -.23068 .71806 93.846 30.235)" fill-rule="evenodd" stroke="#000" stroke-linecap="round" stroke-width=".83532"> <path transform="rotate(-40.832 47.762 100.66)" d="m17.036 93.403-6.1681-2.3498"/> <path transform="translate(2.6435 21.515)" d="m17.036 93.403-6.1681-2.3498"/> <path transform="rotate(-19.266 82.607 96.345)" d="m17.036 93.403-6.1681-2.3498"/> </g> </g> <g transform="matrix(.83807 -.18851 .18851 .83807 -20.008 -8.9962)"> <path d="m105.38 135.89c-2.1427-0.0682-3.9192 1.1272-3.9679 2.6698-2e-3 0.0605 4.6e-4 0.11726 4e-3 0.17251l-0.70775 1.1621 1.1503-0.35788c0.21997 0.15032 0.51276 0.24248 0.85927 0.2998l0.5354 1.3238 0.4349-1.2396c0.15669 6e-3 0.32297 9e-3 0.4889 0.012l0.55934 1.3833 0.478-1.3628c0.0614 1e-3 0.12021 3e-3 0.18215 3e-3 0.11609 3e-3 0.22956 9e-3 0.34222 0.0129l0.48999 1.2116 0.41049-1.1701c0.21947 0.01 0.43467 0.0173 0.63156 0.0187l0.51478 1.2732 0.47579-1.3563c0.55448-0.1317 0.88795-0.44728 0.90988-1.1414 0.0487-1.5426-1.6487-2.8484-3.7914-2.9165z" stroke-linecap="square" stroke-linejoin="round" stroke-width=".34702"/> <path d="m103.76 136.6s1.044 2.9621 2.1072 2.4534c4.4725-2.1399 17.875-16.978 13.997-17.591 0 0-8.2874-0.8507-8.2715 1.7847 0.028 4.6117-7.833 13.352-7.833 13.352z"/> </g> <g transform="matrix(.48783 .09294 -.09294 .48783 106.85 22.47)" stroke-linejoin="round"> <path d="m-10.688 98.868c-1.9026-2.2159-4.1295-1.9526-6.1008-0.03581-0.04496 0.36536-0.16274 0.74488 0.36608 1.0008 2.3695-0.56098 2.0409 1.1264 2.1518 2.8484 0.37482 0.37253 0.74753 0.38222 1.1182 0.0259 0.01459-1.6876-0.3851-3.2242 2.2182-2.7492 0.2709-0.11669 0.39511-0.42475 0.24663-1.0908z" fill="#fff" stroke-linecap="square" stroke-width=".91843"/> <g transform="matrix(.41293 .42545 .42545 -.41293 17.34 250.97)" stroke-width="1.1627"> <ellipse transform="rotate(38.626)" cx="-98.412" cy="257.45" rx="9.525" ry="11.112" fill="#f9f9f9" fill-opacity=".99471" stroke-linecap="round" stroke-width="11.627"/> <g transform="matrix(1.4827 0 0 1.4827 54.715 17.855)" stroke-linecap="square"> <ellipse transform="matrix(.99978 -.021003 .02077 .99978 0 0)" cx="-195.89" cy="77.145" rx="4.3835" ry="4.3853" stroke-width=".6547"/> <circle transform="rotate(-22.884)" cx="-207.54" cy=".1437" r="1.0268" fill="#fff" stroke-width="2.1898"/> </g> </g> <g transform="matrix(.41293 .42545 .42545 -.41293 32.684 250.97)" stroke-width="1.1627"> <ellipse transform="rotate(38.626)" cx="-98.412" cy="257.45" rx="9.525" ry="11.112" fill="#f9f9f9" fill-opacity=".99471" stroke-linecap="round" stroke-width="11.627"/> <g transform="matrix(1.4827 0 0 1.4827 54.715 17.855)" stroke-linecap="square"> <ellipse transform="matrix(.99978 -.021003 .02077 .99978 0 0)" cx="-197.72" cy="75.078" rx="4.3835" ry="4.3853" stroke-width=".6547"/> <circle transform="rotate(-22.884)" cx="-210.57" cy="-6.2305" r="1.0268" fill="#fff" stroke-width="2.1898"/> </g> </g> </g> </g> </g> </g> </svg>