<?xml version='1.0' encoding='utf-8'?>
<svg xmlns:xlink="http://www.w3.org/1999/xlink" xmlns="http://www.w3.org/2000/svg" width="101.42mm" height="151.33mm" version="1.1" viewBox="0 0 101.42 151.33"> <defs> <linearGradient id="i"> <stop stop-color="#0085a6" offset="0"/> <stop stop-color="#00bbea" stop-opacity=".98431" offset="1"/> </linearGradient> <linearGradient id="b"> <stop stop-color="#fff" offset="0"/> <stop stop-color="#fff" stop-opacity="0" offset="1"/> </linearGradient> <linearGradient id="h" x1="100.11" x2="100.11" y1="133.65" y2="147.67" gradientTransform="matrix(.83284 0 0 -.17266 22.55 145.89)" gradientUnits="userSpaceOnUse"> <stop stop-color="#ececec" offset="0"/> <stop stop-color="#808080" offset="1"/> </linearGradient> <linearGradient id="g" x1="91.488" x2="91.488" y1="133.23" y2="122.75" gradientTransform="matrix(.83284 0 0 1 22.55 0)" gradientUnits="userSpaceOnUse"> <stop stop-color="#666" offset="0"/> <stop stop-color="#999" offset="1"/> </linearGradient> <linearGradient id="x" x1="100.11" x2="100.11" y1="133.65" y2="147.67" gradientTransform="matrix(.83306 0 0 .79137 568.01 -410.84)" gradientUnits="userSpaceOnUse"> <stop stop-color="#808080" offset="0"/> <stop stop-color="#ececec" offset="1"/> </linearGradient> <radialGradient id="t" cx="105.56" cy="162.27" r="36.161" gradientTransform="matrix(1.2315 -.012292 .0040086 .40161 520.31 -360.17)" gradientUnits="userSpaceOnUse"> <stop stop-color="#4d4d4d" offset=".32366"/> <stop stop-color="#ececec" stop-opacity="0" offset="1"/> </radialGradient> <radialGradient id="s" cx="104.92" cy="150.04" r="30.903" gradientTransform="matrix(1 0 0 .17195 545.47 -322.78)" gradientUnits="userSpaceOnUse"> <stop stop-color="#00546a" offset="0"/> <stop stop-color="#009cc3" offset=".4663"/> <stop stop-color="#00bbea" offset="1"/> </radialGradient> <linearGradient id="r" x1="137.86" x2="138.37" y1="245.94" y2="217.94" gradientUnits="userSpaceOnUse"> <stop stop-color="#007490" offset="0"/> <stop stop-color="#00aad4" stop-opacity=".98039" offset="1"/> </linearGradient> <linearGradient id="q" x1="79.892" x2="81.314" y1="213.09" y2="213.99" gradientUnits="userSpaceOnUse" xlink:href="#b"/> <linearGradient id="p" x1="83.168" x2="83.81" y1="210.17" y2="211.36" gradientUnits="userSpaceOnUse" xlink:href="#b"/> <linearGradient id="o" x1="175.79" x2="177.78" y1="212" y2="214.18" gradientUnits="userSpaceOnUse" xlink:href="#b"/> <linearGradient id="n" x1="181.94" x2="184.74" y1="209.46" y2="217.45" gradientUnits="userSpaceOnUse" xlink:href="#b"/> <linearGradient id="m" x1="187.06" x2="187.32" y1="226.79" y2="227.74" gradientUnits="userSpaceOnUse" xlink:href="#b"/> <linearGradient id="l" x1="124.24" x2="124.94" y1="232.22" y2="235.34" gradientUnits="userSpaceOnUse" xlink:href="#b"/> <linearGradient id="k" x1="190.28" x2="191.41" y1="234.84" y2="238.22" gradientUnits="userSpaceOnUse" xlink:href="#b"/> <linearGradient id="j" x1="85.142" x2="85.877" y1="238.13" y2="238.8" gradientUnits="userSpaceOnUse" xlink:href="#b"/> <linearGradient id="c" x1="114.33" x2="117.16" y1="148.88" y2="148.7" gradientUnits="userSpaceOnUse" xlink:href="#i"/> <linearGradient id="f" x1="101.92" x2="98.213" y1="154.6" y2="152.08" gradientTransform="translate(-52.282 -12.924)" gradientUnits="userSpaceOnUse" xlink:href="#i"/> <linearGradient id="a" x1="95.746" x2="89.723" y1="157.95" y2="151.62" gradientUnits="userSpaceOnUse" xlink:href="#i"/> <linearGradient id="e" x1="95.331" x2="99.874" y1="151.85" y2="151.75" gradientTransform="matrix(2.4052 0 0 1.3941 -143.11 -71.018)" gradientUnits="userSpaceOnUse"> <stop stop-color="#0085a6" offset="0"/> <stop stop-color="#009fc7" stop-opacity="0" offset="1"/> </linearGradient> <linearGradient id="d" x1="95.331" x2="99.874" y1="151.85" y2="151.75" gradientTransform="matrix(2.6389 0 0 1.588 -166.61 -100.48)" gradientUnits="userSpaceOnUse"> <stop stop-color="#05ceff" offset="0"/> <stop stop-color="#009fc7" stop-opacity="0" offset="1"/> </linearGradient> </defs> <g transform="translate(-686.09 188.36)"> <g transform="matrix(1.4024 0 0 1.4024 -176.7 375)"> <g transform="matrix(.67619 0 0 1 579.77 -478.77)" stroke-linecap="round" stroke-linejoin="round"> <path d="m76.95 122.85h57.946l-3.5429-2.4923h-50.86z" fill="url(#h)" stroke-width=".35795"/> <path d="m76.95 122.85h57.946v10.8h-57.946z" fill="url(#g)" stroke-width=".74513"/> </g> <g transform="matrix(.77039 0 0 1 569.8 -465.47)" stroke-linecap="round" stroke-linejoin="round"> <path d="m76.95 122.85h57.946l-3.5429-2.4923h-50.86z" fill="url(#h)" stroke-width=".35795"/> <path d="m76.95 122.85h57.946v10.8h-57.946z" fill="url(#g)" stroke-width=".74513"/> </g> <g transform="matrix(.87772 0 0 1 558.43 -452.18)" stroke-linecap="round" stroke-linejoin="round"> <path d="m76.95 122.85h57.946l-3.5429-2.4923h-50.86z" fill="url(#h)" stroke-width=".35795"/> <path d="m76.95 122.85h57.946v10.8h-57.946z" fill="url(#g)" stroke-width=".74513"/> </g> <path d="m622.42-305.24h57.962l7.1803 11.423h-72.322z" fill="url(#x)" stroke-linecap="round" stroke-linejoin="round" stroke-width=".76643"/> <path d="m622.42-305.24h57.962l7.1803 11.423h-72.322z" fill="url(#t)" stroke-linecap="round" stroke-linejoin="round" stroke-width=".76643"/> <path d="m676.24-296.26c-1.1649 0.1057-0.35086 0.16125-2.2964 0.45852-1.4386 0.21982-2.584 0.29183-4.3664-0.0922-6.214-1.339-4.0802 1.0004-6.053 1.1219-2.7869 0.17161-5.9917 1.4035-9.0178 0.3635-2.2337-0.7677-3.7157 0.0589-5.6412 0.0589-1.9871 0-4.4086 0.29663-6.294 0.25547-4.6423-0.10141-7.3902-1.4356-11.081-1.7472-3.2148-0.27151-6.9324-0.45306-9.0858-0.8443-3.1914-0.57981-2.4857-0.48552-2.0212-1.0639 0.84847-1.0565 0.31145-0.9472 6.3437-1.427 1.3815-0.10988 3.2005-1.071 4.8027-1.1946 4.9776-0.38408 10.934-1.403 17.335-1.403 2.0553 0 3.7996 1.0306 5.7456 1.0746 1.9056 0.0431 4.0767-1.2884 5.7826-0.81997 4.0079 1.1005 11.605-1.2637 13.361 0.75717 1.6092 1.8514 3.4964 1.3522 6.6689 1.3449 1.698-4e-3 3.305 3.0568 2.8096 3.2116-2.6255 0.82047-2.9035-0.42551-6.9932-0.0544z" fill="#00b7e6" stroke-linecap="round" stroke-linejoin="round" stroke-width="1.0213"/> <g transform="translate(545.47 -438.89)" stroke-linecap="round" stroke-linejoin="round"> <path d="m76.95 122.85h57.946l-3.5429-2.4923h-50.86z" fill="url(#h)" stroke-width=".35795"/> <path d="m76.95 122.85h57.946v10.8h-57.946z" fill="url(#g)" stroke-width=".74513"/> </g> <path d="m675.8-296.53c-1.1406 0.1035-0.34354 0.15789-2.2485 0.44896-1.4085 0.21523-2.5301 0.28574-4.2753-0.0903-6.0843-1.311-3.9951 0.97952-5.9267 1.0985-2.7287 0.16803-5.8667 1.3742-8.8296 0.35592-2.1871-0.75168-3.6382 0.0577-5.5235 0.0577-1.9456 0-4.3166 0.29044-6.1627 0.25014-4.5455-0.0993-7.236-1.4056-10.849-1.7108-3.1477-0.26584-6.7878-0.4436-8.8963-0.82668-3.1248-0.56771-2.4338-0.47539-1.979-1.0417 0.83077-1.0345 0.30495-0.92744 6.2114-1.3972 1.3527-0.10759 3.1337-1.0487 4.7025-1.1697 4.8738-0.37606 10.706-1.3737 16.974-1.3737 2.0124 0 3.7203 1.0091 5.6257 1.0522 1.8658 0.0422 3.9917-1.2615 5.662-0.80287 3.9243 1.0775 11.363-1.2373 13.082 0.74138 1.5756 1.8128 3.4235 1.3239 6.5297 1.3168 1.6626-4e-3 3.236 2.993 2.751 3.1446-2.5707 0.80335-2.8429-0.41663-6.8473-0.0533z" fill="url(#s)" stroke-linecap="round" stroke-linejoin="round"/> <g transform="matrix(-.21016 0 0 .36846 696.28 -290.73)"> <g transform="matrix(.44079 0 0 .44079 156.74 -126.7)" fill="#009cc3" stroke-width="2.2687"> <path d="m88.246 235.34c6.9145-2.8172-0.11126-16.085-3.6706-10.574-9.3132 0.41424-8.1797-14.601 0.46517-15.508 15.818-1.6582 8.0979 29.512 29.926 26.135 16.938-9.3767 15.913 1.3744 26.155 0.0706 6.001-0.7636 17.092-2.6513 22.046-10.553 17.653-28.157 30.125-11.854 28.658-5.8535-1.0072 8.0758-7.3508 12.648-7.2006 4.7787 0.0489-4.4936-3.708 9.1196 1.3565 9.2512 6.6608 0.17312 6.2159 4.3852 7.0788 6.3533l-108.69 0.0545c-0.06471-2.2326 1.751-3.29 3.8743-4.1551z" fill="#009cc3" stroke-width=".60025"/> </g> <g transform="matrix(.44079 0 0 .44079 156.68 -126.44)" stroke-width=".60025"> <path d="m88.246 235.34c6.9145-2.8172-0.11126-16.085-3.6706-10.574-9.3132 0.41424-8.1797-14.601 0.46517-15.508 15.818-1.6582 8.0979 29.512 29.926 26.135 16.938-9.3767 15.913 1.3744 26.155 0.0706 6.001-0.7636 17.092-2.6513 22.046-10.553 17.653-28.157 30.125-11.854 28.658-5.8535-1.0072 8.0758-7.3508 12.648-7.2006 4.7787 0.0489-4.4936-3.708 9.1196 1.3565 9.2512 6.6608 0.17312 6.2159 4.3852 7.0788 6.3533-26.749 7.6516-83.281 11.639-108.69 0.0545-0.06471-2.2326 1.751-3.29 3.8743-4.1551z" fill="url(#r)"/> <path d="m82.245 211.62c-0.19349-0.25551-0.59734-0.29028-0.91131-0.12389-1.3729 0.72757-3.1702 3.6404-2.1796 7.539 0.06868-5.9822 3.8337-5.5761 3.0909-7.4152z" fill="url(#q)"/> <path d="m82.581 211.18c-0.08382-0.50782 0.30442-1.0044 0.86799-1.1067 0.56251-0.10357 1.0875 0.22584 1.1713 0.73489 0.07083 0.27417-0.50023 0.40606-1.0378 0.67834-0.62742 0.21914-0.91874 0.20252-1.0014-0.30653z" fill="url(#p)"/> <path d="m176.13 211.79c0.65296-0.28447 1.3378-0.0524 1.5309 0.51907 0.19299 0.57143-0.17978 1.2652-0.83273 1.5509-0.65184 0.28447-1.3379 0.0524-1.5298-0.51903-0.19303-0.5702 0.17978-1.2652 0.83163-1.5509z" fill="url(#o)"/> <path d="m178.27 211.55c-0.13161-0.48144 0.2329-0.9662 0.71237-1.2424 2.4881-1.4335 8.275-1.6141 11.375 4.468-7.4489-5.5952-10.522-0.56264-12.087-3.2255z" fill="url(#n)"/> <path d="m185.82 227.28c0.0351 0.21403 0.26581 0.3624 0.50629 0.36199 1.0515-2e-3 1.6884-0.36188 2.8205-2.1569-1.5312 2.291-3.1905 0.45965-3.3268 1.7949z" fill="url(#m)"/> <path d="m129.5 234.38c0.56464-0.0709 1.1414-0.74057 0.5794-1.41-1.8464-2.1992-8.3875-0.88463-15.019 2.9123 8.9-2.7538 10.718-3.0024 14.44-1.5023z" fill="url(#l)"/> <path d="m191.85 237.99c-0.45733-2.3383-1.3402-3.8183-4.0344-3.9443 2.214 0.26978 3.1307 2.8068 3.358 3.9534z" fill="url(#k)"/> <path d="m84.921 239.12c0.0066-1.6982 1.6334-2.6974 2.7097-3.0679-2.3226 1.0669-1.9118 2.2555-2.0361 3.0624z" fill="url(#j)"/> </g> </g> <g transform="translate(545.47 -438.89)"> <ellipse transform="rotate(10.786)" cx="120.71" cy="107.36" rx="3.5255" ry="2.7119"/> <path d="m86.349 120.18c2.1435 0.0331 3.8616 1.3111 3.8374 2.8543-0.0012 0.0604-0.0062 0.11716-0.01225 0.17211l0.65202 1.1942-1.1321-0.4118c-0.2271 0.13933-0.52364 0.21799-0.87248 0.25888l-0.59731 1.297-0.37587-1.2588c-0.1568-9.8e-4 -0.32305-6e-3 -0.48892-0.0111l-0.62406 1.3553-0.41308-1.3838c-0.06145-2e-3 -0.12021-3e-3 -0.18211-5e-3 -0.11609-2e-3 -0.22972-2e-3 -0.34244-3e-3l-0.54667 1.1871-0.35477-1.1882c-0.21968-4.2e-4 -0.435-3e-3 -0.63173-0.0111l-0.57434 1.2475-0.4112-1.3773c-0.54766-0.15774-0.86582-0.48871-0.85496-1.1831 0.02416-1.5432 1.7814-2.7674 3.9249-2.7342z" stroke-linecap="square" stroke-linejoin="round" stroke-width=".34702"/> <path d="m108.1 121.58s1.9745-17.736-4.5032-19.002c-5.3565-1.0472-3.3665 10.497-2.2245 13.12-3.4011-0.80108-7.3029 3.8107-4.4228 4.201 7.2494 0.98236 11.151 1.6817 11.151 1.6817z"/> <path transform="matrix(.92669 .95876 -1.3583 1.0836 92.093 -46.875)" d="m92.881 41.297c0.75449-0.76961 1.9055-1.1276 2.9634-0.9217s1.9906 0.96952 2.4014 1.9659c0.35186 0.85358 0.32778 1.8143 0.20888 2.7299s-0.32711 1.8246-0.32486 2.7478c0.0044 1.8052 0.86566 3.5898 2.2762 4.7164" fill="none" stroke="#000" stroke-linecap="round" stroke-linejoin="round" stroke-width="2.3046"/> <path d="m111.07 128.18c-3.3564 0.91442-13.126-7.8865-12.801-9.921 0.90082-5.6539 0.734-10.169 4.3932-13.783 0 0 11.363-5.2421 17.838 1.0861 2.3516 2.2984 2.8734 19.266-9.4296 22.618z" stroke-linecap="round" stroke-linejoin="round" stroke-width="1.3135"/> <path d="m116 123s0.58094-17.836 7.1731-18.164c5.4512-0.27077 1.8314 10.871 0.3264 13.303 3.4807-0.30672 6.6832 4.8154 3.777 4.79-7.3154-0.0639-11.276 0.0705-11.276 0.0705z"/> <g stroke-linejoin="round"> <path d="m91.195 98.54 6.6147 7.5364c3.0718-0.59936 7.7313-0.25409 13.729 3.861l8.2269-5.0794c-3.137 5.103-3.7453 8.7622-4.0097 14.343-0.1615 7.2368-6.1126 11.642-14.14 10.351-9.4063-1.5121-15.459-3.759-15.297-10.996 0.08693-3.8951 1.5263-6.78 3.7859-9.2907 2.8076-3.1197 1.7896-6.6363 1.0908-10.725z" stroke-linecap="square" stroke-width=".65675"/> <g transform="matrix(1.2107 .36262 -.23068 .71806 93.846 30.235)" fill-rule="evenodd" stroke="#000" stroke-linecap="round" stroke-width=".83532"> <path transform="rotate(-40.832 47.762 100.66)" d="m17.036 93.403-6.1681-2.3498"/> <path transform="translate(2.6435 21.515)" d="m17.036 93.403-6.1681-2.3498"/> <path transform="rotate(-19.266 82.607 96.345)" d="m17.036 93.403-6.1681-2.3498"/> </g> </g> <path d="m104.73 137.66c-2.1427-0.0682-3.9192 1.1272-3.9679 2.6698-2e-3 0.0605 4.6e-4 0.11726 4e-3 0.17251l-0.70775 1.1621 1.1503-0.35788c0.21997 0.15032 0.51276 0.24248 0.85927 0.2998l0.5354 1.3238 0.4349-1.2396c0.15669 6e-3 0.32297 9e-3 0.4889 0.012l0.55934 1.3833 0.478-1.3628c0.0614 1e-3 0.12021 3e-3 0.18215 3e-3 0.11609 3e-3 0.22956 9e-3 0.34222 0.0129l0.48999 1.2116 0.41049-1.1701c0.21947 0.01 0.43467 0.0173 0.63156 0.0187l0.51478 1.2732 0.47579-1.3563c0.55448-0.1317 0.88795-0.44728 0.90988-1.1414 0.0487-1.5426-1.6487-2.8484-3.7914-2.9165z" stroke-linecap="square" stroke-linejoin="round" stroke-width=".34702"/> <path d="m103.06 138.16s1.745 1.4044 2.8082 0.89572c4.4725-2.1399 14.202-17.023 10.324-17.635 0 0-7.7349-0.0465-6.8558 2.438 1.4702 4.1548-6.2763 14.302-6.2763 14.302z"/> <g transform="matrix(.5679 .10819 -.10819 .5679 117.48 70.591)" stroke-linejoin="round"> <path d="m-9.9743 98.029c-2.3534-2.7408-5.1078-2.4151-7.5462-0.0443-0.05561 0.45192-0.2013 0.92134 0.45281 1.2379 2.9309-0.69387 2.5244 1.3933 2.6616 3.5232 0.46362 0.46079 0.92463 0.47278 1.3831 0.0321 0.01805-2.0874-0.47633-3.9881 2.7437-3.4006 0.33509-0.14434 0.48872-0.52538 0.30506-1.3492z" fill="#fff" stroke-linecap="square" stroke-width="1.136"/> <g transform="matrix(.41293 .42545 .42545 -.41293 17.34 250.97)" stroke-width="1.1627"> <ellipse transform="rotate(38.626)" cx="-98.412" cy="257.45" rx="9.525" ry="11.112" fill="#f9f9f9" fill-opacity=".99471" stroke-linecap="round" stroke-width="11.627"/> <g transform="matrix(1.4827 0 0 1.4827 54.715 17.855)" stroke-linecap="square"> <ellipse transform="matrix(.99978 -.021003 .02077 .99978 0 0)" cx="-196.66" cy="76.2" rx="4.3835" ry="4.3853" stroke-width=".6547"/> <circle transform="rotate(-22.884)" cx="-207.64" cy="-2.9188" r="1.0268" fill="#fff" stroke-width="2.1898"/> </g> </g> <g transform="matrix(.41293 .42545 .42545 -.41293 32.684 250.97)" stroke-width="1.1627"> <ellipse transform="rotate(38.626)" cx="-98.412" cy="257.45" rx="9.525" ry="11.112" fill="#f9f9f9" fill-opacity=".99471" stroke-linecap="round" stroke-width="11.627"/> <g transform="matrix(1.4827 0 0 1.4827 54.715 17.855)" stroke-linecap="square"> <ellipse transform="matrix(.99978 -.021003 .02077 .99978 0 0)" cx="-196.66" cy="76.2" rx="4.3835" ry="4.3853" stroke-width=".6547"/> <circle transform="rotate(-22.884)" cx="-207.64" cy="-2.9188" r="1.0268" fill="#fff" stroke-width="2.1898"/> </g> </g> </g> </g> <g transform="matrix(.32678 0 0 .50857 580.16 -286.6)"> <g transform="matrix(.44079 0 0 .44079 156.74 -126.7)" fill="#009cc3" stroke-width="2.2687"> <path d="m88.246 235.34c6.9145-2.8172-0.11126-16.085-3.6706-10.574-9.3132 0.41424-8.1797-14.601 0.46517-15.508 15.818-1.6582 8.0979 29.512 29.926 26.135 16.938-9.3767 15.913 1.3744 26.155 0.0706 6.001-0.7636 17.092-2.6513 22.046-10.553 17.653-28.157 30.125-11.854 28.658-5.8535-1.0072 8.0758-7.3508 12.648-7.2006 4.7787 0.0489-4.4936-3.708 9.1196 1.3565 9.2512 6.6608 0.17312 6.2159 4.3852 7.0788 6.3533l-108.69 0.0545c-0.06471-2.2326 1.751-3.29 3.8743-4.1551z" fill="#009cc3" stroke-width=".60025"/> </g> <g transform="matrix(.44079 0 0 .44079 156.68 -126.44)" stroke-width=".60025"> <path d="m88.246 235.34c6.9145-2.8172-0.11126-16.085-3.6706-10.574-9.3132 0.41424-8.1797-14.601 0.46517-15.508 15.818-1.6582 8.0979 29.512 29.926 26.135 16.938-9.3767 15.913 1.3744 26.155 0.0706 6.001-0.7636 17.092-2.6513 22.046-10.553 17.653-28.157 30.125-11.854 28.658-5.8535-1.0072 8.0758-7.3508 12.648-7.2006 4.7787 0.0489-4.4936-3.708 9.1196 1.3565 9.2512 6.6608 0.17312 6.2159 4.3852 7.0788 6.3533-26.749 7.6516-83.281 11.639-108.69 0.0545-0.06471-2.2326 1.751-3.29 3.8743-4.1551z" fill="url(#r)"/> <path d="m82.245 211.62c-0.19349-0.25551-0.59734-0.29028-0.91131-0.12389-1.3729 0.72757-3.1702 3.6404-2.1796 7.539 0.06868-5.9822 3.8337-5.5761 3.0909-7.4152z" fill="url(#q)"/> <path d="m82.581 211.18c-0.08382-0.50782 0.30442-1.0044 0.86799-1.1067 0.56251-0.10357 1.0875 0.22584 1.1713 0.73489 0.07083 0.27417-0.50023 0.40606-1.0378 0.67834-0.62742 0.21914-0.91874 0.20252-1.0014-0.30653z" fill="url(#p)"/> <path d="m176.13 211.79c0.65296-0.28447 1.3378-0.0524 1.5309 0.51907 0.19299 0.57143-0.17978 1.2652-0.83273 1.5509-0.65184 0.28447-1.3379 0.0524-1.5298-0.51903-0.19303-0.5702 0.17978-1.2652 0.83163-1.5509z" fill="url(#o)"/> <path d="m178.27 211.55c-0.13161-0.48144 0.2329-0.9662 0.71237-1.2424 2.4881-1.4335 8.275-1.6141 11.375 4.468-7.4489-5.5952-10.522-0.56264-12.087-3.2255z" fill="url(#n)"/> <path d="m185.82 227.28c0.0351 0.21403 0.26581 0.3624 0.50629 0.36199 1.0515-2e-3 1.6884-0.36188 2.8205-2.1569-1.5312 2.291-3.1905 0.45965-3.3268 1.7949z" fill="url(#m)"/> <path d="m129.5 234.38c0.56464-0.0709 1.1414-0.74057 0.5794-1.41-1.8464-2.1992-8.3875-0.88463-15.019 2.9123 8.9-2.7538 10.718-3.0024 14.44-1.5023z" fill="url(#l)"/> <path d="m191.85 237.99c-0.45733-2.3383-1.3402-3.8183-4.0344-3.9443 2.214 0.26978 3.1307 2.8068 3.358 3.9534z" fill="url(#k)"/> <path d="m84.921 239.12c0.0066-1.6982 1.6334-2.6974 2.7097-3.0679-2.3226 1.0669-1.9118 2.2555-2.0361 3.0624z" fill="url(#j)"/> </g> </g> <g transform="matrix(.63031 -.32824 .32824 .63031 537.94 -360.45)" stroke-width=".11664"> <path d="m117.02 148.69s0.0477 0.43725-0.40598 0.63031c-0.45363 0.19251-0.52169-0.15621-1.144-0.25521-0.62184-0.099-0.68459-0.0385-0.88489 0.0583-0.20033 0.0962-0.47066-0.0462-0.28492-0.40701s0.44585-0.59624 1.0648-0.79095c1.5826-0.35915 1.655 0.76453 1.655 0.76453z" fill="url(#c)"/> <path d="m116.39 148.12c0.30875 0.15072 0.0972 0.47137-0.18621 0.20681-0.0759-0.0715-0.15754-0.11441-0.30583-0.0721-0.11183 0.0314-0.10356-0.0522-0.0715-0.0962 0.0758-0.1045 0.35735-0.1397 0.5635-0.0385z" fill="#fff"/> </g> <g transform="matrix(-.84318 -.53763 -.53763 .84318 818.41 -368.58)" stroke-width=".11664"> <path d="m117.02 148.69s0.0477 0.43725-0.40598 0.63031c-0.45363 0.19251-0.52169-0.15621-1.144-0.25521-0.62184-0.099-0.68459-0.0385-0.88489 0.0583-0.20033 0.0962-0.47066-0.0462-0.28492-0.40701s0.44585-0.59624 1.0648-0.79095c1.5826-0.35915 1.655 0.76453 1.655 0.76453z" fill="url(#c)"/> <path d="m116.39 148.12c0.30875 0.15072 0.0972 0.47137-0.18621 0.20681-0.0759-0.0715-0.15754-0.11441-0.30583-0.0721-0.11183 0.0314-0.10356-0.0522-0.0715-0.0962 0.0758-0.1045 0.35735-0.1397 0.5635-0.0385z" fill="#fff"/> </g> <g transform="matrix(.096851 -.22113 .22113 .096851 606.09 -302.91)" stroke-width=".26458"> <path d="m49.851 141.59c-0.40035 0.7511-2.4849 0.0948-3.2405-0.33687-0.7566-0.43171-1.0467-1.3949-0.64741-2.1461 0.40035-0.7499 1.3434-1.0106 2.0988-0.57897 0.75662 0.43172 2.1882 2.3121 1.7889 3.0618z" fill="url(#f)"/> <path d="m46.575 139.14c-0.03309-0.23707 0.1533-0.46164 0.4169-0.50159 0.2625-0.0399 0.50295 0.12105 0.53604 0.35812 0.03309 0.23828-0.15332 0.4629-0.41692 0.50281-0.26249 0.04-0.50294-0.12101-0.53602-0.35932z" fill="#fff"/> </g> <g transform="matrix(-.096851 -.22113 -.22113 .096851 696.63 -302.54)" stroke-width=".26458"> <path d="m49.851 141.59c-0.40035 0.7511-2.4849 0.0948-3.2405-0.33687-0.7566-0.43171-1.0467-1.3949-0.64741-2.1461 0.40035-0.7499 1.3434-1.0106 2.0988-0.57897 0.75662 0.43172 2.1882 2.3121 1.7889 3.0618z" fill="url(#f)"/> <path d="m46.575 139.14c-0.03309-0.23707 0.1533-0.46164 0.4169-0.50159 0.2625-0.0399 0.50295 0.12105 0.53604 0.35812 0.03309 0.23828-0.15332 0.4629-0.41692 0.50281-0.26249 0.04-0.50294-0.12101-0.53602-0.35932z" fill="#fff"/> </g> <g transform="matrix(-.26673 0 0 .26673 672.34 -345.96)" stroke-width=".26458"> <path d="m90.138 151.13s-0.89779 0.7973-0.30771 2.2584c0.58896 1.4599 1.3677 0.89588 2.839 2.1448 1.4724 1.249 1.4923 1.5197 1.7305 2.1885 0.23935 0.66879 1.061 1.0056 1.3345-0.17717 0.27462-1.1829 0.16434-2.2796-0.76323-4.1311-2.6305-4.4456-4.833-2.2833-4.833-2.2833z" fill="url(#a)"/> <path d="m92.488 151.42c-0.91655-0.40799-1.0632 0.75111 0.0088 0.86466 0.28786 0.03 0.53604 0.13103 0.76655 0.56647 0.17316 0.32564 0.30882 0.1335 0.32317-0.0337 0.03418-0.39303-0.48641-1.1254-1.0985-1.3974z" fill="#fff"/> </g> <g transform="matrix(.1733 0 0 .1733 640.82 -332.57)" stroke-width=".26458"> <path d="m90.138 151.13s-0.89779 0.7973-0.30771 2.2584c0.58896 1.4599 1.3677 0.89588 2.839 2.1448 1.4724 1.249 1.4923 1.5197 1.7305 2.1885 0.23935 0.66879 1.061 1.0056 1.3345-0.17717 0.27462-1.1829 0.16434-2.2796-0.76323-4.1311-2.6305-4.4456-4.833-2.2833-4.833-2.2833z" fill="url(#a)"/> <path d="m92.488 151.42c-0.91655-0.40799-1.0632 0.75111 0.0088 0.86466 0.28786 0.03 0.53604 0.13103 0.76655 0.56647 0.17316 0.32564 0.30882 0.1335 0.32317-0.0337 0.03418-0.39303-0.48641-1.1254-1.0985-1.3974z" fill="#fff"/> </g> <g transform="matrix(.24043 .021803 -.021803 .24043 637.38 -338.94)" stroke-width=".26458"> <path d="m49.851 141.59c-0.40035 0.7511-2.4849 0.0948-3.2405-0.33687-0.7566-0.43171-1.0467-1.3949-0.64741-2.1461 0.40035-0.7499 1.3434-1.0106 2.0988-0.57897 0.75662 0.43172 2.1882 2.3121 1.7889 3.0618z" fill="url(#f)"/> <path d="m46.575 139.14c-0.03309-0.23707 0.1533-0.46164 0.4169-0.50159 0.2625-0.0399 0.50295 0.12105 0.53604 0.35812 0.03309 0.23828-0.15332 0.4629-0.41692 0.50281-0.26249 0.04-0.50294-0.12101-0.53602-0.35932z" fill="#fff"/> </g> <g transform="matrix(-.026818 -.15745 -.15745 .026818 687.39 -292.16)" stroke-width=".26458"> <path d="m90.138 151.13s-0.89779 0.7973-0.30771 2.2584c0.58896 1.4599 1.3677 0.89588 2.839 2.1448 1.4724 1.249 1.4923 1.5197 1.7305 2.1885 0.23935 0.66879 1.061 1.0056 1.3345-0.17717 0.27462-1.1829 0.16434-2.2796-0.76323-4.1311-2.6305-4.4456-4.833-2.2833-4.833-2.2833z" fill="url(#a)"/> <path d="m92.488 151.42c-0.91655-0.40799-1.0632 0.75111 0.0088 0.86466 0.28786 0.03 0.53604 0.13103 0.76655 0.56647 0.17316 0.32564 0.30882 0.1335 0.32317-0.0337 0.03418-0.39303-0.48641-1.1254-1.0985-1.3974z" fill="#fff"/> </g> <g transform="matrix(.49894 -.29669 .29669 .49894 548.84 -340.15)" stroke-width=".11664"> <path d="m117.02 148.69s0.0477 0.43725-0.40598 0.63031c-0.45363 0.19251-0.52169-0.15621-1.144-0.25521-0.62184-0.099-0.68459-0.0385-0.88489 0.0583-0.20033 0.0962-0.47066-0.0462-0.28492-0.40701s0.44585-0.59624 1.0648-0.79095c1.5826-0.35915 1.655 0.76453 1.655 0.76453z" fill="url(#c)"/> <path d="m116.39 148.12c0.30875 0.15072 0.0972 0.47137-0.18621 0.20681-0.0759-0.0715-0.15754-0.11441-0.30583-0.0721-0.11183 0.0314-0.10356-0.0522-0.0715-0.0962 0.0758-0.1045 0.35735-0.1397 0.5635-0.0385z" fill="#fff"/> </g> <g transform="translate(545.47 -438.89)"> <path d="m96.953 142.81a10.959 2.2078 0 0 1-9.4905-1.1039 10.959 2.2078 0 0 1 0-2.2078 10.959 2.2078 0 0 1 9.4905-1.1039v2.2078z" fill="url(#e)"/> <path d="m96.77 143.08a12.023 2.5148 0 0 1-10.413-1.2574 12.023 2.5148 0 0 1 0-2.5148 12.023 2.5148 0 0 1 10.413-1.2574v2.5148z" fill="url(#d)"/> <g transform="matrix(.54741 0 0 .54741 41.999 63.546)"> <path d="m96.953 142.81a10.959 2.2078 0 0 1-9.4905-1.1039 10.959 2.2078 0 0 1 0-2.2078 10.959 2.2078 0 0 1 9.4905-1.1039v2.2078z" fill="url(#e)"/> <path d="m96.77 143.08a12.023 2.5148 0 0 1-10.413-1.2574 12.023 2.5148 0 0 1 0-2.5148 12.023 2.5148 0 0 1 10.413-1.2574v2.5148z" fill="url(#d)"/> </g> <g transform="matrix(.25542 0 0 .25542 69.37 104.59)"> <path d="m96.953 142.81a10.959 2.2078 0 0 1-9.4905-1.1039 10.959 2.2078 0 0 1 0-2.2078 10.959 2.2078 0 0 1 9.4905-1.1039v2.2078z" fill="url(#e)"/> <path d="m96.77 143.08a12.023 2.5148 0 0 1-10.413-1.2574 12.023 2.5148 0 0 1 0-2.5148 12.023 2.5148 0 0 1 10.413-1.2574v2.5148z" fill="url(#d)"/> </g> </g> <g transform="matrix(-1 0 0 1 756.25 -439.1)"> <path d="m96.953 142.81a10.959 2.2078 0 0 1-9.4905-1.1039 10.959 2.2078 0 0 1 0-2.2078 10.959 2.2078 0 0 1 9.4905-1.1039v2.2078z" fill="url(#e)"/> <path d="m96.77 143.08a12.023 2.5148 0 0 1-10.413-1.2574 12.023 2.5148 0 0 1 0-2.5148 12.023 2.5148 0 0 1 10.413-1.2574v2.5148z" fill="url(#d)"/> <g transform="matrix(.54741 0 0 .54741 41.999 63.546)"> <path d="m96.953 142.81a10.959 2.2078 0 0 1-9.4905-1.1039 10.959 2.2078 0 0 1 0-2.2078 10.959 2.2078 0 0 1 9.4905-1.1039v2.2078z" fill="url(#e)"/> <path d="m96.77 143.08a12.023 2.5148 0 0 1-10.413-1.2574 12.023 2.5148 0 0 1 0-2.5148 12.023 2.5148 0 0 1 10.413-1.2574v2.5148z" fill="url(#d)"/> </g> <g transform="matrix(.25542 0 0 .25542 69.37 104.59)"> <path d="m96.953 142.81a10.959 2.2078 0 0 1-9.4905-1.1039 10.959 2.2078 0 0 1 0-2.2078 10.959 2.2078 0 0 1 9.4905-1.1039v2.2078z" fill="url(#e)"/> <path d="m96.77 143.08a12.023 2.5148 0 0 1-10.413-1.2574 12.023 2.5148 0 0 1 0-2.5148 12.023 2.5148 0 0 1 10.413-1.2574v2.5148z" fill="url(#d)"/> </g> </g> <g transform="matrix(.31284 0 0 .31284 620.85 -362.79)" stroke-width=".26458"> <path d="m90.138 151.13s-0.89779 0.7973-0.30771 2.2584c0.58896 1.4599 1.3677 0.89588 2.839 2.1448 1.4724 1.249 1.4923 1.5197 1.7305 2.1885 0.23935 0.66879 1.061 1.0056 1.3345-0.17717 0.27462-1.1829 0.16434-2.2796-0.76323-4.1311-2.6305-4.4456-4.833-2.2833-4.833-2.2833z" fill="url(#a)"/> <path d="m92.488 151.42c-0.91655-0.40799-1.0632 0.75111 0.0088 0.86466 0.28786 0.03 0.53604 0.13103 0.76655 0.56647 0.17316 0.32564 0.30882 0.1335 0.32317-0.0337 0.03418-0.39303-0.48641-1.1254-1.0985-1.3974z" fill="#fff"/> </g> <g transform="matrix(.17969 -.43314 .43314 .17969 571.28 -306.62)" stroke-width=".26458"> <path d="m49.851 141.59c-0.40035 0.7511-2.4849 0.0948-3.2405-0.33687-0.7566-0.43171-1.0467-1.3949-0.64741-2.1461 0.40035-0.7499 1.3434-1.0106 2.0988-0.57897 0.75662 0.43172 2.1882 2.3121 1.7889 3.0618z" fill="url(#f)"/> <path d="m46.575 139.14c-0.03309-0.23707 0.1533-0.46164 0.4169-0.50159 0.2625-0.0399 0.50295 0.12105 0.53604 0.35812 0.03309 0.23828-0.15332 0.4629-0.41692 0.50281-0.26249 0.04-0.50294-0.12101-0.53602-0.35932z" fill="#fff"/> </g> <g transform="matrix(-.26724 -.16264 -.16264 .26724 703.22 -338.67)" stroke-width=".26458"> <path d="m90.138 151.13s-0.89779 0.7973-0.30771 2.2584c0.58896 1.4599 1.3677 0.89588 2.839 2.1448 1.4724 1.249 1.4923 1.5197 1.7305 2.1885 0.23935 0.66879 1.061 1.0056 1.3345-0.17717 0.27462-1.1829 0.16434-2.2796-0.76323-4.1311-2.6305-4.4456-4.833-2.2833-4.833-2.2833z" fill="url(#a)"/> <path d="m92.488 151.42c-0.91655-0.40799-1.0632 0.75111 0.0088 0.86466 0.28786 0.03 0.53604 0.13103 0.76655 0.56647 0.17316 0.32564 0.30882 0.1335 0.32317-0.0337 0.03418-0.39303-0.48641-1.1254-1.0985-1.3974z" fill="#fff"/> </g> <g transform="matrix(-.30947 .19263 .19263 .30947 638.37 -363.4)" stroke-width=".26458"> <path d="m49.851 141.59c-0.40035 0.7511-2.4849 0.0948-3.2405-0.33687-0.7566-0.43171-1.0467-1.3949-0.64741-2.1461 0.40035-0.7499 1.3434-1.0106 2.0988-0.57897 0.75662 0.43172 2.1882 2.3121 1.7889 3.0618z" fill="url(#f)"/> <path d="m46.575 139.14c-0.03309-0.23707 0.1533-0.46164 0.4169-0.50159 0.2625-0.0399 0.50295 0.12105 0.53604 0.35812 0.03309 0.23828-0.15332 0.4629-0.41692 0.50281-0.26249 0.04-0.50294-0.12101-0.53602-0.35932z" fill="#fff"/> </g> <g transform="matrix(.92419 -.92537 .92537 .92419 415.62 -338.71)" stroke-width=".11664"> <path d="m117.02 148.69s0.0477 0.43725-0.40598 0.63031c-0.45363 0.19251-0.52169-0.15621-1.144-0.25521-0.62184-0.099-0.68459-0.0385-0.88489 0.0583-0.20033 0.0962-0.47066-0.0462-0.28492-0.40701s0.44585-0.59624 1.0648-0.79095c1.5826-0.35915 1.655 0.76453 1.655 0.76453z" fill="url(#c)"/> <path d="m116.39 148.12c0.30875 0.15072 0.0972 0.47137-0.18621 0.20681-0.0759-0.0715-0.15754-0.11441-0.30583-0.0721-0.11183 0.0314-0.10356-0.0522-0.0715-0.0962 0.0758-0.1045 0.35735-0.1397 0.5635-0.0385z" fill="#fff"/> </g> <g transform="matrix(.95149 -.89727 .89727 .95149 409.36 -352.83)" stroke-width=".11664"> <path d="m117.02 148.69s0.0477 0.43725-0.40598 0.63031c-0.45363 0.19251-0.52169-0.15621-1.144-0.25521-0.62184-0.099-0.68459-0.0385-0.88489 0.0583-0.20033 0.0962-0.47066-0.0462-0.28492-0.40701s0.44585-0.59624 1.0648-0.79095c1.5826-0.35915 1.655 0.76453 1.655 0.76453z" fill="url(#c)"/> <path d="m116.39 148.12c0.30875 0.15072 0.0972 0.47137-0.18621 0.20681-0.0759-0.0715-0.15754-0.11441-0.30583-0.0721-0.11183 0.0314-0.10356-0.0522-0.0715-0.0962 0.0758-0.1045 0.35735-0.1397 0.5635-0.0385z" fill="#fff"/> </g> <g transform="matrix(.23691 -.54617 .54617 .23691 532.73 -289.17)" stroke-width=".26458"> <path d="m90.138 151.13s-0.89779 0.7973-0.30771 2.2584c0.58896 1.4599 1.3677 0.89588 2.839 2.1448 1.4724 1.249 1.4923 1.5197 1.7305 2.1885 0.23935 0.66879 1.061 1.0056 1.3345-0.17717 0.27462-1.1829 0.16434-2.2796-0.76323-4.1311-2.6305-4.4456-4.833-2.2833-4.833-2.2833z" fill="url(#a)"/> <path d="m92.488 151.42c-0.91655-0.40799-1.0632 0.75111 0.0088 0.86466 0.28786 0.03 0.53604 0.13103 0.76655 0.56647 0.17316 0.32564 0.30882 0.1335 0.32317-0.0337 0.03418-0.39303-0.48641-1.1254-1.0985-1.3974z" fill="#fff"/> </g> <g transform="matrix(.37636 0 0 .37636 605.91 -367.71)" stroke-width=".26458"> <path d="m90.138 151.13s-0.89779 0.7973-0.30771 2.2584c0.58896 1.4599 1.3677 0.89588 2.839 2.1448 1.4724 1.249 1.4923 1.5197 1.7305 2.1885 0.23935 0.66879 1.061 1.0056 1.3345-0.17717 0.27462-1.1829 0.16434-2.2796-0.76323-4.1311-2.6305-4.4456-4.833-2.2833-4.833-2.2833z" fill="url(#a)"/> <path d="m92.488 151.42c-0.91655-0.40799-1.0632 0.75111 0.0088 0.86466 0.28786 0.03 0.53604 0.13103 0.76655 0.56647 0.17316 0.32564 0.30882 0.1335 0.32317-0.0337 0.03418-0.39303-0.48641-1.1254-1.0985-1.3974z" fill="#fff"/> </g> <g transform="matrix(-.2879 .1224 .1224 .2879 654.59 -362.55)" stroke-width=".26458"> <path d="m90.138 151.13s-0.89779 0.7973-0.30771 2.2584c0.58896 1.4599 1.3677 0.89588 2.839 2.1448 1.4724 1.249 1.4923 1.5197 1.7305 2.1885 0.23935 0.66879 1.061 1.0056 1.3345-0.17717 0.27462-1.1829 0.16434-2.2796-0.76323-4.1311-2.6305-4.4456-4.833-2.2833-4.833-2.2833z" fill="url(#a)"/> <path d="m92.488 151.42c-0.91655-0.40799-1.0632 0.75111 0.0088 0.86466 0.28786 0.03 0.53604 0.13103 0.76655 0.56647 0.17316 0.32564 0.30882 0.1335 0.32317-0.0337 0.03418-0.39303-0.48641-1.1254-1.0985-1.3974z" fill="#fff"/> </g> <g transform="matrix(.63031 -.32824 .32824 .63031 521.86 -364.57)" stroke-width=".11664"> <path d="m117.02 148.69s0.0477 0.43725-0.40598 0.63031c-0.45363 0.19251-0.52169-0.15621-1.144-0.25521-0.62184-0.099-0.68459-0.0385-0.88489 0.0583-0.20033 0.0962-0.47066-0.0462-0.28492-0.40701s0.44585-0.59624 1.0648-0.79095c1.5826-0.35915 1.655 0.76453 1.655 0.76453z" fill="url(#c)"/> <path d="m116.39 148.12c0.30875 0.15072 0.0972 0.47137-0.18621 0.20681-0.0759-0.0715-0.15754-0.11441-0.30583-0.0721-0.11183 0.0314-0.10356-0.0522-0.0715-0.0962 0.0758-0.1045 0.35735-0.1397 0.5635-0.0385z" fill="#fff"/> </g> <g transform="matrix(.061963 .23333 -.23333 .061963 672.44 -330.62)" stroke-width=".26458"> <path d="m49.851 141.59c-0.40035 0.7511-2.4849 0.0948-3.2405-0.33687-0.7566-0.43171-1.0467-1.3949-0.64741-2.1461 0.40035-0.7499 1.3434-1.0106 2.0988-0.57897 0.75662 0.43172 2.1882 2.3121 1.7889 3.0618z" fill="url(#f)"/> <path d="m46.575 139.14c-0.03309-0.23707 0.1533-0.46164 0.4169-0.50159 0.2625-0.0399 0.50295 0.12105 0.53604 0.35812 0.03309 0.23828-0.15332 0.4629-0.41692 0.50281-0.26249 0.04-0.50294-0.12101-0.53602-0.35932z" fill="#fff"/> </g> <g transform="matrix(-.77053 -.72662 -.72662 .77053 833.52 -339.9)" stroke-width=".11664"> <path d="m117.02 148.69s0.0477 0.43725-0.40598 0.63031c-0.45363 0.19251-0.52169-0.15621-1.144-0.25521-0.62184-0.099-0.68459-0.0385-0.88489 0.0583-0.20033 0.0962-0.47066-0.0462-0.28492-0.40701s0.44585-0.59624 1.0648-0.79095c1.5826-0.35915 1.655 0.76453 1.655 0.76453z" fill="url(#c)"/> <path d="m116.39 148.12c0.30875 0.15072 0.0972 0.47137-0.18621 0.20681-0.0759-0.0715-0.15754-0.11441-0.30583-0.0721-0.11183 0.0314-0.10356-0.0522-0.0715-0.0962 0.0758-0.1045 0.35735-0.1397 0.5635-0.0385z" fill="#fff"/> </g> <g transform="matrix(-.32732 -.069559 -.069559 .32732 692.96 -350.4)" stroke-width=".26458"> <path d="m90.138 151.13s-0.89779 0.7973-0.30771 2.2584c0.58896 1.4599 1.3677 0.89588 2.839 2.1448 1.4724 1.249 1.4923 1.5197 1.7305 2.1885 0.23935 0.66879 1.061 1.0056 1.3345-0.17717 0.27462-1.1829 0.16434-2.2796-0.76323-4.1311-2.6305-4.4456-4.833-2.2833-4.833-2.2833z" fill="url(#a)"/> <path d="m92.488 151.42c-0.91655-0.40799-1.0632 0.75111 0.0088 0.86466 0.28786 0.03 0.53604 0.13103 0.76655 0.56647 0.17316 0.32564 0.30882 0.1335 0.32317-0.0337 0.03418-0.39303-0.48641-1.1254-1.0985-1.3974z" fill="#fff"/> </g> <g transform="matrix(-.16952 -.036024 -.036024 .16952 669.92 -325.47)" stroke-width=".26458"> <path d="m90.138 151.13s-0.89779 0.7973-0.30771 2.2584c0.58896 1.4599 1.3677 0.89588 2.839 2.1448 1.4724 1.249 1.4923 1.5197 1.7305 2.1885 0.23935 0.66879 1.061 1.0056 1.3345-0.17717 0.27462-1.1829 0.16434-2.2796-0.76323-4.1311-2.6305-4.4456-4.833-2.2833-4.833-2.2833z" fill="url(#a)"/> <path d="m92.488 151.42c-0.91655-0.40799-1.0632 0.75111 0.0088 0.86466 0.28786 0.03 0.53604 0.13103 0.76655 0.56647 0.17316 0.32564 0.30882 0.1335 0.32317-0.0337 0.03418-0.39303-0.48641-1.1254-1.0985-1.3974z" fill="#fff"/> </g> <g transform="matrix(-.33017 -.054484 -.054484 .33017 699.62 -357.28)" stroke-width=".26458"> <path d="m90.138 151.13s-0.89779 0.7973-0.30771 2.2584c0.58896 1.4599 1.3677 0.89588 2.839 2.1448 1.4724 1.249 1.4923 1.5197 1.7305 2.1885 0.23935 0.66879 1.061 1.0056 1.3345-0.17717 0.27462-1.1829 0.16434-2.2796-0.76323-4.1311-2.6305-4.4456-4.833-2.2833-4.833-2.2833z" fill="url(#a)"/> <path d="m92.488 151.42c-0.91655-0.40799-1.0632 0.75111 0.0088 0.86466 0.28786 0.03 0.53604 0.13103 0.76655 0.56647 0.17316 0.32564 0.30882 0.1335 0.32317-0.0337 0.03418-0.39303-0.48641-1.1254-1.0985-1.3974z" fill="#fff"/> </g> <g transform="matrix(.31518 .11243 -.11243 .31518 645.58 -369)" stroke-width=".26458"> <path d="m90.138 151.13s-0.89779 0.7973-0.30771 2.2584c0.58896 1.4599 1.3677 0.89588 2.839 2.1448 1.4724 1.249 1.4923 1.5197 1.7305 2.1885 0.23935 0.66879 1.061 1.0056 1.3345-0.17717 0.27462-1.1829 0.16434-2.2796-0.76323-4.1311-2.6305-4.4456-4.833-2.2833-4.833-2.2833z" fill="url(#a)"/> <path d="m92.488 151.42c-0.91655-0.40799-1.0632 0.75111 0.0088 0.86466 0.28786 0.03 0.53604 0.13103 0.76655 0.56647 0.17316 0.32564 0.30882 0.1335 0.32317-0.0337 0.03418-0.39303-0.48641-1.1254-1.0985-1.3974z" fill="#fff"/> </g> <g transform="matrix(.86174 .46734 -.46734 .86174 632.83 -485.74)" stroke-width=".11664"> <path d="m117.02 148.69s0.0477 0.43725-0.40598 0.63031c-0.45363 0.19251-0.52169-0.15621-1.144-0.25521-0.62184-0.099-0.68459-0.0385-0.88489 0.0583-0.20033 0.0962-0.47066-0.0462-0.28492-0.40701s0.44585-0.59624 1.0648-0.79095c1.5826-0.35915 1.655 0.76453 1.655 0.76453z" fill="url(#c)"/> <path d="m116.39 148.12c0.30875 0.15072 0.0972 0.47137-0.18621 0.20681-0.0759-0.0715-0.15754-0.11441-0.30583-0.0721-0.11183 0.0314-0.10356-0.0522-0.0715-0.0962 0.0758-0.1045 0.35735-0.1397 0.5635-0.0385z" fill="#fff"/> </g> <g transform="translate(545.47 -439.31)"> <path transform="matrix(1.0474 -.5093 .53122 1.4218 -39.434 47.474)" d="m94.005 45.099c0.44827-0.25339 0.97184-0.37157 1.4855-0.3353 0.51365 0.03627 1.0154 0.22684 1.4236 0.5407 0.40822 0.31386 0.72134 0.7498 0.88838 1.2369s0.18738 1.0234 0.05769 1.5218c-0.11501 0.44196-0.34384 0.84854-0.62498 1.2084-0.28114 0.35988-0.61432 0.67574-0.95783 0.97667-0.68702 0.60185-1.4342 1.1648-1.9245 1.9354-0.48038 0.75507-0.67964 1.6846-0.55096 2.5702 0.12868 0.88562 0.58421 1.72 1.2596 2.3071 0.6754 0.58714 1.565 0.92216 2.46 0.92636 0.89491 0.0042 1.7877-0.32243 2.4686-0.9032" fill="none" stroke="#000" stroke-linecap="round" stroke-linejoin="round" stroke-width="2.8128"/> <path d="m109.69 58.748c3.2336 4.4452 5.8337 16.159 2.6504 22.626-8.6789 4.6135-13.403 2.584-18.481-1.1591 0 0-2.1296-17.426 6.2896-22.463 2.5092-1.5011 7.8207-1.3685 9.5405 0.99576z" stroke-linecap="round" stroke-linejoin="round" stroke-width=".98675"/> <path d="m107.54 83.134s0.5998-15.576 6.3595-15.828c4.7628-0.20827 1.5434 9.5048 0.21621 11.621 3.0419-0.24987 5.8126 4.2407 3.2742 4.2035-6.3894-0.09373-9.85 0.0033-9.85 0.0033z"/> <path d="m100.18 83.134s-0.5998-15.576-6.3595-15.828c-4.7628-0.20827-1.5434 9.5048-0.21621 11.621-3.0419-0.24987-5.8126 4.2407-3.2742 4.2035 6.3894-0.09373 9.85 0.0033 9.85 0.0033z"/> <path d="m111.52 80.634c-1.4686 0.03555-2.6382 0.92154-2.6124 1.9788 9.9e-4 0.0414 5e-3 0.08024 9e-3 0.11786l-0.43963 0.82223 0.77325-0.28897c0.15646 0.09411 0.36012 0.14624 0.5994 0.17216l0.41707 0.88517 0.25001-0.8648c0.10744-0.0013 0.22132-0.0061 0.33496-0.01055l0.43574 0.92496 0.27476-0.9507c0.0421-0.0013 0.0824-0.0029 0.12475-0.0047 0.0795-2e-3 0.1574-0.0029 0.23463-0.0041l0.38171 0.81014 0.23598-0.81631c0.15052-0.0013 0.29805-0.0047 0.43281-0.01141l0.40103 0.85138 0.27351-0.94622c0.37432-0.11137 0.59036-0.34007 0.57875-0.8158-0.0258-1.0573-1.2372-1.8856-2.7058-1.85z" stroke-linecap="square" stroke-linejoin="round" stroke-width=".2607"/> <path d="m95.452 80.376c1.4686 0.03555 2.6382 0.92155 2.6124 1.9788-1e-3 0.0414-0.0047 0.08025-0.0094 0.11787l0.43963 0.82223-0.77325-0.28896c-0.15645 0.09411-0.36012 0.14624-0.5994 0.17216l-0.41709 0.88517-0.25001-0.86481c-0.10744-0.0013-0.22132-0.0061-0.33496-0.0105l-0.43574 0.92496-0.27476-0.9507c-0.04208-0.0013-0.08235-0.0029-0.12475-0.0047-0.07954-2e-3 -0.1574-0.0029-0.23463-0.0041l-0.38171 0.81013-0.23598-0.8163c-0.15053-0.0013-0.29806-0.0047-0.43281-0.01141l-0.40103 0.85139-0.27352-0.94622c-0.37432-0.11137-0.59036-0.34007-0.57875-0.8158 0.02581-1.0573 1.2372-1.8856 2.7058-1.85z" stroke-linecap="square" stroke-linejoin="round" stroke-width=".2607"/> <g transform="matrix(-.40152 -.098148 -.098148 .40152 116.19 47.099)"> <path d="m-2.4794-11.037 16.712 13.029c6.1396-2.4591 15.949-3.5851 30.026 2.5856l15.069-13.798c-4.4939 11.834-4.3095 19.671-2.6513 31.36 2.5268 15.087-8.0849 26.584-25.259 27.08-20.125 0.58113-33.578-1.6895-36.105-16.776-1.36-8.1201 0.48707-14.678 4.1847-20.784 4.5945-7.5865 1.0904-14.484-1.9773-22.696z" stroke-linecap="square" stroke-linejoin="round" stroke-width="1.1936"/> <g transform="matrix(-1.657 -.12726 -.12843 1.656 56.086 -119.72)" stroke-width="1.4368"> <g transform="rotate(-13.594 -77.289 193.84)" fill-rule="evenodd" stroke="#000" stroke-linecap="round" stroke-linejoin="round" stroke-width=".71842"> <path transform="rotate(-40.832 47.762 100.66)" d="m17.036 93.403-6.1681-2.3498"/> <path transform="translate(2.6435 21.515)" d="m17.036 93.403-6.1681-2.3498"/> <path transform="rotate(-19.266 82.607 96.345)" d="m17.036 93.403-6.1681-2.3498"/> </g> </g> <g transform="matrix(1.6375 -.28312 .28162 1.6371 -60.388 -143.33)" fill-rule="evenodd" stroke="#000" stroke-linecap="round" stroke-linejoin="round" stroke-width=".71842"> <path transform="rotate(-40.832 47.762 100.66)" d="m17.036 93.403-6.1681-2.3498"/> <path transform="translate(2.6435 21.515)" d="m17.036 93.403-6.1681-2.3498"/> <path transform="rotate(-19.266 82.607 96.345)" d="m17.036 93.403-6.1681-2.3498"/> </g> <g transform="matrix(1.2217 0 0 1.2217 41.031 -79.452)" stroke-linejoin="round"> <path d="m-9.9743 98.029c-2.3534-2.7408-5.1078-2.4151-7.5462-0.0443-0.05561 0.45192-0.2013 0.92134 0.45281 1.2379 2.9309-0.69387 2.5244 1.3933 2.6616 3.5232 0.46362 0.46079 0.92463 0.47278 1.3831 0.0321 0.01805-2.0874-0.47633-3.9881 2.7437-3.4006 0.33509-0.14434 0.48872-0.52538 0.30506-1.3492z" fill="#fff" stroke-linecap="square" stroke-width=".97703"/> <g transform="matrix(.41293 .42545 .42545 -.41293 17.34 250.97)"> <ellipse transform="rotate(38.626)" cx="-98.412" cy="257.45" rx="9.525" ry="11.112" fill="#f9f9f9" fill-opacity=".99471" stroke-linecap="round" stroke-width="10"/> <g transform="matrix(1.4827 0 0 1.4827 54.715 17.855)" stroke-linecap="square"> <ellipse transform="matrix(.99978 -.021003 .02077 .99978 0 0)" cx="-196.66" cy="76.2" rx="4.3835" ry="4.3853" stroke-width=".56308"/> <circle transform="rotate(-22.884)" cx="-209.39" cy="-4.4484" r="1.0268" fill="#fff" stroke-width="1.8833"/> </g> </g> <g transform="matrix(.41293 .42545 .42545 -.41293 32.684 250.97)"> <ellipse transform="rotate(38.626)" cx="-98.412" cy="257.45" rx="9.525" ry="11.112" fill="#f9f9f9" fill-opacity=".99471" stroke-linecap="round" stroke-width="10"/> <g transform="matrix(1.4827 0 0 1.4827 54.715 17.855)" stroke-linecap="square"> <ellipse transform="matrix(.99978 -.021003 .02077 .99978 0 0)" cx="-196.66" cy="76.2" rx="4.3835" ry="4.3853" stroke-width=".56308"/> <circle transform="rotate(-22.884)" cx="-209.47" cy="-4.5709" r="1.0268" fill="#fff" stroke-width="1.8833"/> </g> </g> </g> </g> </g> </g> </g> </svg>