<?xml version='1.0' encoding='utf-8'?>
<svg xmlns="http://www.w3.org/2000/svg" width="3.1948in" height="3.2617in" version="1.1" viewBox="0 0 81.147 82.847"> <defs> <radialGradient id="a" cx="109.89" cy="42.263" r="3.1806" gradientTransform="matrix(1 0 0 .92754 0 3.0624)" gradientUnits="userSpaceOnUse"> <stop stop-color="#fff0b5" stop-opacity=".90698" offset="0"/> <stop stop-color="#ffd42a" offset="1"/> </radialGradient> </defs> <g transform="translate(-70.452 -6.0451)"> <path d="m149.91 23.755c-0.90646-0.17566-1.3712-1.8217-14.943 3.1208-12.646 4.6053-63.444 3.0841-63.444 3.0841s25.574 8.5441 38.624 7.343c26.659-2.4536 39.763-13.548 39.763-13.548z" fill="#ffd5d5"/> <path d="m114.74 17.573c-4.7622-7.079-25.797-21.028-34.277-1.7242-5.0897 11.586 3.3997 14.653 13.34 16.05 6.2015 0.87173 7.8553 1.9254 13.356-0.82811 6.8663-0.77629 10.46-4.0313 11.133-7.0155 0.72384-3.2126-1.8228-3.9118-3.5522-6.4826z" stroke-linecap="round" stroke-linejoin="round" stroke-width="1.0157"/> <g transform="rotate(54.845 83.772 7.2837)"> <path d="m112-34.461 7.1259 7.6807c1.052-0.35699 2.1641-0.61175 3.3241-0.74265 3.1222-0.35231 6.1081 0.22808 8.6175 1.4945l7.2572-7.5794c-1.2153 3.7442-3.7821 6.4639-1.8262 12.612 0.7773 1.3437 1.2931 2.8409 1.4746 4.4491 0.78321 6.941-4.3323 11.921-12.169 11.723-9.1835-0.2318-15.258-1.5992-16.041-8.5401-0.42155-3.7359 1.0313-7.2956 3.6757-9.9253 1.6774-3.4364-0.24054-7.3523-1.4385-11.172z" stroke-linecap="square" stroke-linejoin="round" stroke-width=".59846"/> <path d="m125.55-10.804c-1.1276-1.3827-2.5206-1.2543-3.7969-0.11134-0.0373 0.22281-0.12025 0.45305 0.20222 0.61727 1.4894-0.30824 1.2416 0.71867 1.2665 1.7731 0.22377 0.23324 0.45555 0.24462 0.69537 0.03271 0.0524-1.0315-0.15706-1.9769 1.4513-1.6484 0.1718-0.06684 0.25686-0.25389 0.1815-0.66329z" fill="#fff" stroke-linecap="square" stroke-linejoin="round" stroke-width=".59846"/> <g transform="translate(1.2462 -36.762)"> <g transform="matrix(-.6081 .63451 .63451 .6081 96.616 -86.102)" stroke-width="1.3619"> <path d="m72.045 106.38c-0.914-2.7807 3.6387-3.5209 3.3266-4.4432 0.77605 1.6912-0.57268 4.5111-3.3266 4.4432z" fill="#fff" stroke-linecap="square" stroke-linejoin="round" stroke-width=".68096"/> </g> <circle transform="matrix(-.5842 .81161 .81161 .5842 0 0)" cx="-49.872" cy="109.33" r="1.6476" stroke-linecap="square" stroke-linejoin="round" stroke-width="1.0914"/> </g> <g transform="matrix(-1.0033 -.10777 -.10688 1.003 165.62 -126.56)" fill-rule="evenodd" stroke="#000" stroke-linecap="round" stroke-linejoin="round" stroke-width=".71842"> <path transform="rotate(-40.832 47.762 100.66)" d="m17.036 93.403-6.1681-2.3498"/> <path transform="translate(2.6435 21.515)" d="m17.036 93.403-6.1681-2.3498"/> <path transform="rotate(-19.266 82.607 96.345)" d="m17.036 93.403-6.1681-2.3498"/> </g> <g transform="matrix(-1 0 0 1 246 -36.762)"> <g transform="matrix(-.6081 .63451 .63451 .6081 96.616 -86.102)" stroke-width="1.3619"> <path d="m72.045 106.38c-0.914-2.7807 3.6387-3.5209 3.3266-4.4432 0.77605 1.6912-0.57268 4.5111-3.3266 4.4432z" fill="#fff" stroke-linecap="square" stroke-linejoin="round" stroke-width=".68096"/> </g> <circle transform="matrix(-.5842 .81161 .81161 .5842 0 0)" cx="-49.872" cy="109.33" r="1.6476" stroke-linecap="square" stroke-linejoin="round" stroke-width="1.0914"/> </g> <ellipse cx="123.52" cy="-5.671" rx="2.4502" ry="1.7159"/> <g transform="matrix(1.0033 -.10777 .10688 1.003 81.613 -126.56)" fill-rule="evenodd" stroke="#000" stroke-linecap="round" stroke-linejoin="round" stroke-width=".71842"> <path transform="rotate(-40.832 47.762 100.66)" d="m17.036 93.403-6.1681-2.3498"/> <path transform="translate(2.6435 21.515)" d="m17.036 93.403-6.1681-2.3498"/> <path transform="rotate(-19.266 82.607 96.345)" d="m17.036 93.403-6.1681-2.3498"/> </g> </g> <g transform="translate(55.513)"> <path d="m53.169 70.407c-14.658 0.22344-22.106-0.9309-35.1 8.3081-3.47 2.4672 1.6189 10.177 7.7192 10.177h59.001c6.4212 0 9.5031-10.177 9.5031-10.177-10.504-3.1316-22.84-8.5868-41.123-8.3081z" fill="#bcd35f" stroke-linecap="round" stroke-linejoin="round" stroke-width=".5"/> <path d="m17.446 80.377c3.661-0.95927 7.322-1.9185 10.864-2.3176s6.9648-0.238 9.9381-0.2122c2.9734 0.0258 5.4972-0.0837 8.0211-0.1932" fill="none" stroke="#8a0" stroke-linecap="round" stroke-linejoin="round" stroke-width=".5"/> <path d="m50.211 77.849c4.439 0.67543 8.8781 1.3509 12.797 1.6561 3.9186 0.30524 7.3166 0.24029 10.715 0.17533" fill="none" stroke="#8a0" stroke-linecap="round" stroke-linejoin="round" stroke-width=".5"/> <path d="m77.262 79.754c2.3692 0.47112 4.7385 0.94223 7.4465 0.84222s5.7549-0.77114 8.8017-1.4423" fill="none" stroke="#8a0" stroke-linecap="round" stroke-linejoin="round" stroke-width=".5"/> <path d="m17.291 79.949c-0.18591-0.05605-0.45044 0.24303-0.59325 0.67126-0.06518 0.19553-0.09319 0.38291-0.08689 0.53431l-1.1261 1.6952a0.14909 0.3468 18.82 0 0-0.10678 0.46621 0.14909 0.3468 18.82 0 0 0.23037-0.03906l0.41819-0.6305-0.99371 1.6461a0.1462 0.32302 18.872 0 0-0.07512 0.43084 0.1462 0.32302 18.872 0 0 0.23392-0.07988l0.39281-0.65087-0.06415 0.11835a0.14909 0.3468 18.82 0 0-0.06574 0.45238 0.14909 0.3468 18.82 0 0 0.24566-0.119l0.06813-0.12539-0.24818 0.66528a0.16541 0.2928 18.647 0 0 0.04864 0.34319 0.16541 0.2928 18.647 0 0 0.25376-0.20562l0.16494-0.44193-0.2522 0.79428a0.14909 0.3468 18.82 0 0 0.04154 0.3635 0.14909 0.3468 18.82 0 0 0.25206-0.29892l0.16001-0.50403a0.14909 0.3468 18.82 0 0 0.0801 0.05109 0.14909 0.3468 18.82 0 0 0.24043-0.35856l0.11782-0.50629-0.23039 1.0785a0.14773 0.22277 39.154 0 0 0.13462 0.16333 0.14773 0.22277 39.154 0 0 0.21774-0.22621l0.21442-1.0025a0.14909 0.3468 18.82 0 0 0.04968-0.0097 0.14909 0.3468 18.82 0 0 0.21346-0.36145l-0.04101 0.53992a0.13277 0.36189 18.702 0 0 0.1454 0.1456 0.13277 0.36189 18.702 0 0 0.19359-0.46846l0.1933-2.5504c0.10706-0.12142 0.20874-0.30348 0.28003-0.51724 0.14281-0.42823 0.10785-0.8176-0.07805-0.87365z" color="#000000" fill="#8a0" stroke-linecap="round" stroke-linejoin="round" stroke-width=".90953" style="-inkscape-stroke:none"/> <path d="m93.733 78.523c0.18591-0.05605 0.45044 0.24303 0.59325 0.67126 0.06518 0.19553 0.09319 0.38291 0.08689 0.53431l1.1261 1.6952a0.3468 0.14909 71.18 0 1 0.10678 0.46621 0.3468 0.14909 71.18 0 1-0.23037-0.03906l-0.41819-0.6305 0.99371 1.6461a0.32302 0.1462 71.128 0 1 0.07512 0.43084 0.32302 0.1462 71.128 0 1-0.23392-0.07988l-0.39281-0.65087 0.06415 0.11835a0.3468 0.14909 71.18 0 1 0.06574 0.45238 0.3468 0.14909 71.18 0 1-0.24566-0.119l-0.06813-0.12539 0.24818 0.66528a0.2928 0.16541 71.353 0 1-0.04864 0.34319 0.2928 0.16541 71.353 0 1-0.25376-0.20562l-0.16494-0.44193 0.2522 0.79428a0.3468 0.14909 71.18 0 1-0.04154 0.3635 0.3468 0.14909 71.18 0 1-0.25206-0.29892l-0.16001-0.50403a0.3468 0.14909 71.18 0 1-0.0801 0.05109 0.3468 0.14909 71.18 0 1-0.24043-0.35856l-0.11782-0.50629 0.23039 1.0785a0.22277 0.14773 50.846 0 1-0.13462 0.16333 0.22277 0.14773 50.846 0 1-0.21774-0.22621l-0.21442-1.0025a0.3468 0.14909 71.18 0 1-0.04968-0.0097 0.3468 0.14909 71.18 0 1-0.21346-0.36145l0.04101 0.53992a0.36189 0.13277 71.298 0 1-0.1454 0.1456 0.36189 0.13277 71.298 0 1-0.19359-0.46846l-0.1933-2.5504c-0.10706-0.12142-0.20874-0.30348-0.28003-0.51724-0.14281-0.42823-0.10785-0.8176 0.07805-0.87365z" color="#000000" fill="#8a0" stroke-linecap="round" stroke-linejoin="round" stroke-width=".90953" style="-inkscape-stroke:none"/> <path d="m18.796 81.727c0.57978-4.1622 22.464-2.6677 29.804-2.1808 7.8016 0.57963 14.89 1.7668 26.549 0.93245 9.5121 2.4192 17.516-0.56813 17.845-0.15361 0.88367 1.1117-6.1038 8.9862-7.8404 7.9442l-60.854 0.20769c-2.9412-1.7788-6.8613-3.3592-5.5038-6.75z" fill="#8a0" opacity=".24954"/> </g> <g transform="translate(52.429 11.896)"> <path d="m55.813 47.938c-14.658 0.22344-22.694-3.4275-35.687 5.8115-3.47 2.4672 3.4388 8.8061 5.8101 9.883 4.8364 2.1964 33.859-5.1403 44.678-3.4343 13.702 2.1605 8.0336 1.5184 16.086 3.728 6.1923 1.6993 11.098-8.7279 9.65-10.177-1.5877-1.5888-22.253-6.0902-40.536-5.8115z" fill="#87aade" stroke-linecap="round" stroke-linejoin="round" stroke-width=".5"/> <path transform="translate(2.0104 -24.915)" d="m17.446 80.377c3.661-0.95927 7.322-1.9185 10.864-2.3176s6.9648-0.238 10.215-0.02182c3.2503 0.21618 6.328 0.48745 9.4057 0.75872" fill="none" stroke="#afc6e9" stroke-linecap="round" stroke-linejoin="round" stroke-width=".5"/> <path transform="translate(2.056 -24.966)" d="m48.809 79.043c4.9064 0.27736 9.8127 0.55471 13.965 0.66091 4.1522 0.1062 7.5503 0.04125 10.948-0.02371" fill="none" stroke="#afc6e9" stroke-linecap="round" stroke-linejoin="round" stroke-width=".5"/> <path transform="translate(2.056 -24.966)" d="m74.873 79.754c3.0308 0.06725 6.0616 0.1345 9.1677 0.03449s6.2876-0.36727 9.469-0.63453" fill="none" stroke="#afc6e9" stroke-linecap="round" stroke-linejoin="round" stroke-width=".5"/> <path d="m50.656 54.58c7.8016 0.57963 14.89 1.7668 26.549 0.93245 10.54 0.87717 17.956-0.71499 18.286-0.30047 0.88367 1.1117-4.6352 9.2065-6.3718 8.1645-7.461-1.4313-17.551-5.9741-27.952-4.1566-11.384 1.4068-25.082 4.0888-32.947 3.3331-5.6362-0.54156-8.2968-6.1222-8.3227-6.2328 9.5261-3.7374 20.461-2.6483 30.758-1.7402z" fill="#2c5aa0" opacity=".24954"/> <path transform="translate(2.0839 -26.017)" d="m17.654 80.87c3.4706-1.1064 6.9413-2.2128 10.449-2.6941 3.5073-0.4813 7.0513-0.33752 10.595-0.19374" fill="none" stroke="#afc6e9" stroke-linecap="round" stroke-linejoin="round" stroke-width=".5"/> <path transform="translate(2.056 -26.068)" d="m62.908 79.814c1.7567 0.06888 3.5472 0.13908 5.7369 0.16897s4.76 0.01922 7.2806 0.0087" fill="none" stroke="#afc6e9" stroke-linecap="round" stroke-linejoin="round" stroke-width=".5"/> <path transform="translate(1.9826 -26.215)" d="m77.198 80.035c2.3201 0.04487 4.6402 0.08974 7.2487 0.06972s5.5055-0.10494 8.4025-0.18985" fill="none" stroke="#afc6e9" stroke-linecap="round" stroke-linejoin="round" stroke-width=".5"/> <path transform="translate(-1.3952 -26.361)" d="m43.408 78.385c5.1836 0.53262 10.417 1.0703 14.062 1.3435 3.6452 0.2732 5.6685 0.27898 7.6626 0.28468" fill="none" stroke="#afc6e9" stroke-linecap="round" stroke-linejoin="round" stroke-width=".5"/> </g> <g transform="translate(53.229 26.169)"> <path d="m54.598 22.671c-15.185-3.4576-24.864-4.2468-36.259-0.05811-2.6998 0.73108 5.9317 10.823 8.1192 12.237 4.5082 2.9129 26.763-3.9989 41.628 0.66255 13.235 4.1505 10.986 2.4503 19.304 2.9923 6.4076 0.41751 9.1307-8.0351 7.8845-9.6605-0.46301-0.60386-6.3762 2.3289-10.305 0.89593-7.6688-2.7968-18.582-4.3848-30.371-7.069z" fill="#ddafe9" stroke-linecap="round" stroke-linejoin="round" stroke-width=".5"/> <path d="m54.819 28.545c-15.185-3.4576-24.147-6.168-35.946-6.018-4.2574 0.05413 5.398 10.909 7.5854 12.322 4.5082 2.9129 26.763-3.9989 41.628 0.66255 13.235 4.1505 10.986 2.4503 19.304 2.9923 6.4076 0.41751 9.1307-8.0351 7.8845-9.6605-0.46301-0.60386-6.2023 2.7323-10.379 2.952-9.6514 0.5076-18.288-0.56639-30.077-3.2506z" fill="#bf8ccd" stroke-linecap="round" stroke-linejoin="round" stroke-width=".5"/> <path d="m18.88 24.094c8.2185-1.7377 16.207 0.90801 22.91 3.3411 7.1576 2.5978 27.199 6.5331 25.544 7.1206-0.84993 0.30168-7.1884-1.842-10.788-1.5685-10.086 0.76627-26.746 1.8176-26.746 1.8176-5.6978-0.04166-10.382-8.7983-10.92-10.711z" fill="#672178" opacity=".24954"/> <path d="m71.676 35.659c5.506 2.52 13.175 2.8369 17.99 1.7623 3.8598-0.86133 4.3632-5.2457 5.3604-7.343-6.1348 4.0048-5.3564 8.4538-23.351 5.5807z" fill="#672178" opacity=".24954"/> </g> <g transform="translate(55.513)"> <path d="m58.416 38.613c22.694-0.58324 24.503-6.6628 35.133 9.6555 2.3239 3.5675 2.7099 5.68-4.6995 7.4892 0 0-13.01 3.6076-33.974-2.8908-9.3108-2.8863-28.818-4.9727-28.818-4.9727-6.3277-1.0919-7.9212-10.717-7.9212-10.717 10.848-1.5699 22 1.9054 40.279 1.4357z" fill="#fffc80" stroke-linecap="round" stroke-linejoin="round" stroke-width=".5"/> <path d="m94.667 51.509c-10.01-5.2303-24.113-6.2752-31.446-6.8614-7.8029-0.56175-14.729-1.2234-26.324-2.8108-10.594-0.081025-18.452-4.8538-18.36-4.3323 1.4043 7.9809 5.9648 9.5692 7.9843 9.7201 17.489 1.3067 35.77 7.6726 43.214 8.326 17.673 1.5512 22.771-0.12218 24.932-4.0415z" fill="#ffd42a" opacity=".24954"/> <path transform="matrix(-.98936 -.14551 -.14551 .98936 122.88 -26.98)" d="m16.738 81.671c3.3104-0.90026 6.6207-1.8005 11.225-2.2338s10.503-0.3995 16.669-0.19172 12.6 0.58958 19.392 0.94132 13.944 0.67342 18.935 0.47451c4.9905-0.19891 7.8197-0.91842 10.649-1.6379" fill="none" stroke="#ffd42a" stroke-linecap="round" stroke-linejoin="round" stroke-width=".5"/> <path transform="matrix(.36053 0 0 .36053 -20.596 22.249)" d="m110.83 44.414-0.18424 0.47084-1.4442 0.21841-0.69564 0.11078-0.44356-0.50806-0.52057-0.61061-0.35354-0.41797-0.0864-0.45886-0.39888-1.1936 1.3546-0.58143-0.79909-0.25177 0.84069-1.3787 1.1856-0.49933 0.22296 0.40205 1.2338 0.07062-0.39718 0.42131 1.526 0.06899 0.24877 0.56084 0.0412 0.53803 0.75201 0.57811-0.65022-0.14675 0.80201 0.96159-0.16391 0.49728-0.52031 0.72148-1.3552 0.09125z" fill="url(#a)"/> <path transform="matrix(0 .36053 -.36053 0 39.294 -.26092)" d="m110.83 44.414-0.18424 0.47084-1.4442 0.21841-0.69564 0.11078-0.44356-0.50806-0.52057-0.61061-0.35354-0.41797-0.0864-0.45886-0.39888-1.1936 1.3546-0.58143-0.79909-0.25177 0.84069-1.3787 1.1856-0.49933 0.22296 0.40205 1.2338 0.07062-0.39718 0.42131 1.526 0.06899 0.24877 0.56084 0.0412 0.53803 0.75201 0.57811-0.65022-0.14675 0.80201 0.96159-0.16391 0.49728-0.52031 0.72148-1.3552 0.09125z" fill="url(#a)"/> <path transform="matrix(0 -.36053 .36053 0 13.804 80.167)" d="m110.83 44.414-0.18424 0.47084-1.4442 0.21841-0.69564 0.11078-0.44356-0.50806-0.52057-0.61061-0.35354-0.41797-0.0864-0.45886-0.39888-1.1936 1.3546-0.58143-0.79909-0.25177 0.84069-1.3787 1.1856-0.49933 0.22296 0.40205 1.2338 0.07062-0.39718 0.42131 1.526 0.06899 0.24877 0.56084 0.0412 0.53803 0.75201 0.57811-0.65022-0.14675 0.80201 0.96159-0.16391 0.49728-0.52031 0.72148-1.3552 0.09125z" fill="url(#a)"/> <path transform="matrix(0 .36053 -.36053 0 48.744 1.8679)" d="m110.83 44.414-0.18424 0.47084-1.4442 0.21841-0.69564 0.11078-0.44356-0.50806-0.52057-0.61061-0.35354-0.41797-0.0864-0.45886-0.39888-1.1936 1.3546-0.58143-0.79909-0.25177 0.84069-1.3787 1.1856-0.49933 0.22296 0.40205 1.2338 0.07062-0.39718 0.42131 1.526 0.06899 0.24877 0.56084 0.0412 0.53803 0.75201 0.57811-0.65022-0.14675 0.80201 0.96159-0.16391 0.49728-0.52031 0.72148-1.3552 0.09125z" fill="url(#a)"/> <path transform="matrix(0 -.36053 -.36053 0 54.04 81.828)" d="m110.83 44.414-0.18424 0.47084-1.4442 0.21841-0.69564 0.11078-0.44356-0.50806-0.52057-0.61061-0.35354-0.41797-0.0864-0.45886-0.39888-1.1936 1.3546-0.58143-0.79909-0.25177 0.84069-1.3787 1.1856-0.49933 0.22296 0.40205 1.2338 0.07062-0.39718 0.42131 1.526 0.06899 0.24877 0.56084 0.0412 0.53803 0.75201 0.57811-0.65022-0.14675 0.80201 0.96159-0.16391 0.49728-0.52031 0.72148-1.3552 0.09125z" fill="url(#a)"/> <path transform="matrix(0 -.36053 .36053 0 28.447 82.14)" d="m110.83 44.414-0.18424 0.47084-1.4442 0.21841-0.69564 0.11078-0.44356-0.50806-0.52057-0.61061-0.35354-0.41797-0.0864-0.45886-0.39888-1.1936 1.3546-0.58143-0.79909-0.25177 0.84069-1.3787 1.1856-0.49933 0.22296 0.40205 1.2338 0.07062-0.39718 0.42131 1.526 0.06899 0.24877 0.56084 0.0412 0.53803 0.75201 0.57811-0.65022-0.14675 0.80201 0.96159-0.16391 0.49728-0.52031 0.72148-1.3552 0.09125z" fill="url(#a)"/> <path transform="matrix(-.36053 0 0 .36053 88.389 27.701)" d="m110.83 44.414-0.18424 0.47084-1.4442 0.21841-0.69564 0.11078-0.44356-0.50806-0.52057-0.61061-0.35354-0.41797-0.0864-0.45886-0.39888-1.1936 1.3546-0.58143-0.79909-0.25177 0.84069-1.3787 1.1856-0.49933 0.22296 0.40205 1.2338 0.07062-0.39718 0.42131 1.526 0.06899 0.24877 0.56084 0.0412 0.53803 0.75201 0.57811-0.65022-0.14675 0.80201 0.96159-0.16391 0.49728-0.52031 0.72148-1.3552 0.09125z" fill="url(#a)"/> <path transform="matrix(.36053 0 0 .36053 14.867 28.428)" d="m110.83 44.414-0.18424 0.47084-1.4442 0.21841-0.69564 0.11078-0.44356-0.50806-0.52057-0.61061-0.35354-0.41797-0.0864-0.45886-0.39888-1.1936 1.3546-0.58143-0.79909-0.25177 0.84069-1.3787 1.1856-0.49933 0.22296 0.40205 1.2338 0.07062-0.39718 0.42131 1.526 0.06899 0.24877 0.56084 0.0412 0.53803 0.75201 0.57811-0.65022-0.14675 0.80201 0.96159-0.16391 0.49728-0.52031 0.72148-1.3552 0.09125z" fill="url(#a)"/> <path transform="matrix(.36053 0 0 .36053 19.955 28.947)" d="m110.83 44.414-0.18424 0.47084-1.4442 0.21841-0.69564 0.11078-0.44356-0.50806-0.52057-0.61061-0.35354-0.41797-0.0864-0.45886-0.39888-1.1936 1.3546-0.58143-0.79909-0.25177 0.84069-1.3787 1.1856-0.49933 0.22296 0.40205 1.2338 0.07062-0.39718 0.42131 1.526 0.06899 0.24877 0.56084 0.0412 0.53803 0.75201 0.57811-0.65022-0.14675 0.80201 0.96159-0.16391 0.49728-0.52031 0.72148-1.3552 0.09125z" fill="url(#a)"/> <path transform="matrix(0 -.36053 -.36053 0 79.586 84.217)" d="m110.83 44.414-0.18424 0.47084-1.4442 0.21841-0.69564 0.11078-0.44356-0.50806-0.52057-0.61061-0.35354-0.41797-0.0864-0.45886-0.39888-1.1936 1.3546-0.58143-0.79909-0.25177 0.84069-1.3787 1.1856-0.49933 0.22296 0.40205 1.2338 0.07062-0.39718 0.42131 1.526 0.06899 0.24877 0.56084 0.0412 0.53803 0.75201 0.57811-0.65022-0.14675 0.80201 0.96159-0.16391 0.49728-0.52031 0.72148-1.3552 0.09125z" fill="url(#a)"/> <path transform="matrix(-.36053 0 0 -.36053 109.05 60.356)" d="m110.83 44.414-0.18424 0.47084-1.4442 0.21841-0.69564 0.11078-0.44356-0.50806-0.52057-0.61061-0.35354-0.41797-0.0864-0.45886-0.39888-1.1936 1.3546-0.58143-0.79909-0.25177 0.84069-1.3787 1.1856-0.49933 0.22296 0.40205 1.2338 0.07062-0.39718 0.42131 1.526 0.06899 0.24877 0.56084 0.0412 0.53803 0.75201 0.57811-0.65022-0.14675 0.80201 0.96159-0.16391 0.49728-0.52031 0.72148-1.3552 0.09125z" fill="url(#a)"/> <path transform="matrix(.36053 0 0 .36053 35.948 30.713)" d="m110.83 44.414-0.18424 0.47084-1.4442 0.21841-0.69564 0.11078-0.44356-0.50806-0.52057-0.61061-0.35354-0.41797-0.0864-0.45886-0.39888-1.1936 1.3546-0.58143-0.79909-0.25177 0.84069-1.3787 1.1856-0.49933 0.22296 0.40205 1.2338 0.07062-0.39718 0.42131 1.526 0.06899 0.24877 0.56084 0.0412 0.53803 0.75201 0.57811-0.65022-0.14675 0.80201 0.96159-0.16391 0.49728-0.52031 0.72148-1.3552 0.09125z" fill="url(#a)"/> <path transform="matrix(0 .36053 .36053 0 65.935 7.2679)" d="m110.83 44.414-0.18424 0.47084-1.4442 0.21841-0.69564 0.11078-0.44356-0.50806-0.52057-0.61061-0.35354-0.41797-0.0864-0.45886-0.39888-1.1936 1.3546-0.58143-0.79909-0.25177 0.84069-1.3787 1.1856-0.49933 0.22296 0.40205 1.2338 0.07062-0.39718 0.42131 1.526 0.06899 0.24877 0.56084 0.0412 0.53803 0.75201 0.57811-0.65022-0.14675 0.80201 0.96159-0.16391 0.49728-0.52031 0.72148-1.3552 0.09125z" fill="url(#a)"/> <path transform="matrix(0 -.36053 .36053 0 72.477 88.163)" d="m110.83 44.414-0.18424 0.47084-1.4442 0.21841-0.69564 0.11078-0.44356-0.50806-0.52057-0.61061-0.35354-0.41797-0.0864-0.45886-0.39888-1.1936 1.3546-0.58143-0.79909-0.25177 0.84069-1.3787 1.1856-0.49933 0.22296 0.40205 1.2338 0.07062-0.39718 0.42131 1.526 0.06899 0.24877 0.56084 0.0412 0.53803 0.75201 0.57811-0.65022-0.14675 0.80201 0.96159-0.16391 0.49728-0.52031 0.72148-1.3552 0.09125z" fill="url(#a)"/> <path transform="matrix(-.36053 0 0 -.36053 133.98 66.899)" d="m110.83 44.414-0.18424 0.47084-1.4442 0.21841-0.69564 0.11078-0.44356-0.50806-0.52057-0.61061-0.35354-0.41797-0.0864-0.45886-0.39888-1.1936 1.3546-0.58143-0.79909-0.25177 0.84069-1.3787 1.1856-0.49933 0.22296 0.40205 1.2338 0.07062-0.39718 0.42131 1.526 0.06899 0.24877 0.56084 0.0412 0.53803 0.75201 0.57811-0.65022-0.14675 0.80201 0.96159-0.16391 0.49728-0.52031 0.72148-1.3552 0.09125z" fill="url(#a)"/> <path d="m19.938 37.177c2.0769 0.41539 40.557 3.3036 47.769 3.1154 7.8187-0.204 19.081-0.71147 18.908-1.1727 6.4301-3.5994 7.6413-7.781 8.2994-13.989 0.57161-5.3916-13.965 5.1601-19.422 6.3294-7.6856 1.6466-11.481 2.7401-16.668 3.4091-5.1923 0.66974-29.106-10.883-30.787-10.777-7.1625 0.45037-13.916 6.2394-12.501 7.9045z" fill="#ffd5d5"/> <path transform="matrix(-.98936 -.14551 -.14551 .98936 100.75 -36.814)" d="m62.961 72.303c1.643 0.70429 3.2861 1.4086 5.0379 2.6692 1.7519 1.2606 3.6125 3.0775 5.4732 4.8943" fill="none" stroke="#ffa3a3" stroke-dasharray="2.99999, 2.99999" stroke-linecap="round" stroke-linejoin="round" stroke-width=".5"/> <path transform="matrix(-.98936 -.14551 -.14551 .98936 98.232 -38.549)" d="m31.282 80.009c2.4429-0.09678 4.8858-0.19355 7.6497-0.51833 2.764-0.32478 5.849-0.87757 9.3898-1.9114 3.5408-1.0338 7.5373-2.5487 11.534-4.0635" fill="none" stroke="#ffa3a3" stroke-dasharray="2.99999, 2.99999" stroke-linecap="round" stroke-linejoin="round" stroke-width=".5"/> <path transform="rotate(-8.3668 -246.98 -149.44)" d="m28.649 78.611c5.8623-0.18904 11.725-0.37808 17.751-1.3452s12.218-2.7122 18.409-4.4574" fill="none" stroke="#ffa3a3" stroke-dasharray="2.99999, 2.99999" stroke-linecap="round" stroke-linejoin="round" stroke-width=".5"/> <path d="m29.739 27.022c9.9865 6.0947 24.041 10.066 28.638 9.6928 22.018-1.7897 34.452-11.256 35.425-10.421 1.7684 1.5173-3.5036 11.759-7.9624 12.33-22.139 2.8386-46.143-0.6456-65.573-1.8358-1.8267-1.9362-3.0403-3.3967-3.8918-4.5527 6.9427-5.2302 12.255-5.8904 13.364-5.2136z" fill="#faa" opacity=".60259"/> </g> <path d="m115.93 26.793c0.17499 3.6192 0.42541 4.8656-2.6765 14.16-1.132 3.3918-1.3654 5.1748-1.9203 8.3777 0.0434 3.9783-0.73684 6.1457-1.6919 6.7351-4.323 2.6675-5.4259-4.2937-2.5222-5.4039 1.6438-4.0205 1.5062-5.087 0.30594-9.547l-3.8071-9.7932c1.2975-2.7614 8.2533-10.268 12.312-4.5283z"/> <path transform="matrix(-.53106 .52097 -.52031 -.53085 162.11 23.838)" d="m102.92 50.676c-0.1501-1.5251-0.91808-2.9805-2.0924-3.9651-1.1743-0.98465-2.7413-1.4871-4.2692-1.369-1.2579 0.09726-2.4705 0.60233-3.4732 1.3681-1.0027 0.76573-1.7994 1.7849-2.3701 2.9101-1.1414 2.2503-1.3725 4.8594-1.2427 7.3793s0.59781 5.0117 0.77152 7.529 0.03604 5.1221-0.986 7.4291c-1.1065 2.4977-3.2528 4.5152-5.8141 5.4652-2.5613 0.95002-5.5041 0.82012-7.9717-0.35191" fill="none" stroke="#000" stroke-linecap="round" stroke-linejoin="round" stroke-width="5.6873"/> </g> </svg>