<?xml version='1.0' encoding='utf-8'?>
<svg xmlns:xlink="http://www.w3.org/1999/xlink" xmlns="http://www.w3.org/2000/svg" width="138.8mm" height="213.39mm" version="1.1" viewBox="0 0 138.8 213.39"> <defs> <radialGradient id="c" cx="115.62" cy="115.33" r="111.33" gradientTransform="matrix(.26458 0 0 .26458 8.1899 89.75)" gradientUnits="userSpaceOnUse"> <stop stop-color="#00AEEF" stop-opacity=".2" offset=".7261"/> <stop stop-color="#00749c" stop-opacity=".53873" offset=".99543"/> </radialGradient> <filter id="b" x="-.10627" y="-.11396" width="1.2125" height="1.2279" color-interpolation-filters="sRGB"> <feGaussianBlur stdDeviation="0.73666263"/> </filter> <radialGradient id="a" cx="122.28" cy="132.54" r="111.33" gradientTransform="matrix(.29886 -.0017581 .0017506 .29758 89.385 -2.303)" gradientUnits="userSpaceOnUse" xlink:href="#c"/> </defs> <g transform="translate(-425.98 -44.585)"> <g transform="translate(370.09 -16.448)"> <path transform="matrix(-1.9219 -.69749 -.81163 2.2364 406.03 195.55)" d="m94.79 43.723c-0.50383-0.43879-0.80683-1.0997-0.81048-1.7678-0.0036-0.66811 0.29211-1.3323 0.79113-1.7765 0.49901-0.44427 1.1929-0.66122 1.8561-0.58031 0.66321 0.08091 1.2846 0.45832 1.6622 1.0095 0.2433 0.3552 0.38588 0.77358 0.44693 1.1998 0.06105 0.42619 0.04278 0.86082-0.01674 1.2872-0.11903 0.8528-0.40072 1.6751-0.54513 2.524-0.3629 2.1333 0.19296 4.4072 1.4991 6.1325" fill="none" stroke="#000" stroke-linecap="round" stroke-linejoin="round" stroke-width="2.8128"/> <path d="m169 219.02c6.7 9.2104 12.087 33.481 5.4917 46.881-17.983 9.5592-27.77 5.3541-38.292-2.4017 0 0-4.4124-36.107 13.032-46.543 5.1991-3.1103 16.204-2.8354 19.768 2.0632z" stroke-linecap="round" stroke-linejoin="round" stroke-width="2.0445"/> <path d="m164.55 269.55s1.2428-32.274 13.177-32.796c9.8685-0.43154 3.1979 19.694 0.44797 24.079 6.3028-0.51774 12.044 8.7868 6.7842 8.7096-13.239-0.19422-20.409 7e-3 -20.409 7e-3z"/> <path d="m149.3 269.07s-1.2428-32.274-13.177-32.796c-9.8685-0.43154-3.1979 19.694-0.44798 24.079-6.3028-0.51774-12.044 8.7868-6.7842 8.7096 13.239-0.19422 20.409 7e-3 20.409 7e-3z"/> <path d="m165.13 266.68c-3.0429 0.0736-5.4663 1.9094-5.4128 4.1001 2e-3 0.0858 0.01 0.16628 0.0195 0.24422l-0.91091 1.7036 1.6022-0.59873c0.32417 0.195 0.74616 0.303 1.2419 0.35672l0.86416 1.834 0.51803-1.7919c0.22261-4e-3 0.45858-0.0122 0.69402-0.0217l0.90286 1.9165 0.56931-1.9698c0.0872-2e-3 0.17063-7e-3 0.25847-9e-3 0.1648-4e-3 0.32614-6e-3 0.48616-8e-3l0.7909 1.6786 0.48894-1.6914c0.31189-4e-3 0.61757-9e-3 0.89678-0.0237l0.83093 1.7641 0.56672-1.9606c0.77559-0.23076 1.2232-0.70463 1.1992-1.6904-0.0535-2.1906-2.5635-3.9069-5.6064-3.8332z" stroke-linecap="square" stroke-linejoin="round" stroke-width=".54016"/> <path d="m145.72 266.68c3.0429 0.0736 5.4663 1.9094 5.4128 4.1001-2e-3 0.0858-0.01 0.16628-0.0195 0.24422l0.91091 1.7036-1.6022-0.59873c-0.32417 0.195-0.74616 0.303-1.2419 0.35672l-0.86416 1.834-0.51803-1.7919c-0.22261-4e-3 -0.45858-0.0122-0.69402-0.0217l-0.90286 1.9165-0.56931-1.9698c-0.0872-2e-3 -0.17063-7e-3 -0.25847-9e-3 -0.1648-4e-3 -0.32614-6e-3 -0.48616-8e-3l-0.7909 1.6786-0.48893-1.6914c-0.3119-4e-3 -0.61758-9e-3 -0.89679-0.0237l-0.83093 1.7641-0.56672-1.9606c-0.77559-0.23076-1.2232-0.70463-1.1992-1.6904 0.0535-2.1906 2.5635-3.9069 5.6064-3.8332z" stroke-linecap="square" stroke-linejoin="round" stroke-width=".54016"/> <g transform="rotate(-15.078 163.08 203.3)"> <path d="m134.83 166.26 14.313 11.158c5.2582-2.106 13.659-3.0704 25.715 2.2144l12.906-11.817c-3.8487 10.135-3.6908 16.847-2.2707 26.858 2.1641 12.921-6.9242 22.768-21.633 23.192-17.235 0.4977-28.757-1.4469-30.921-14.368-1.1648-6.9544 0.41715-12.571 3.5839-17.8 3.9348-6.4974 0.93383-12.405-1.6934-19.438z" stroke-linecap="square" stroke-linejoin="round" stroke-width="1.0223"/> <g transform="matrix(-1.4191 -.10899 -.11 1.4183 189.91 58.485)" stroke-width="1.4368"> <g transform="rotate(-13.594 -77.289 193.84)" fill-rule="evenodd" stroke="#000" stroke-linecap="round" stroke-linejoin="round" stroke-width=".71842"> <path transform="rotate(-40.832 47.762 100.66)" d="m17.036 93.403-6.1681-2.3498"/> <path transform="translate(2.6435 21.515)" d="m17.036 93.403-6.1681-2.3498"/> <path transform="rotate(-19.266 82.607 96.345)" d="m17.036 93.403-6.1681-2.3498"/> </g> </g> <g transform="matrix(1.4024 -.24247 .24119 1.4021 81.705 36.263)" fill-rule="evenodd" stroke="#000" stroke-linecap="round" stroke-linejoin="round" stroke-width=".71842"> <path transform="rotate(-40.832 47.762 100.66)" d="m17.036 93.403-6.1681-2.3498"/> <path transform="translate(2.6435 21.515)" d="m17.036 93.403-6.1681-2.3498"/> <path transform="rotate(-19.266 82.607 96.345)" d="m17.036 93.403-6.1681-2.3498"/> </g> <path d="m161.66 194.15c-2.4623-2.8677-5.3443-2.527-7.8956-0.0463-0.0582 0.47284-0.21062 0.964 0.47377 1.2953 3.0666-0.726 2.6412 1.4578 2.7849 3.6863 0.48508 0.48213 0.96744 0.49467 1.4471 0.0336 0.0189-2.184-0.49838-4.1728 2.8707-3.558 0.3506-0.15103 0.51135-0.5497 0.31919-1.4117z" fill="#fff" stroke-linecap="square" stroke-linejoin="round" stroke-width="1.0223"/> <g transform="matrix(.62035 0 0 .62035 297.17 101.39)" stroke-linejoin="round"> <ellipse transform="rotate(38.626)" cx="-98.412" cy="257.45" rx="9.525" ry="11.112" fill="#f9f9f9" fill-opacity=".99471" stroke-linecap="round" stroke-width="10"/> <g transform="matrix(1.4827 0 0 1.4827 54.715 17.855)" stroke-linecap="square"> <ellipse transform="matrix(.99978 -.021003 .02077 .99978 0 0)" cx="-196.66" cy="76.2" rx="4.3835" ry="4.3853" stroke-width=".56308"/> <circle transform="rotate(-22.884)" cx="-207.64" cy="-2.9188" r="1.0268" fill="#fff" stroke-width="1.8833"/> </g> </g> <g transform="matrix(-.62035 0 0 .62035 18.303 101.39)" stroke-linejoin="round"> <ellipse transform="rotate(38.626)" cx="-98.412" cy="257.45" rx="9.525" ry="11.112" fill="#f9f9f9" fill-opacity=".99471" stroke-linecap="round" stroke-width="10"/> <g transform="matrix(1.4827 0 0 1.4827 54.715 17.855)" stroke-linecap="square"> <ellipse transform="matrix(.99978 -.021003 .02077 .99978 0 0)" cx="-196.66" cy="76.2" rx="4.3835" ry="4.3853" stroke-width=".56308"/> <circle transform="rotate(-22.884)" cx="-207.64" cy="-2.9188" r="1.0268" fill="#fff" stroke-width="1.8833"/> </g> </g> <g transform="translate(-123.01 -13.494)" fill="none" stroke="#fff" stroke-linecap="round" stroke-linejoin="round" stroke-width=".613"> <path transform="translate(218.86 190.98)" d="m61.912 22.49v3.9687"/> <path transform="translate(218.86 190.98)" d="m57.86 25.399c1.1855 0.7423 2.5742 1.1564 3.9726 1.1846 1.5465 0.03119 3.0993-0.412 4.3964-1.2548"/> </g> </g> <g transform="translate(20.267 4.9933)"> <path transform="matrix(1.4183 -1.2202 1.4199 1.6504 -155.99 291.47)" d="m103.63 35.55c-1.2464 0.30244-2.4109 0.93603-3.3418 1.8183-0.93094 0.88227-1.6261 2.0111-1.9949 3.2395-0.4849 1.6148-0.40366 3.3498-0.11494 5.011 0.63755 3.6682 2.2827 7.156 4.7079 9.981" fill="none" stroke="#000" stroke-linecap="round" stroke-linejoin="round" stroke-width="3.653"/> <path d="m88.715 218.22c6.1311 8.4284 11.061 30.638 5.0254 42.901-16.456 8.7475-25.412 4.8995-35.04-2.1978 0 0-4.0378-33.041 11.926-42.591 4.7577-2.8462 14.829-2.5947 18.089 1.888z" stroke-linecap="round" stroke-linejoin="round" stroke-width="1.8709"/> <path d="m84.642 264.46s1.1373-29.534 12.058-30.011c9.0306-0.3949 2.9264 18.022 0.40994 22.035 5.7676-0.47377 11.021 8.0407 6.2082 7.9701-12.115-0.17767-18.676 6e-3 -18.676 6e-3z"/> <path d="m70.684 264.02s-1.1373-29.534-12.058-30.011c-9.0306-0.39489-2.9264 18.022-0.40994 22.035-5.7676-0.47377-11.021 8.0407-6.2082 7.9701 12.115-0.17768 18.676 6e-3 18.676 6e-3z"/> <path d="m85.175 261.83c-2.7845 0.0675-5.0022 1.7473-4.9532 3.752 0.0017 0.0785 0.0088 0.15206 0.01788 0.22348l-0.83357 1.559 1.4661-0.5479c0.29664 0.17841 0.68281 0.27728 1.1365 0.32643l0.79079 1.6783 0.47404-1.6397c0.20371-4e-3 0.41964-0.0111 0.6351-0.0199l0.8262 1.7538 0.52097-1.8026c0.07979-2e-3 0.15615-6e-3 0.23652-7e-3 0.1508-4e-3 0.29845-6e-3 0.44488-7e-3l0.72375 1.5361 0.44742-1.5478c0.28541-4e-3 0.56514-9e-3 0.82064-0.0217l0.76038 1.6143 0.51861-1.7941c0.70974-0.21116 1.1194-0.64481 1.0973-1.5468-0.04893-2.0046-2.3459-3.5752-5.1304-3.5078z" stroke-linecap="square" stroke-linejoin="round" stroke-width=".4943"/> <path d="m67.415 261.83c2.7845 0.0675 5.0022 1.7473 4.9532 3.752-0.0017 0.0785-0.0088 0.15206-0.01788 0.22348l0.83357 1.559-1.4661-0.5479c-0.29664 0.17841-0.68281 0.27728-1.1365 0.32643l-0.79079 1.6783-0.47404-1.6397c-0.20371-4e-3 -0.41964-0.0111-0.6351-0.0199l-0.82619 1.7538-0.52097-1.8026c-0.07979-2e-3 -0.15615-6e-3 -0.23653-7e-3 -0.1508-4e-3 -0.29845-6e-3 -0.44488-7e-3l-0.72375 1.5361-0.44742-1.5478c-0.28541-4e-3 -0.56514-9e-3 -0.82064-0.0217l-0.76038 1.6143-0.51861-1.7941c-0.70974-0.21116-1.1194-0.64481-1.0973-1.5468 0.04893-2.0046 2.3459-3.5752 5.1304-3.5078z" stroke-linecap="square" stroke-linejoin="round" stroke-width=".4943"/> <path d="m54.316 196.45 15.876 4.8749c3.8094-3.515 10.678-7.0783 22.71-6.49l7.1828-14.312c0.0132 9.9207 2.3363 15.608 6.8141 23.705 6.0626 10.342 1.5018 21.725-10.936 26.883-14.575 6.0444-25.061 8.1377-31.123-2.2048-3.2631-5.5666-3.7415-10.885-2.7385-16.388 1.2463-6.8384-3.2455-10.911-7.7847-16.068z" stroke-linecap="square" stroke-linejoin="round" stroke-width=".93547"/> <g transform="matrix(-1.249 .36945 .36832 1.2486 66.273 86.346)" stroke-width="1.4368"> <g transform="rotate(-13.594 -77.289 193.84)" fill-rule="evenodd" stroke="#000" stroke-linecap="round" stroke-linejoin="round" stroke-width=".71842"> <path transform="rotate(-40.832 47.762 100.66)" d="m17.036 93.403-6.1681-2.3498"/> <path transform="translate(2.6435 21.515)" d="m17.036 93.403-6.1681-2.3498"/> <path transform="rotate(-19.266 82.607 96.345)" d="m17.036 93.403-6.1681-2.3498"/> </g> </g> <g transform="matrix(1.1201 -.66451 .66332 1.1202 -33.492 102.62)" fill-rule="evenodd" stroke="#000" stroke-linecap="round" stroke-linejoin="round" stroke-width=".71842"> <path transform="rotate(-40.832 47.762 100.66)" d="m17.036 93.403-6.1681-2.3498"/> <path transform="translate(2.6435 21.515)" d="m17.036 93.403-6.1681-2.3498"/> <path transform="rotate(-19.266 82.607 96.345)" d="m17.036 93.403-6.1681-2.3498"/> </g> <path d="m86.349 211.56c-3.0403-1.6493-5.3935-0.4184-6.7663 2.5344 0.10439 0.42326 0.13418 0.89293 0.82737 0.95306 2.3854-1.6205 2.7337 0.38547 3.583 2.2441 0.57196 0.25411 0.98848 0.10757 1.2483-0.44301-0.69582-1.8736-1.7865-3.4055 1.2947-3.9782 0.25054-0.24346 0.25802-0.63671-0.18729-1.3111z" fill="#fff" stroke-linecap="square" stroke-linejoin="round" stroke-width=".93547"/> <g transform="matrix(.53043 -.20224 .20224 .53043 174.1 86.527)" stroke-linejoin="round"> <ellipse transform="rotate(38.626)" cx="-98.412" cy="257.45" rx="9.525" ry="11.112" fill="#f9f9f9" fill-opacity=".99471" stroke-linecap="round" stroke-width="10"/> <g transform="matrix(1.4827 0 0 1.4827 54.715 17.855)" stroke-linecap="square"> <ellipse transform="matrix(.99978 -.021003 .02077 .99978 0 0)" cx="-196.66" cy="76.2" rx="4.3835" ry="4.3853" stroke-width=".56308"/> <circle transform="rotate(-22.884)" cx="-208.52" cy="-3.7635" r="1.0268" fill="#fff" stroke-width="1.8833"/> </g> </g> <g transform="rotate(-20.617 195.73 753.32)" fill="none" stroke="#fff" stroke-linecap="round" stroke-linejoin="round" stroke-width=".613"> <path transform="translate(218.86 190.98)" d="m61.912 22.49v3.9687"/> <path transform="translate(218.86 190.98)" d="m57.86 25.399c1.1855 0.7423 2.5742 1.1564 3.9726 1.1846 1.5465 0.03119 3.0993-0.412 4.3964-1.2548"/> </g> <g transform="matrix(.53043 -.20224 .20224 .53043 185.48 82.782)" stroke-linejoin="round"> <ellipse transform="rotate(38.626)" cx="-98.412" cy="257.45" rx="9.525" ry="11.112" fill="#f9f9f9" fill-opacity=".99471" stroke-linecap="round" stroke-width="10"/> <g transform="matrix(1.4827 0 0 1.4827 54.715 17.855)" stroke-linecap="square"> <ellipse transform="matrix(.99978 -.021003 .02077 .99978 0 0)" cx="-196.66" cy="76.2" rx="4.3835" ry="4.3853" stroke-width=".56308"/> <circle transform="rotate(-22.884)" cx="-209.15" cy="-4.1201" r="1.0268" fill="#fff" stroke-width="1.8833"/> </g> </g> </g> <g transform="matrix(.28142 0 0 .28142 56.053 124.34)"> <circle class="st0" cx="124.39" cy="32.362" r="29.448" fill="url(#a)"/> <path d="m118.89 10.312c-0.6562 8.7873-6.0938 13.526-14.346 15.224-7.3175 1.5058 4.3609-17.6 14.346-15.224z" fill="#eef5ff" filter="url(#b)" opacity=".50633" style="mix-blend-mode:normal"/> </g> <g transform="matrix(.39703 0 0 .39703 46.629 95.984)"> <circle class="st0" cx="124.39" cy="32.362" r="29.448" fill="url(#a)"/> <path d="m118.89 10.312c-0.6562 8.7873-6.0938 13.526-14.346 15.224-7.3175 1.5058 4.3609-17.6 14.346-15.224z" fill="#eef5ff" filter="url(#b)" opacity=".50633" style="mix-blend-mode:normal"/> </g> <g transform="matrix(.66294 0 0 .66294 30.817 134.56)"> <circle class="st0" cx="124.39" cy="32.362" r="29.448" fill="url(#a)"/> <path d="m118.89 10.312c-0.6562 8.7873-6.0938 13.526-14.346 15.224-7.3175 1.5058 4.3609-17.6 14.346-15.224z" fill="#eef5ff" filter="url(#b)" opacity=".50633" style="mix-blend-mode:normal"/> </g> <g transform="matrix(.25252 0 0 .25252 73.837 76.728)"> <circle class="st0" cx="124.39" cy="32.362" r="29.448" fill="url(#a)"/> <path d="m118.89 10.312c-0.6562 8.7873-6.0938 13.526-14.346 15.224-7.3175 1.5058 4.3609-17.6 14.346-15.224z" fill="#eef5ff" filter="url(#b)" opacity=".50633" style="mix-blend-mode:normal"/> </g> <g transform="matrix(.44328 0 0 .44328 63.1 106.28)"> <circle class="st0" cx="124.39" cy="32.362" r="29.448" fill="url(#a)"/> <path d="m118.89 10.312c-0.6562 8.7873-6.0938 13.526-14.346 15.224-7.3175 1.5058 4.3609-17.6 14.346-15.224z" fill="#eef5ff" filter="url(#b)" opacity=".50633" style="mix-blend-mode:normal"/> </g> <g transform="matrix(.37391 0 0 .37391 67.455 82.714)"> <circle class="st0" cx="124.39" cy="32.362" r="29.448" fill="url(#a)"/> <path d="m118.89 10.312c-0.6562 8.7873-6.0938 13.526-14.346 15.224-7.3175 1.5058 4.3609-17.6 14.346-15.224z" fill="#eef5ff" filter="url(#b)" opacity=".50633" style="mix-blend-mode:normal"/> </g> <g transform="matrix(.13691 0 0 .13691 93.005 63.374)"> <circle class="st0" cx="124.39" cy="32.362" r="29.448" fill="url(#a)"/> <path d="m118.89 10.312c-0.6562 8.7873-6.0938 13.526-14.346 15.224-7.3175 1.5058 4.3609-17.6 14.346-15.224z" fill="#eef5ff" filter="url(#b)" opacity=".50633" style="mix-blend-mode:normal"/> </g> <g transform="matrix(.16003 0 0 .16003 97.308 71.515)"> <circle class="st0" cx="124.39" cy="32.362" r="29.448" fill="url(#a)"/> <path d="m118.89 10.312c-0.6562 8.7873-6.0938 13.526-14.346 15.224-7.3175 1.5058 4.3609-17.6 14.346-15.224z" fill="#eef5ff" filter="url(#b)" opacity=".50633" style="mix-blend-mode:normal"/> </g> <g transform="matrix(.10223 0 0 .10223 105.18 60.736)"> <circle class="st0" cx="124.39" cy="32.362" r="29.448" fill="url(#a)"/> <path d="m118.89 10.312c-0.6562 8.7873-6.0938 13.526-14.346 15.224-7.3175 1.5058 4.3609-17.6 14.346-15.224z" fill="#eef5ff" filter="url(#b)" opacity=".50633" style="mix-blend-mode:normal"/> </g> <g transform="matrix(.16003 0 0 .16003 62.093 114.94)"> <circle class="st0" cx="124.39" cy="32.362" r="29.448" fill="url(#a)"/> <path d="m118.89 10.312c-0.6562 8.7873-6.0938 13.526-14.346 15.224-7.3175 1.5058 4.3609-17.6 14.346-15.224z" fill="#eef5ff" filter="url(#b)" opacity=".50633" style="mix-blend-mode:normal"/> </g> <g transform="matrix(.37391 0 0 .37391 93.209 125.91)"> <circle class="st0" cx="124.39" cy="32.362" r="29.448" fill="url(#a)"/> <path d="m118.89 10.312c-0.6562 8.7873-6.0938 13.526-14.346 15.224-7.3175 1.5058 4.3609-17.6 14.346-15.224z" fill="#eef5ff" filter="url(#b)" opacity=".50633" style="mix-blend-mode:normal"/> </g> <g transform="matrix(.37391 0 0 .37391 50.009 171.61)"> <circle class="st0" cx="124.39" cy="32.362" r="29.448" fill="url(#a)"/> <path d="m118.89 10.312c-0.6562 8.7873-6.0938 13.526-14.346 15.224-7.3175 1.5058 4.3609-17.6 14.346-15.224z" fill="#eef5ff" filter="url(#b)" opacity=".50633" style="mix-blend-mode:normal"/> </g> <g transform="matrix(.21622 0 0 .21622 66.735 149.26)"> <circle class="st0" cx="124.39" cy="32.362" r="29.448" fill="url(#a)"/> <path d="m118.89 10.312c-0.6562 8.7873-6.0938 13.526-14.346 15.224-7.3175 1.5058 4.3609-17.6 14.346-15.224z" fill="#eef5ff" filter="url(#b)" opacity=".50633" style="mix-blend-mode:normal"/> </g> <g transform="matrix(.16003 0 0 .16003 120.25 151.07)"> <circle class="st0" cx="124.39" cy="32.362" r="29.448" fill="url(#a)"/> <path d="m118.89 10.312c-0.6562 8.7873-6.0938 13.526-14.346 15.224-7.3175 1.5058 4.3609-17.6 14.346-15.224z" fill="#eef5ff" filter="url(#b)" opacity=".50633" style="mix-blend-mode:normal"/> </g> </g> </g> <style type="text/css">.st0{fill:url(#c);stroke:#231F20;stroke-miterlimit:10;} .st1{fill:url(#d);}</style> </svg>