<?xml version='1.0' encoding='utf-8'?>
<svg xmlns="http://www.w3.org/2000/svg" width="200mm" height="200mm" version="1.1" viewBox="0 0 200 200"> <defs> <clipPath id="a"> <rect x="5" y="22.846" width="200" height="200" fill="#f4d7d7" fill-opacity=".99216"/> </clipPath> </defs> <g transform="translate(-5 -22.846)"> <g clip-path="url(#a)"> <rect x="5" y="22.846" width="200" height="200" fill="none"/> <g transform="matrix(1.3997 0 0 1.3997 92.695 101.49)" stroke-linejoin="round"> <g transform="matrix(.73016 0 0 .73016 -6.5245 -40.024)"> <path d="m105.69 63.4 8.2016 11.118c1.4313-0.31222 2.9261-0.48162 4.4654-0.48162 4.1432 0 7.9698 1.202 11.071 3.2324l10.63-8.8584c-2.146 4.7265-5.9114 7.9106-4.2576 16.256 0.81983 1.8756 1.2743 3.9137 1.2743 6.0477 0 9.2107-7.4392 14.98-17.679 13.562-11.999-1.6615-19.756-4.3513-19.756-13.562 0-4.9575 2.43-9.407 6.2839-12.462 2.706-4.2547 0.77189-9.6694-0.23306-14.852z" stroke-linecap="square" stroke-width=".68478"/> <path transform="matrix(-1 0 0 -1.1636 213.49 118.49)" d="m93.11 23.938c-1.5232 2.9026-2.2108 6.2378-1.9598 9.5061 0.25102 3.2684 1.4398 6.4594 3.3884 9.0954 1.4692 1.9874 3.3783 3.6992 4.3554 5.9693 0.92359 2.1457 0.89687 4.6806-0.07175 6.8064s-2.864 3.8092-5.0892 4.5201" fill="none" stroke="#000" stroke-linecap="round" stroke-width="5.0784"/> <path d="m132.77 97.615c-3.1093 0-5.6299 1.814-5.6299 4.0516 0 0.0877 6e-3 0.16998 0.0139 0.24979l-0.97271 1.7166 1.6511-0.57158c0.32619 0.20707 0.75445 0.32775 1.2594 0.39484l0.83682 1.8936 0.57368-1.8163c0.22743 2e-3 0.46862-1e-3 0.70931-5e-3l0.87426 1.9787 0.63049-1.9967c0.0891-5.1e-4 0.17441-3e-3 0.26419-3e-3 0.16841 0 0.33322 2e-3 0.4967 4e-3l0.76586 1.7331 0.54147-1.7145c0.31861 4e-3 0.63092 6e-3 0.91642-2e-3l0.80461 1.8213 0.62761-1.9873c0.79782-0.2164 1.2668-0.68906 1.2668-1.6959 0-2.2376-2.5206-4.0516-5.6299-4.0516z" stroke-linecap="square" stroke-width=".68478"/> <g transform="matrix(1.1589 0 0 1.1589 29.714 -27.988)" stroke-linecap="square" stroke-width=".59089"> <path d="m75.633 102.44c5e-6 2.5525-2.2027 4.6217-4.9198 4.6217s-4.9198-2.0692-4.9198-4.6217c2e-6 -2.5525 2.4715-2.5607 5.1887-2.5607 2.7171 0 4.651 1.6211 4.651 2.5607z" fill="#fff"/> <circle cx="68.477" cy="105.34" r="1.028"/> </g> <path d="m116.61 96.431c1.1599-2.0469 2.9991-2.1882 4.9111-0.98477 0.0977 0.28138 0.25655 0.56232-0.12631 0.84716-2.0043-0.07116-1.4549 1.2089-1.254 2.585-0.23929 0.35271-0.53806 0.41878-0.89671 0.19628-0.29632-1.3293-0.23322-2.6046-2.2513-1.8217-0.23812-0.04887-0.39008-0.27323-0.3827-0.82208z" fill="#fff" stroke-linecap="square" stroke-width=".68478"/> <path d="m105.91 97.221c3.1093 0 5.6299 1.814 5.6299 4.0516 0 0.0877-6e-3 0.16998-0.0139 0.24979l0.97271 1.7166-1.6511-0.57158c-0.32619 0.20707-0.75445 0.32775-1.2594 0.39484l-0.83682 1.8936-0.57368-1.8163c-0.22743 2e-3 -0.46862-1e-3 -0.7093-5e-3l-0.87426 1.9787-0.6305-1.9967c-0.0891-5.1e-4 -0.17441-3e-3 -0.26419-3e-3 -0.16841 0-0.33321 2e-3 -0.4967 4e-3l-0.76586 1.7331-0.54147-1.7145c-0.3186 4e-3 -0.63092 6e-3 -0.91641-2e-3l-0.80462 1.8213-0.62761-1.9873c-0.79781-0.2164-1.2668-0.68906-1.2668-1.6959 0-2.2376 2.5206-4.0516 5.6299-4.0516z" stroke-linecap="square" stroke-width=".68478"/> <g transform="matrix(-1.1589 0 0 1.1589 208.59 -27.988)" stroke-linecap="square" stroke-width=".59089"> <path d="m75.633 102.44c5e-6 2.5525-2.2027 4.6217-4.9198 4.6217s-4.9198-2.0692-4.9198-4.6217c2e-6 -2.5525 2.4715-2.5607 5.1887-2.5607 2.7171 0 4.651 1.6211 4.651 2.5607z" fill="#fff"/> <circle cx="73.102" cy="105.21" r="1.028"/> </g> </g> <g transform="matrix(.73016 0 0 .73016 55.385 -55.577)" fill-rule="evenodd" stroke="#000" stroke-linecap="round" stroke-width=".68478"> <path transform="rotate(-40.832 47.762 100.66)" d="m17.036 93.403-6.1681-2.3498"/> <path transform="translate(2.6435 21.515)" d="m17.036 93.403-6.1681-2.3498"/> <path transform="rotate(-19.266 82.607 96.345)" d="m17.036 93.403-6.1681-2.3498"/> </g> <g transform="matrix(-.73016 0 0 .73016 104.49 -54.165)" fill-rule="evenodd" stroke="#000" stroke-linecap="round" stroke-width=".68478"> <path transform="rotate(-40.832 47.762 100.66)" d="m17.036 93.403-6.1681-2.3498"/> <path transform="translate(2.6435 21.515)" d="m17.036 93.403-6.1681-2.3498"/> <path transform="rotate(-19.266 82.607 96.345)" d="m17.036 93.403-6.1681-2.3498"/> </g> </g> <g transform="matrix(1.3997 0 0 1.3997 -151.52 .79453)" stroke-linejoin="round"> <g transform="matrix(.73016 0 0 .73016 -6.5245 -40.024)"> <path transform="rotate(16.358 -3.814 383.76)" d="m63.147 17.279c-0.51361-0.58073-1.2107-0.99674-1.9656-1.1731s-1.5642-0.11216-2.2819 0.18096c-0.71772 0.29312-1.3405 0.8138-1.7562 1.4682-0.41566 0.65442-0.62222 1.4395-0.58244 2.2137 0.03464 0.67439 0.25237 1.3335 0.58975 1.9185s0.79209 1.0976 1.3054 1.5364c1.0266 0.87761 2.2702 1.4551 3.5026 2.0074 1.2325 0.55228 2.4856 1.0988 3.5515 1.9282 0.53293 0.41472 1.0155 0.89939 1.3925 1.4597s0.64639 1.1981 0.7429 1.8664c0.14362 0.9946-0.09627 1.9994-0.31156 2.981-0.21528 0.98159-0.40707 2.0061-0.17046 2.9827 0.26885 1.1098 1.0594 2.0188 1.9148 2.7752 0.85539 0.7564 1.8059 1.4137 2.5584 2.2726 0.85649 0.97759 1.4288 2.2012 1.6302 3.4853 0.20134 1.284 0.03101 2.6241-0.48515 3.817-0.51616 1.1928-1.3764 2.2344-2.4502 2.9666-1.0738 0.73224-2.3576 1.1527-3.6566 1.1976" fill="none" stroke="#000" stroke-linecap="round" stroke-width="5.4782"/> <path d="m143.74 67.461 10.611 7.0823c3.5741-1.7483 9.4098-2.8589 18.133 0.22247l8.4253-8.9518c-2.1674 7.3042-1.7063 12.001-0.18858 18.946 2.1909 8.9463-3.6625 16.319-13.946 17.378-12.05 1.2403-20.224 0.47284-22.415-8.4735-1.1792-4.8152-0.36414-8.8345 1.5816-12.664 2.4177-4.7585 7e-3 -8.7447-2.2014-13.539z" stroke-linecap="square" stroke-width=".68478"/> <g transform="matrix(.12141 -1.1525 1.1525 .12141 42.468 157.34)" stroke-linecap="square" stroke-width=".59089"> <path d="m73.33 100.99c0 2.5525 0.101 6.0696-2.6162 6.0696s-4.9198-2.0692-4.9198-4.6217c2e-6 -2.5525 2.2027-4.6217 4.9198-4.6217s2.6162 0.62126 2.6162 3.1737z" fill="#fff"/> <circle cx="68.326" cy="99.975" r="1.028"/> </g> <g transform="matrix(.068716 -1.1568 1.1568 .068716 33.776 162.92)" stroke-linecap="square" stroke-width=".59089"> <ellipse cx="70.713" cy="102.44" rx="4.9198" ry="4.6217" fill="#fff"/> <circle cx="68.024" cy="104.88" r="1.028"/> </g> <path d="m160.81 93.765c1.8205-1.4902 3.5867-0.95813 4.9354 0.8543-0.0104 0.29768 0.0363 0.61701-0.42357 0.74446-1.8435-0.78983-1.7932 0.60223-2.1026 1.9581-0.35047 0.24256-0.65295 0.19633-0.9071-0.14062 0.20345-1.3467 0.72264-2.5132-1.442-2.5115-0.20442-0.13152-0.26515-0.39561-0.0601-0.90479z" fill="#fff" stroke-linecap="square" stroke-width=".68478"/> <path d="m178.88 98.309c-3.0158-0.75705-5.9022 0.3887-6.447 2.5589-0.0214 0.085-0.0359 0.16624-0.0473 0.24563l-1.3614 1.4281 1.7406-0.15238c0.26595 0.28026 0.65193 0.50161 1.1254 0.68958l0.3506 2.0403 0.99867-1.622c0.22013 0.0573 0.45478 0.11311 0.68918 0.16785l0.36618 2.132 1.0976-1.7832c0.0866 0.0211 0.16992 0.0395 0.25698 0.0614 0.16333 0.0411 0.32269 0.0831 0.48078 0.12477l0.32092 1.8674 0.94262-1.531c0.30801 0.0815 0.61046 0.15944 0.88932 0.2212l0.33691 1.9624 1.0926-1.7747c0.82649-0.0156 1.3964-0.35991 1.6415-1.3364 0.5448-2.1702-1.4583-4.5434-4.474-5.3004z" stroke-linecap="square" stroke-width=".68478"/> <path d="m146.99 97.545c3.0366-0.66875 5.8883 0.56071 6.3696 2.7459 0.0189 0.0857 0.0307 0.16729 0.0401 0.24694l1.3191 1.4672-1.7354-0.20308c-0.27403 0.27238-0.66631 0.48235-1.145 0.65647l-0.40997 2.0292-0.95091-1.6504c-0.22168 0.0509-0.45787 0.0998-0.69377 0.14768l-0.42823 2.1204-1.0452-1.8144c-0.0871 0.0187-0.17098 0.0346-0.25865 0.0539-0.16447 0.0362-0.32499 0.0736-0.48421 0.11074l-0.3752 1.8572-0.89755-1.5579c-0.31028 0.0724-0.61486 0.14156-0.89539 0.19515l-0.39406 1.9517-1.0404-1.8058c-0.82568-0.0397-1.3853-0.40049-1.6018-1.3838-0.48125-2.1852 1.5902-4.4989 4.6268-5.1677z" stroke-linecap="square" stroke-width=".68478"/> </g> <g transform="matrix(.72677 .07029 -.07029 .72677 95.024 -58.214)" fill-rule="evenodd" stroke="#000" stroke-linecap="round" stroke-width=".68478"> <path transform="rotate(-40.832 47.762 100.66)" d="m17.036 93.403-6.1681-2.3498"/> <path transform="translate(2.6435 21.515)" d="m17.036 93.403-6.1681-2.3498"/> <path transform="rotate(-19.266 82.607 96.345)" d="m17.036 93.403-6.1681-2.3498"/> </g> <g transform="matrix(-.70355 -.19535 -.19535 .70355 157.91 -49.34)" fill-rule="evenodd" stroke="#000" stroke-linecap="round" stroke-width=".68478"> <path transform="rotate(-40.832 47.762 100.66)" d="m17.036 93.403-6.1681-2.3498"/> <path transform="translate(2.6435 21.515)" d="m17.036 93.403-6.1681-2.3498"/> <path transform="rotate(-19.266 82.607 96.345)" d="m17.036 93.403-6.1681-2.3498"/> </g> </g> <g transform="matrix(1.3997 0 0 1.3997 48.476 .79453)" stroke-linejoin="round"> <g transform="matrix(.73016 0 0 .73016 -6.5245 -40.024)"> <path transform="rotate(16.358 -3.814 383.76)" d="m63.147 17.279c-0.51361-0.58073-1.2107-0.99674-1.9656-1.1731s-1.5642-0.11216-2.2819 0.18096c-0.71772 0.29312-1.3405 0.8138-1.7562 1.4682-0.41566 0.65442-0.62222 1.4395-0.58244 2.2137 0.03464 0.67439 0.25237 1.3335 0.58975 1.9185s0.79209 1.0976 1.3054 1.5364c1.0266 0.87761 2.2702 1.4551 3.5026 2.0074 1.2325 0.55228 2.4856 1.0988 3.5515 1.9282 0.53293 0.41472 1.0155 0.89939 1.3925 1.4597s0.64639 1.1981 0.7429 1.8664c0.14362 0.9946-0.09627 1.9994-0.31156 2.981-0.21528 0.98159-0.40707 2.0061-0.17046 2.9827 0.26885 1.1098 1.0594 2.0188 1.9148 2.7752 0.85539 0.7564 1.8059 1.4137 2.5584 2.2726 0.85649 0.97759 1.4288 2.2012 1.6302 3.4853 0.20134 1.284 0.03101 2.6241-0.48515 3.817-0.51616 1.1928-1.3764 2.2344-2.4502 2.9666-1.0738 0.73224-2.3576 1.1527-3.6566 1.1976" fill="none" stroke="#000" stroke-linecap="round" stroke-width="5.4782"/> <path d="m143.74 67.461 10.611 7.0823c3.5741-1.7483 9.4098-2.8589 18.133 0.22247l8.4253-8.9518c-2.1674 7.3042-1.7063 12.001-0.18858 18.946 2.1909 8.9463-3.6625 16.319-13.946 17.378-12.05 1.2403-20.224 0.47284-22.415-8.4735-1.1792-4.8152-0.36414-8.8345 1.5816-12.664 2.4177-4.7585 7e-3 -8.7447-2.2014-13.539z" stroke-linecap="square" stroke-width=".68478"/> <g transform="matrix(.12141 -1.1525 1.1525 .12141 42.468 157.34)" stroke-linecap="square" stroke-width=".59089"> <path d="m73.33 100.99c0 2.5525 0.101 6.0696-2.6162 6.0696s-4.9198-2.0692-4.9198-4.6217c2e-6 -2.5525 2.2027-4.6217 4.9198-4.6217s2.6162 0.62126 2.6162 3.1737z" fill="#fff"/> <circle cx="68.326" cy="99.975" r="1.028"/> </g> <g transform="matrix(.068716 -1.1568 1.1568 .068716 33.776 162.92)" stroke-linecap="square" stroke-width=".59089"> <ellipse cx="70.713" cy="102.44" rx="4.9198" ry="4.6217" fill="#fff"/> <circle cx="68.024" cy="104.88" r="1.028"/> </g> <path d="m160.81 93.765c1.8205-1.4902 3.5867-0.95813 4.9354 0.8543-0.0104 0.29768 0.0363 0.61701-0.42357 0.74446-1.8435-0.78983-1.7932 0.60223-2.1026 1.9581-0.35047 0.24256-0.65295 0.19633-0.9071-0.14062 0.20345-1.3467 0.72264-2.5132-1.442-2.5115-0.20442-0.13152-0.26515-0.39561-0.0601-0.90479z" fill="#fff" stroke-linecap="square" stroke-width=".68478"/> <path d="m178.88 98.309c-3.0158-0.75705-5.9022 0.3887-6.447 2.5589-0.0214 0.085-0.0359 0.16624-0.0473 0.24563l-1.3614 1.4281 1.7406-0.15238c0.26595 0.28026 0.65193 0.50161 1.1254 0.68958l0.3506 2.0403 0.99867-1.622c0.22013 0.0573 0.45478 0.11311 0.68918 0.16785l0.36618 2.132 1.0976-1.7832c0.0866 0.0211 0.16992 0.0395 0.25698 0.0614 0.16333 0.0411 0.32269 0.0831 0.48078 0.12477l0.32092 1.8674 0.94262-1.531c0.30801 0.0815 0.61046 0.15944 0.88932 0.2212l0.33691 1.9624 1.0926-1.7747c0.82649-0.0156 1.3964-0.35991 1.6415-1.3364 0.5448-2.1702-1.4583-4.5434-4.474-5.3004z" stroke-linecap="square" stroke-width=".68478"/> <path d="m146.99 97.545c3.0366-0.66875 5.8883 0.56071 6.3696 2.7459 0.0189 0.0857 0.0307 0.16729 0.0401 0.24694l1.3191 1.4672-1.7354-0.20308c-0.27403 0.27238-0.66631 0.48235-1.145 0.65647l-0.40997 2.0292-0.95091-1.6504c-0.22168 0.0509-0.45787 0.0998-0.69377 0.14768l-0.42823 2.1204-1.0452-1.8144c-0.0871 0.0187-0.17098 0.0346-0.25865 0.0539-0.16447 0.0362-0.32499 0.0736-0.48421 0.11074l-0.3752 1.8572-0.89755-1.5579c-0.31028 0.0724-0.61486 0.14156-0.89539 0.19515l-0.39406 1.9517-1.0404-1.8058c-0.82568-0.0397-1.3853-0.40049-1.6018-1.3838-0.48125-2.1852 1.5902-4.4989 4.6268-5.1677z" stroke-linecap="square" stroke-width=".68478"/> </g> <g transform="matrix(.72677 .07029 -.07029 .72677 95.024 -58.214)" fill-rule="evenodd" stroke="#000" stroke-linecap="round" stroke-width=".68478"> <path transform="rotate(-40.832 47.762 100.66)" d="m17.036 93.403-6.1681-2.3498"/> <path transform="translate(2.6435 21.515)" d="m17.036 93.403-6.1681-2.3498"/> <path transform="rotate(-19.266 82.607 96.345)" d="m17.036 93.403-6.1681-2.3498"/> </g> <g transform="matrix(-.70355 -.19535 -.19535 .70355 157.91 -49.34)" fill-rule="evenodd" stroke="#000" stroke-linecap="round" stroke-width=".68478"> <path transform="rotate(-40.832 47.762 100.66)" d="m17.036 93.403-6.1681-2.3498"/> <path transform="translate(2.6435 21.515)" d="m17.036 93.403-6.1681-2.3498"/> <path transform="rotate(-19.266 82.607 96.345)" d="m17.036 93.403-6.1681-2.3498"/> </g> </g> <g transform="matrix(1.3997 0 0 1.3997 -151.52 200.79)" stroke-linejoin="round"> <g transform="matrix(.73016 0 0 .73016 -6.5245 -40.024)"> <path transform="rotate(16.358 -3.814 383.76)" d="m63.147 17.279c-0.51361-0.58073-1.2107-0.99674-1.9656-1.1731s-1.5642-0.11216-2.2819 0.18096c-0.71772 0.29312-1.3405 0.8138-1.7562 1.4682-0.41566 0.65442-0.62222 1.4395-0.58244 2.2137 0.03464 0.67439 0.25237 1.3335 0.58975 1.9185s0.79209 1.0976 1.3054 1.5364c1.0266 0.87761 2.2702 1.4551 3.5026 2.0074 1.2325 0.55228 2.4856 1.0988 3.5515 1.9282 0.53293 0.41472 1.0155 0.89939 1.3925 1.4597s0.64639 1.1981 0.7429 1.8664c0.14362 0.9946-0.09627 1.9994-0.31156 2.981-0.21528 0.98159-0.40707 2.0061-0.17046 2.9827 0.26885 1.1098 1.0594 2.0188 1.9148 2.7752 0.85539 0.7564 1.8059 1.4137 2.5584 2.2726 0.85649 0.97759 1.4288 2.2012 1.6302 3.4853 0.20134 1.284 0.03101 2.6241-0.48515 3.817-0.51616 1.1928-1.3764 2.2344-2.4502 2.9666-1.0738 0.73224-2.3576 1.1527-3.6566 1.1976" fill="none" stroke="#000" stroke-linecap="round" stroke-width="5.4782"/> <path d="m143.74 67.461 10.611 7.0823c3.5741-1.7483 9.4098-2.8589 18.133 0.22247l8.4253-8.9518c-2.1674 7.3042-1.7063 12.001-0.18858 18.946 2.1909 8.9463-3.6625 16.319-13.946 17.378-12.05 1.2403-20.224 0.47284-22.415-8.4735-1.1792-4.8152-0.36414-8.8345 1.5816-12.664 2.4177-4.7585 7e-3 -8.7447-2.2014-13.539z" stroke-linecap="square" stroke-width=".68478"/> <g transform="matrix(.12141 -1.1525 1.1525 .12141 42.468 157.34)" stroke-linecap="square" stroke-width=".59089"> <path d="m73.33 100.99c0 2.5525 0.101 6.0696-2.6162 6.0696s-4.9198-2.0692-4.9198-4.6217c2e-6 -2.5525 2.2027-4.6217 4.9198-4.6217s2.6162 0.62126 2.6162 3.1737z" fill="#fff"/> <circle cx="68.326" cy="99.975" r="1.028"/> </g> <g transform="matrix(.068716 -1.1568 1.1568 .068716 33.776 162.92)" stroke-linecap="square" stroke-width=".59089"> <ellipse cx="70.713" cy="102.44" rx="4.9198" ry="4.6217" fill="#fff"/> <circle cx="68.024" cy="104.88" r="1.028"/> </g> <path d="m160.81 93.765c1.8205-1.4902 3.5867-0.95813 4.9354 0.8543-0.0104 0.29768 0.0363 0.61701-0.42357 0.74446-1.8435-0.78983-1.7932 0.60223-2.1026 1.9581-0.35047 0.24256-0.65295 0.19633-0.9071-0.14062 0.20345-1.3467 0.72264-2.5132-1.442-2.5115-0.20442-0.13152-0.26515-0.39561-0.0601-0.90479z" fill="#fff" stroke-linecap="square" stroke-width=".68478"/> <path d="m178.88 98.309c-3.0158-0.75705-5.9022 0.3887-6.447 2.5589-0.0214 0.085-0.0359 0.16624-0.0473 0.24563l-1.3614 1.4281 1.7406-0.15238c0.26595 0.28026 0.65193 0.50161 1.1254 0.68958l0.3506 2.0403 0.99867-1.622c0.22013 0.0573 0.45478 0.11311 0.68918 0.16785l0.36618 2.132 1.0976-1.7832c0.0866 0.0211 0.16992 0.0395 0.25698 0.0614 0.16333 0.0411 0.32269 0.0831 0.48078 0.12477l0.32092 1.8674 0.94262-1.531c0.30801 0.0815 0.61046 0.15944 0.88932 0.2212l0.33691 1.9624 1.0926-1.7747c0.82649-0.0156 1.3964-0.35991 1.6415-1.3364 0.5448-2.1702-1.4583-4.5434-4.474-5.3004z" stroke-linecap="square" stroke-width=".68478"/> <path d="m146.99 97.545c3.0366-0.66875 5.8883 0.56071 6.3696 2.7459 0.0189 0.0857 0.0307 0.16729 0.0401 0.24694l1.3191 1.4672-1.7354-0.20308c-0.27403 0.27238-0.66631 0.48235-1.145 0.65647l-0.40997 2.0292-0.95091-1.6504c-0.22168 0.0509-0.45787 0.0998-0.69377 0.14768l-0.42823 2.1204-1.0452-1.8144c-0.0871 0.0187-0.17098 0.0346-0.25865 0.0539-0.16447 0.0362-0.32499 0.0736-0.48421 0.11074l-0.3752 1.8572-0.89755-1.5579c-0.31028 0.0724-0.61486 0.14156-0.89539 0.19515l-0.39406 1.9517-1.0404-1.8058c-0.82568-0.0397-1.3853-0.40049-1.6018-1.3838-0.48125-2.1852 1.5902-4.4989 4.6268-5.1677z" stroke-linecap="square" stroke-width=".68478"/> </g> <g transform="matrix(.72677 .07029 -.07029 .72677 95.024 -58.214)" fill-rule="evenodd" stroke="#000" stroke-linecap="round" stroke-width=".68478"> <path transform="rotate(-40.832 47.762 100.66)" d="m17.036 93.403-6.1681-2.3498"/> <path transform="translate(2.6435 21.515)" d="m17.036 93.403-6.1681-2.3498"/> <path transform="rotate(-19.266 82.607 96.345)" d="m17.036 93.403-6.1681-2.3498"/> </g> <g transform="matrix(-.70355 -.19535 -.19535 .70355 157.91 -49.34)" fill-rule="evenodd" stroke="#000" stroke-linecap="round" stroke-width=".68478"> <path transform="rotate(-40.832 47.762 100.66)" d="m17.036 93.403-6.1681-2.3498"/> <path transform="translate(2.6435 21.515)" d="m17.036 93.403-6.1681-2.3498"/> <path transform="rotate(-19.266 82.607 96.345)" d="m17.036 93.403-6.1681-2.3498"/> </g> </g> <g transform="matrix(1.3997 0 0 1.3997 48.476 200.79)" stroke-linejoin="round"> <g transform="matrix(.73016 0 0 .73016 -6.5245 -40.024)"> <path transform="rotate(16.358 -3.814 383.76)" d="m63.147 17.279c-0.51361-0.58073-1.2107-0.99674-1.9656-1.1731s-1.5642-0.11216-2.2819 0.18096c-0.71772 0.29312-1.3405 0.8138-1.7562 1.4682-0.41566 0.65442-0.62222 1.4395-0.58244 2.2137 0.03464 0.67439 0.25237 1.3335 0.58975 1.9185s0.79209 1.0976 1.3054 1.5364c1.0266 0.87761 2.2702 1.4551 3.5026 2.0074 1.2325 0.55228 2.4856 1.0988 3.5515 1.9282 0.53293 0.41472 1.0155 0.89939 1.3925 1.4597s0.64639 1.1981 0.7429 1.8664c0.14362 0.9946-0.09627 1.9994-0.31156 2.981-0.21528 0.98159-0.40707 2.0061-0.17046 2.9827 0.26885 1.1098 1.0594 2.0188 1.9148 2.7752 0.85539 0.7564 1.8059 1.4137 2.5584 2.2726 0.85649 0.97759 1.4288 2.2012 1.6302 3.4853 0.20134 1.284 0.03101 2.6241-0.48515 3.817-0.51616 1.1928-1.3764 2.2344-2.4502 2.9666-1.0738 0.73224-2.3576 1.1527-3.6566 1.1976" fill="none" stroke="#000" stroke-linecap="round" stroke-width="5.4782"/> <path d="m143.74 67.461 10.611 7.0823c3.5741-1.7483 9.4098-2.8589 18.133 0.22247l8.4253-8.9518c-2.1674 7.3042-1.7063 12.001-0.18858 18.946 2.1909 8.9463-3.6625 16.319-13.946 17.378-12.05 1.2403-20.224 0.47284-22.415-8.4735-1.1792-4.8152-0.36414-8.8345 1.5816-12.664 2.4177-4.7585 7e-3 -8.7447-2.2014-13.539z" stroke-linecap="square" stroke-width=".68478"/> <g transform="matrix(.12141 -1.1525 1.1525 .12141 42.468 157.34)" stroke-linecap="square" stroke-width=".59089"> <path d="m73.33 100.99c0 2.5525 0.101 6.0696-2.6162 6.0696s-4.9198-2.0692-4.9198-4.6217c2e-6 -2.5525 2.2027-4.6217 4.9198-4.6217s2.6162 0.62126 2.6162 3.1737z" fill="#fff"/> <circle cx="68.326" cy="99.975" r="1.028"/> </g> <g transform="matrix(.068716 -1.1568 1.1568 .068716 33.776 162.92)" stroke-linecap="square" stroke-width=".59089"> <ellipse cx="70.713" cy="102.44" rx="4.9198" ry="4.6217" fill="#fff"/> <circle cx="68.024" cy="104.88" r="1.028"/> </g> <path d="m160.81 93.765c1.8205-1.4902 3.5867-0.95813 4.9354 0.8543-0.0104 0.29768 0.0363 0.61701-0.42357 0.74446-1.8435-0.78983-1.7932 0.60223-2.1026 1.9581-0.35047 0.24256-0.65295 0.19633-0.9071-0.14062 0.20345-1.3467 0.72264-2.5132-1.442-2.5115-0.20442-0.13152-0.26515-0.39561-0.0601-0.90479z" fill="#fff" stroke-linecap="square" stroke-width=".68478"/> <path d="m178.88 98.309c-3.0158-0.75705-5.9022 0.3887-6.447 2.5589-0.0214 0.085-0.0359 0.16624-0.0473 0.24563l-1.3614 1.4281 1.7406-0.15238c0.26595 0.28026 0.65193 0.50161 1.1254 0.68958l0.3506 2.0403 0.99867-1.622c0.22013 0.0573 0.45478 0.11311 0.68918 0.16785l0.36618 2.132 1.0976-1.7832c0.0866 0.0211 0.16992 0.0395 0.25698 0.0614 0.16333 0.0411 0.32269 0.0831 0.48078 0.12477l0.32092 1.8674 0.94262-1.531c0.30801 0.0815 0.61046 0.15944 0.88932 0.2212l0.33691 1.9624 1.0926-1.7747c0.82649-0.0156 1.3964-0.35991 1.6415-1.3364 0.5448-2.1702-1.4583-4.5434-4.474-5.3004z" stroke-linecap="square" stroke-width=".68478"/> <path d="m146.99 97.545c3.0366-0.66875 5.8883 0.56071 6.3696 2.7459 0.0189 0.0857 0.0307 0.16729 0.0401 0.24694l1.3191 1.4672-1.7354-0.20308c-0.27403 0.27238-0.66631 0.48235-1.145 0.65647l-0.40997 2.0292-0.95091-1.6504c-0.22168 0.0509-0.45787 0.0998-0.69377 0.14768l-0.42823 2.1204-1.0452-1.8144c-0.0871 0.0187-0.17098 0.0346-0.25865 0.0539-0.16447 0.0362-0.32499 0.0736-0.48421 0.11074l-0.3752 1.8572-0.89755-1.5579c-0.31028 0.0724-0.61486 0.14156-0.89539 0.19515l-0.39406 1.9517-1.0404-1.8058c-0.82568-0.0397-1.3853-0.40049-1.6018-1.3838-0.48125-2.1852 1.5902-4.4989 4.6268-5.1677z" stroke-linecap="square" stroke-width=".68478"/> </g> <g transform="matrix(.72677 .07029 -.07029 .72677 95.024 -58.214)" fill-rule="evenodd" stroke="#000" stroke-linecap="round" stroke-width=".68478"> <path transform="rotate(-40.832 47.762 100.66)" d="m17.036 93.403-6.1681-2.3498"/> <path transform="translate(2.6435 21.515)" d="m17.036 93.403-6.1681-2.3498"/> <path transform="rotate(-19.266 82.607 96.345)" d="m17.036 93.403-6.1681-2.3498"/> </g> <g transform="matrix(-.70355 -.19535 -.19535 .70355 157.91 -49.34)" fill-rule="evenodd" stroke="#000" stroke-linecap="round" stroke-width=".68478"> <path transform="rotate(-40.832 47.762 100.66)" d="m17.036 93.403-6.1681-2.3498"/> <path transform="translate(2.6435 21.515)" d="m17.036 93.403-6.1681-2.3498"/> <path transform="rotate(-19.266 82.607 96.345)" d="m17.036 93.403-6.1681-2.3498"/> </g> </g> <g transform="matrix(1.3997 0 0 1.3997 -107.31 101.49)" stroke-linejoin="round"> <g transform="matrix(.73016 0 0 .73016 -6.5245 -40.024)"> <path d="m105.69 63.4 8.2016 11.118c1.4313-0.31222 2.9261-0.48162 4.4654-0.48162 4.1432 0 7.9698 1.202 11.071 3.2324l10.63-8.8584c-2.146 4.7265-5.9114 7.9106-4.2576 16.256 0.81983 1.8756 1.2743 3.9137 1.2743 6.0477 0 9.2107-7.4392 14.98-17.679 13.562-11.999-1.6615-19.756-4.3513-19.756-13.562 0-4.9575 2.43-9.407 6.2839-12.462 2.706-4.2547 0.77189-9.6694-0.23306-14.852z" stroke-linecap="square" stroke-width=".68478"/> <path transform="matrix(-1 0 0 -1.1636 213.49 118.49)" d="m93.11 23.938c-1.5232 2.9026-2.2108 6.2378-1.9598 9.5061 0.25102 3.2684 1.4398 6.4594 3.3884 9.0954 1.4692 1.9874 3.3783 3.6992 4.3554 5.9693 0.92359 2.1457 0.89687 4.6806-0.07175 6.8064s-2.864 3.8092-5.0892 4.5201" fill="none" stroke="#000" stroke-linecap="round" stroke-width="5.0784"/> <path d="m132.77 97.615c-3.1093 0-5.6299 1.814-5.6299 4.0516 0 0.0877 6e-3 0.16998 0.0139 0.24979l-0.97271 1.7166 1.6511-0.57158c0.32619 0.20707 0.75445 0.32775 1.2594 0.39484l0.83682 1.8936 0.57368-1.8163c0.22743 2e-3 0.46862-1e-3 0.70931-5e-3l0.87426 1.9787 0.63049-1.9967c0.0891-5.1e-4 0.17441-3e-3 0.26419-3e-3 0.16841 0 0.33322 2e-3 0.4967 4e-3l0.76586 1.7331 0.54147-1.7145c0.31861 4e-3 0.63092 6e-3 0.91642-2e-3l0.80461 1.8213 0.62761-1.9873c0.79782-0.2164 1.2668-0.68906 1.2668-1.6959 0-2.2376-2.5206-4.0516-5.6299-4.0516z" stroke-linecap="square" stroke-width=".68478"/> <g transform="matrix(1.1589 0 0 1.1589 29.714 -27.988)" stroke-linecap="square" stroke-width=".59089"> <path d="m75.633 102.44c5e-6 2.5525-2.2027 4.6217-4.9198 4.6217s-4.9198-2.0692-4.9198-4.6217c2e-6 -2.5525 2.4715-2.5607 5.1887-2.5607 2.7171 0 4.651 1.6211 4.651 2.5607z" fill="#fff"/> <circle cx="68.477" cy="105.34" r="1.028"/> </g> <path d="m116.61 96.431c1.1599-2.0469 2.9991-2.1882 4.9111-0.98477 0.0977 0.28138 0.25655 0.56232-0.12631 0.84716-2.0043-0.07116-1.4549 1.2089-1.254 2.585-0.23929 0.35271-0.53806 0.41878-0.89671 0.19628-0.29632-1.3293-0.23322-2.6046-2.2513-1.8217-0.23812-0.04887-0.39008-0.27323-0.3827-0.82208z" fill="#fff" stroke-linecap="square" stroke-width=".68478"/> <path d="m105.91 97.221c3.1093 0 5.6299 1.814 5.6299 4.0516 0 0.0877-6e-3 0.16998-0.0139 0.24979l0.97271 1.7166-1.6511-0.57158c-0.32619 0.20707-0.75445 0.32775-1.2594 0.39484l-0.83682 1.8936-0.57368-1.8163c-0.22743 2e-3 -0.46862-1e-3 -0.7093-5e-3l-0.87426 1.9787-0.6305-1.9967c-0.0891-5.1e-4 -0.17441-3e-3 -0.26419-3e-3 -0.16841 0-0.33321 2e-3 -0.4967 4e-3l-0.76586 1.7331-0.54147-1.7145c-0.3186 4e-3 -0.63092 6e-3 -0.91641-2e-3l-0.80462 1.8213-0.62761-1.9873c-0.79781-0.2164-1.2668-0.68906-1.2668-1.6959 0-2.2376 2.5206-4.0516 5.6299-4.0516z" stroke-linecap="square" stroke-width=".68478"/> <g transform="matrix(-1.1589 0 0 1.1589 208.59 -27.988)" stroke-linecap="square" stroke-width=".59089"> <path d="m75.633 102.44c5e-6 2.5525-2.2027 4.6217-4.9198 4.6217s-4.9198-2.0692-4.9198-4.6217c2e-6 -2.5525 2.4715-2.5607 5.1887-2.5607 2.7171 0 4.651 1.6211 4.651 2.5607z" fill="#fff"/> <circle cx="73.102" cy="105.21" r="1.028"/> </g> </g> <g transform="matrix(.73016 0 0 .73016 55.385 -55.577)" fill-rule="evenodd" stroke="#000" stroke-linecap="round" stroke-width=".68478"> <path transform="rotate(-40.832 47.762 100.66)" d="m17.036 93.403-6.1681-2.3498"/> <path transform="translate(2.6435 21.515)" d="m17.036 93.403-6.1681-2.3498"/> <path transform="rotate(-19.266 82.607 96.345)" d="m17.036 93.403-6.1681-2.3498"/> </g> <g transform="matrix(-.73016 0 0 .73016 104.49 -54.165)" fill-rule="evenodd" stroke="#000" stroke-linecap="round" stroke-width=".68478"> <path transform="rotate(-40.832 47.762 100.66)" d="m17.036 93.403-6.1681-2.3498"/> <path transform="translate(2.6435 21.515)" d="m17.036 93.403-6.1681-2.3498"/> <path transform="rotate(-19.266 82.607 96.345)" d="m17.036 93.403-6.1681-2.3498"/> </g> </g> <g transform="translate(-.54224 23.971)"> <g transform="matrix(1.3997 0 0 1.3997 43.182 127.19)" stroke-linejoin="round"> <g transform="matrix(.73016 0 0 .73016 -6.5245 -40.024)"> <path transform="matrix(-1.2797 0 0 1.2283 124.53 -12.716)" d="m69.759 82.683c-0.49391-0.94004-0.70119-2.0283-0.58744-3.0841 0.1214-1.1268 0.5964-2.1905 1.1996-3.15 0.60319-0.95951 1.3354-1.8299 2.0313-2.7244 3.4079-4.3807 6.0261-9.584 6.315-15.127 0.06325-1.2133 0.013-2.4429-0.29388-3.6184s-0.88257-2.2991-1.7622-3.1372c-0.88129-0.83971-2.055-1.3664-3.2682-1.4665s-2.4574 0.227-3.4644 0.91086" fill="none" stroke="#000" stroke-linecap="round" stroke-width="4.3696"/> <path d="m47.614 96.992c-3.1093 0-5.6299 1.814-5.6299 4.0516 0 0.0877 0.0056 0.16998 0.01388 0.24979l-0.97271 1.7166 1.6511-0.57158c0.32619 0.20707 0.75446 0.32775 1.2594 0.39484l0.83682 1.8936 0.57368-1.8163c0.22743 2e-3 0.46862-1e-3 0.70931-5e-3l0.87426 1.9787 0.63049-1.9967c0.08909-5.1e-4 0.17441-3e-3 0.26419-3e-3 0.16841 0 0.33322 2e-3 0.4967 4e-3l0.76586 1.7331 0.54147-1.7145c0.31861 4e-3 0.63092 6e-3 0.91642-2e-3l0.80461 1.8213 0.62761-1.9873c0.79781-0.2164 1.2667-0.68906 1.2667-1.6959 0-2.2376-2.5206-4.0516-5.6299-4.0516z" stroke-linecap="square" stroke-width=".68478"/> <path d="m46.363 62.777-8.2016 11.118c-1.4313-0.31222-2.9261-0.48162-4.4654-0.48162-4.1432 0-7.9698 1.202-11.071 3.2324l-10.63-8.8584c2.146 4.7265 5.9114 7.9106 4.2576 16.256-0.81983 1.8756-1.2743 3.9137-1.2743 6.0477 1e-6 9.2107 7.4393 14.98 17.679 13.562 11.999-1.6615 19.756-4.3513 19.756-13.562 0-4.9575-2.43-9.407-6.2839-12.462-2.706-4.2547-0.77189-9.6694 0.23306-14.852z" stroke-linecap="square" stroke-width=".68478"/> <g transform="matrix(1.1589 0 0 1.1589 -55.44 -28.612)" stroke-linecap="square" stroke-width=".59089"> <ellipse transform="scale(1,-1)" cx="70.713" cy="-102.44" rx="4.9198" ry="4.6217" fill="#fff"/> <circle cx="73.356" cy="104.83" r="1.028"/> </g> <g transform="matrix(.77821 .85872 -.85872 .77821 71.778 -51.662)" stroke-linecap="square" stroke-width=".59089"> <ellipse cx="70.713" cy="102.44" rx="4.9198" ry="4.6217" fill="#fff"/> <circle cx="74.497" cy="102.42" r="1.028"/> </g> <path d="m31.46 95.808c1.1599-2.0469 2.9991-2.1882 4.9111-0.98477 0.09771 0.28138 0.25655 0.56232-0.1263 0.84716-2.0043-0.07116-1.4549 1.2089-1.2541 2.585-0.23929 0.35271-0.53806 0.41878-0.8967 0.19628-0.29632-1.3293-0.23323-2.6046-2.2513-1.8217-0.23812-0.04887-0.39008-0.27323-0.3827-0.82208z" fill="#fff" stroke-linecap="square" stroke-width=".68478"/> <path d="m20.755 96.597c3.1093 0 5.6299 1.814 5.6299 4.0516 0 0.0877-0.0056 0.16998-0.01388 0.24979l0.97271 1.7166-1.6511-0.57158c-0.32619 0.20707-0.75446 0.32775-1.2594 0.39484l-0.83682 1.8936-0.57368-1.8163c-0.22743 2e-3 -0.46862-1e-3 -0.70931-5e-3l-0.87426 1.9787-0.63049-1.9967c-0.08909-5.1e-4 -0.17441-3e-3 -0.26419-3e-3 -0.16841 0-0.33322 2e-3 -0.4967 4e-3l-0.76586 1.7331-0.54147-1.7145c-0.31861 4e-3 -0.63092 6e-3 -0.91642-2e-3l-0.80461 1.8213-0.62761-1.9873c-0.79781-0.2164-1.2667-0.68906-1.2667-1.6959 0-2.2376 2.5206-4.0516 5.6299-4.0516z" stroke-linecap="square" stroke-width=".68478"/> </g> <g transform="matrix(.73016 0 0 .73016 -6.7926 -53.964)" fill-rule="evenodd" stroke="#000" stroke-linecap="round" stroke-width=".68478"> <path transform="rotate(-40.832 47.762 100.66)" d="m17.036 93.403-6.1681-2.3498"/> <path transform="translate(2.6435 21.515)" d="m17.036 93.403-6.1681-2.3498"/> <path transform="rotate(-19.266 82.607 96.345)" d="m17.036 93.403-6.1681-2.3498"/> </g> <g transform="matrix(-.73016 0 0 .73016 41.847 -54.822)" fill-rule="evenodd" stroke="#000" stroke-linecap="round" stroke-width=".68478"> <path transform="rotate(-40.832 47.762 100.66)" d="m17.036 93.403-6.1681-2.3498"/> <path transform="translate(2.6435 21.515)" d="m17.036 93.403-6.1681-2.3498"/> <path transform="rotate(-19.266 82.607 96.345)" d="m17.036 93.403-6.1681-2.3498"/> </g> </g> <g transform="matrix(1.3997 0 0 1.3997 -.029736 28.3)"> <g transform="matrix(.73016 0 0 .73016 -6.5245 -40.024)" stroke-linejoin="round"> <path transform="translate(-10.855 9.5085)" d="m86.541 46.955c-0.78124 0.63511-1.8346 0.92325-2.8303 0.77426-0.72442-0.1084-1.4121-0.441-1.9543-0.93354-0.54216-0.49254-0.93783-1.1422-1.1373-1.8471s-0.20328-1.4624-0.02173-2.1721c0.18155-0.70963 0.547-1.37 1.0438-1.9083 0.99352-1.0766 2.5049-1.6279 3.9663-1.5254s2.853 0.83367 3.8308 1.9245c0.84363 0.94113 1.3868 2.1348 1.6155 3.3778 0.28485 1.5487 0.0909 3.1599-0.38429 4.6611-0.47518 1.5012-1.2237 2.9024-2.0558 4.2392-1.6642 2.6737-3.6989 5.169-4.7561 8.1355-1.3862 3.8898-0.8845 8.4051 1.3217 11.896" fill="none" stroke="#000" stroke-linecap="round" stroke-width="5.4782"/> <path d="m93.213 67.461-10.611 7.0823c-3.5741-1.7483-9.4098-2.8589-18.133 0.22247l-8.4253-8.9518c2.1674 7.3042 1.7063 12.001 0.18858 18.946-2.1909 8.9463 3.6625 16.319 13.946 17.378 12.05 1.2403 20.224 0.47284 22.415-8.4735 1.1792-4.8152 0.36414-8.8345-1.5816-12.664-2.4177-4.7585-7e-3 -8.7447 2.2014-13.539z" stroke-linecap="square" stroke-width=".68478"/> <g transform="matrix(.013824 -1.1588 1.1588 .013824 -50.512 168.68)" stroke-linecap="square" stroke-width=".59089"> <path d="m74.368 101.55c0 2.5525-0.93756 5.5027-3.6547 5.5027s-4.9198-2.0692-4.9198-4.6217c2e-6 -2.5525 2.2027-4.6217 4.9198-4.6217s3.6547 1.1881 3.6547 3.7406z" fill="#fff"/> <circle cx="71.962" cy="105.59" r="1.028"/> </g> <path d="m72.599 94.256c1.4796-1.8291 3.3171-1.6671 5.0061-0.1666 0.05028 0.29359 0.16093 0.59676-0.26343 0.815-1.9656-0.39867-1.6334 0.95411-1.6607 2.3446-0.29386 0.30873-0.59942 0.32494-0.91675 0.04667-0.07446-1.3599 0.19677-2.6076-1.9223-2.166-0.22689-0.08723-0.34003-0.33346-0.2428-0.87368z" fill="#fff" stroke-linecap="square" stroke-width=".68478"/> <path d="m88.817 97.048c-2.9757 0.90174-4.8619 3.3688-4.213 5.5102 0.02544 0.0839 0.05465 0.16104 0.08572 0.23502l-0.43308 1.9249 1.4144-1.0259c0.37222 0.10357 0.81708 0.0949 1.3198 0.0126l1.35 1.5695 0.02226-1.9046c0.21824-0.0641 0.44819-0.13689 0.67737-0.21049l1.4105 1.6401 0.0243-2.0938c0.0851-0.0264 0.16605-0.0535 0.25197-0.0795 0.16117-0.0488 0.31947-0.0947 0.47649-0.14025l1.2356 1.4365 0.021-1.7978c0.30607-0.0885 0.60553-0.17722 0.87644-0.26767l1.2982 1.5097 0.0243-2.0839c0.70076-0.43848 1.0125-1.0268 0.72047-1.9904-0.64891-2.1414-3.5873-3.1465-6.563-2.2448z" stroke-linecap="square" stroke-width=".68478"/> <path d="m64.993 96.909c3.1093 0 5.6299 1.814 5.6299 4.0516 0 0.0877-0.0056 0.16998-0.01388 0.24979l0.97271 1.7166-1.6511-0.57158c-0.32619 0.20707-0.75446 0.32775-1.2594 0.39484l-0.83682 1.8936-0.57368-1.8163c-0.22743 2e-3 -0.46862-1e-3 -0.70931-5e-3l-0.87426 1.9787-0.63049-1.9967c-0.08909-5.1e-4 -0.17441-3e-3 -0.26419-3e-3 -0.16841 0-0.33322 2e-3 -0.4967 4e-3l-0.76586 1.7331-0.54147-1.7145c-0.31861 4e-3 -0.63092 6e-3 -0.91642-2e-3l-0.80461 1.8213-0.62761-1.9873c-0.79781-0.2164-1.2667-0.68906-1.2667-1.6959 0-2.2376 2.5206-4.0516 5.6299-4.0516z" stroke-linecap="square" stroke-width=".68478"/> <g transform="matrix(.013824 -1.1588 1.1588 .013824 -38.881 168.68)" stroke-linecap="square" stroke-width=".59089"> <path d="m74.368 101.55c0 2.5525-0.93756 5.5027-3.6547 5.5027s-4.9198-2.0692-4.9198-4.6217c2e-6 -2.5525 2.2027-4.6217 4.9198-4.6217s3.6547 1.1881 3.6547 3.7406z" fill="#fff"/> <circle cx="71.962" cy="105.59" r="1.028"/> </g> </g> <g transform="matrix(.73016 0 0 .73016 39.475 -42.618)" stroke-width="1.3696"> <g transform="rotate(-13.594 -77.289 193.84)" fill-rule="evenodd" stroke="#000" stroke-linecap="round" stroke-linejoin="round" stroke-width=".68478"> <path transform="rotate(-40.832 47.762 100.66)" d="m17.036 93.403-6.1681-2.3498"/> <path transform="translate(2.6435 21.515)" d="m17.036 93.403-6.1681-2.3498"/> <path transform="rotate(-19.266 82.607 96.345)" d="m17.036 93.403-6.1681-2.3498"/> </g> </g> <g transform="matrix(-.72554 .082021 .082021 .72554 62.986 -59.288)" fill-rule="evenodd" stroke="#000" stroke-linecap="round" stroke-linejoin="round" stroke-width=".68478"> <path transform="rotate(-40.832 47.762 100.66)" d="m17.036 93.403-6.1681-2.3498"/> <path transform="translate(2.6435 21.515)" d="m17.036 93.403-6.1681-2.3498"/> <path transform="rotate(-19.266 82.607 96.345)" d="m17.036 93.403-6.1681-2.3498"/> </g> </g> <g transform="matrix(1.3997 0 0 1.3997 -62.369 28.411)" stroke-linejoin="round"> <g transform="matrix(.73016 0 0 .73016 -6.5245 -40.024)"> <path transform="matrix(1 0 0 1.2355 111.91 12.178)" d="m85.84 38.178c-0.33295-1.0194-0.39589-2.1257-0.1807-3.1764 0.3655-1.7846 1.5556-3.3792 3.1543-4.2524 1.5987-0.87326 3.5755-1.0145 5.288-0.39365 1.2292 0.44562 2.311 1.2631 3.1307 2.2817s1.3818 2.2333 1.6968 3.5022c0.62993 2.5379 0.27576 5.2316-0.47742 7.7357s-1.8923 4.8716-2.8704 7.2968c-0.9781 2.4251-1.8054 4.9583-1.8846 7.5721-0.04978 1.6421 0.20032 3.2928 0.7343 4.8464" fill="none" stroke="#000" stroke-linecap="round" stroke-width="4.9285"/> <path d="m223.94 96.784c-3.1093 0-5.6299 1.814-5.6299 4.0516 0 0.0877 6e-3 0.16998 0.0139 0.24979l-0.97271 1.7166 1.6511-0.57158c0.32619 0.20707 0.75445 0.32775 1.2594 0.39484l0.83682 1.8936 0.57368-1.8163c0.22743 2e-3 0.46862-1e-3 0.7093-5e-3l0.87427 1.9787 0.63049-1.9967c0.0891-5.1e-4 0.17441-3e-3 0.26419-3e-3 0.16841 0 0.33321 2e-3 0.4967 4e-3l0.76586 1.7331 0.54147-1.7145c0.31861 4e-3 0.63092 6e-3 0.91641-2e-3l0.80462 1.8213 0.62761-1.9873c0.79781-0.2164 1.2668-0.68906 1.2668-1.6959 0-2.2376-2.5206-4.0516-5.6299-4.0516z" stroke-linecap="square" stroke-width=".68478"/> <path d="m222.69 62.569-8.2016 11.118c-1.4313-0.31222-2.9261-0.48162-4.4654-0.48162-4.1432 0-7.9698 1.202-11.071 3.2324l-10.63-8.8584c2.146 4.7265 5.9114 7.9106 4.2576 16.256-0.81983 1.8756-1.2743 3.9137-1.2743 6.0477 0 9.2107 7.4392 14.98 17.679 13.562 11.999-1.6615 19.756-4.3513 19.756-13.562 0-4.9575-2.43-9.407-6.2838-12.462-2.706-4.2547-0.77189-9.6694 0.23306-14.852z" stroke-linecap="square" stroke-width=".68478"/> <g transform="matrix(1.1589 0 0 1.1589 120.89 -28.819)" stroke-linecap="square" stroke-width=".59089"> <ellipse cx="70.713" cy="102.44" rx="4.9198" ry="4.6217" fill="#fff"/> <circle cx="66.944" cy="102.73" r="1.028"/> </g> <g transform="matrix(.77821 .85872 -.85872 .77821 248.11 -51.87)" stroke-linecap="square" stroke-width=".59089"> <ellipse cx="70.713" cy="102.44" rx="4.9198" ry="4.6217" fill="#fff"/> <circle cx="68.235" cy="104.63" r="1.028"/> </g> <path d="m207.79 95.601c1.1599-2.0469 2.9991-2.1882 4.9111-0.98477 0.0977 0.28138 0.25655 0.56232-0.12631 0.84716-2.0043-0.07116-1.4549 1.2089-1.254 2.585-0.23929 0.35271-0.53806 0.41878-0.89671 0.19628-0.29632-1.3293-0.23322-2.6046-2.2513-1.8217-0.23812-0.04887-0.39008-0.27323-0.3827-0.82208z" fill="#fff" stroke-linecap="square" stroke-width=".68478"/> <path d="m197.09 96.39c3.1093 0 5.6299 1.814 5.6299 4.0516 0 0.0877-6e-3 0.16998-0.0139 0.24979l0.97271 1.7166-1.6511-0.57158c-0.32619 0.20707-0.75445 0.32775-1.2594 0.39484l-0.83682 1.8936-0.57368-1.8163c-0.22743 2e-3 -0.46862-1e-3 -0.7093-5e-3l-0.87427 1.9787-0.63049-1.9967c-0.0891-5.1e-4 -0.17441-3e-3 -0.26419-3e-3 -0.16841 0-0.33321 2e-3 -0.4967 4e-3l-0.76586 1.7331-0.54147-1.7145c-0.31861 4e-3 -0.63092 6e-3 -0.91641-2e-3l-0.80462 1.8213-0.62761-1.9873c-0.79781-0.2164-1.2668-0.68906-1.2668-1.6959 0-2.2376 2.5206-4.0516 5.6299-4.0516z" stroke-linecap="square" stroke-width=".68478"/> </g> <g transform="matrix(.72553 -.082167 .082167 .72553 112.3 -52.531)" fill-rule="evenodd" stroke="#000" stroke-linecap="round" stroke-width=".68478"> <path transform="rotate(-40.832 47.762 100.66)" d="m17.036 93.403-6.1681-2.3498"/> <path transform="translate(2.6435 21.515)" d="m17.036 93.403-6.1681-2.3498"/> <path transform="rotate(-19.266 82.607 96.345)" d="m17.036 93.403-6.1681-2.3498"/> </g> <g transform="matrix(-.72606 .077295 .077295 .72606 162.68 -59.273)" fill-rule="evenodd" stroke="#000" stroke-linecap="round" stroke-width=".68478"> <path transform="rotate(-40.832 47.762 100.66)" d="m17.036 93.403-6.1681-2.3498"/> <path transform="translate(2.6435 21.515)" d="m17.036 93.403-6.1681-2.3498"/> <path transform="rotate(-19.266 82.607 96.345)" d="m17.036 93.403-6.1681-2.3498"/> </g> </g> <g transform="matrix(-1.3997 0 0 1.3997 167.18 127.19)" stroke-linejoin="round"> <g transform="matrix(.73016 0 0 .73016 -6.5245 -40.024)"> <path transform="matrix(-1.2797 0 0 1.2283 124.53 -12.716)" d="m69.759 82.683c-0.49391-0.94004-0.70119-2.0283-0.58744-3.0841 0.1214-1.1268 0.5964-2.1905 1.1996-3.15 0.60319-0.95951 1.3354-1.8299 2.0313-2.7244 3.4079-4.3807 6.0261-9.584 6.315-15.127 0.06325-1.2133 0.013-2.4429-0.29388-3.6184s-0.88257-2.2991-1.7622-3.1372c-0.88129-0.83971-2.055-1.3664-3.2682-1.4665s-2.4574 0.227-3.4644 0.91086" fill="none" stroke="#000" stroke-linecap="round" stroke-width="4.3696"/> <path d="m47.614 96.992c-3.1093 0-5.6299 1.814-5.6299 4.0516 0 0.0877 0.0056 0.16998 0.01388 0.24979l-0.97271 1.7166 1.6511-0.57158c0.32619 0.20707 0.75446 0.32775 1.2594 0.39484l0.83682 1.8936 0.57368-1.8163c0.22743 2e-3 0.46862-1e-3 0.70931-5e-3l0.87426 1.9787 0.63049-1.9967c0.08909-5.1e-4 0.17441-3e-3 0.26419-3e-3 0.16841 0 0.33322 2e-3 0.4967 4e-3l0.76586 1.7331 0.54147-1.7145c0.31861 4e-3 0.63092 6e-3 0.91642-2e-3l0.80461 1.8213 0.62761-1.9873c0.79781-0.2164 1.2667-0.68906 1.2667-1.6959 0-2.2376-2.5206-4.0516-5.6299-4.0516z" stroke-linecap="square" stroke-width=".68478"/> <path d="m46.363 62.777-8.2016 11.118c-1.4313-0.31222-2.9261-0.48162-4.4654-0.48162-4.1432 0-7.9698 1.202-11.071 3.2324l-10.63-8.8584c2.146 4.7265 5.9114 7.9106 4.2576 16.256-0.81983 1.8756-1.2743 3.9137-1.2743 6.0477 1e-6 9.2107 7.4393 14.98 17.679 13.562 11.999-1.6615 19.756-4.3513 19.756-13.562 0-4.9575-2.43-9.407-6.2839-12.462-2.706-4.2547-0.77189-9.6694 0.23306-14.852z" stroke-linecap="square" stroke-width=".68478"/> <g transform="matrix(1.1589 0 0 1.1589 -55.44 -28.612)" stroke-linecap="square" stroke-width=".59089"> <ellipse transform="scale(1,-1)" cx="70.713" cy="-102.44" rx="4.9198" ry="4.6217" fill="#fff"/> <circle cx="73.356" cy="104.83" r="1.028"/> </g> <g transform="matrix(.77821 .85872 -.85872 .77821 71.778 -51.662)" stroke-linecap="square" stroke-width=".59089"> <ellipse cx="70.713" cy="102.44" rx="4.9198" ry="4.6217" fill="#fff"/> <circle cx="74.497" cy="102.42" r="1.028"/> </g> <path d="m31.46 95.808c1.1599-2.0469 2.9991-2.1882 4.9111-0.98477 0.09771 0.28138 0.25655 0.56232-0.1263 0.84716-2.0043-0.07116-1.4549 1.2089-1.2541 2.585-0.23929 0.35271-0.53806 0.41878-0.8967 0.19628-0.29632-1.3293-0.23323-2.6046-2.2513-1.8217-0.23812-0.04887-0.39008-0.27323-0.3827-0.82208z" fill="#fff" stroke-linecap="square" stroke-width=".68478"/> <path d="m20.755 96.597c3.1093 0 5.6299 1.814 5.6299 4.0516 0 0.0877-0.0056 0.16998-0.01388 0.24979l0.97271 1.7166-1.6511-0.57158c-0.32619 0.20707-0.75446 0.32775-1.2594 0.39484l-0.83682 1.8936-0.57368-1.8163c-0.22743 2e-3 -0.46862-1e-3 -0.70931-5e-3l-0.87426 1.9787-0.63049-1.9967c-0.08909-5.1e-4 -0.17441-3e-3 -0.26419-3e-3 -0.16841 0-0.33322 2e-3 -0.4967 4e-3l-0.76586 1.7331-0.54147-1.7145c-0.31861 4e-3 -0.63092 6e-3 -0.91642-2e-3l-0.80461 1.8213-0.62761-1.9873c-0.79781-0.2164-1.2667-0.68906-1.2667-1.6959 0-2.2376 2.5206-4.0516 5.6299-4.0516z" stroke-linecap="square" stroke-width=".68478"/> </g> <g transform="matrix(.73016 0 0 .73016 -6.7926 -53.964)" fill-rule="evenodd" stroke="#000" stroke-linecap="round" stroke-width=".68478"> <path transform="rotate(-40.832 47.762 100.66)" d="m17.036 93.403-6.1681-2.3498"/> <path transform="translate(2.6435 21.515)" d="m17.036 93.403-6.1681-2.3498"/> <path transform="rotate(-19.266 82.607 96.345)" d="m17.036 93.403-6.1681-2.3498"/> </g> <g transform="matrix(-.73016 0 0 .73016 41.847 -54.822)" fill-rule="evenodd" stroke="#000" stroke-linecap="round" stroke-width=".68478"> <path transform="rotate(-40.832 47.762 100.66)" d="m17.036 93.403-6.1681-2.3498"/> <path transform="translate(2.6435 21.515)" d="m17.036 93.403-6.1681-2.3498"/> <path transform="rotate(-19.266 82.607 96.345)" d="m17.036 93.403-6.1681-2.3498"/> </g> </g> </g> </g> </g> </svg>