<?xml version='1.0' encoding='utf-8'?>
<svg xmlns="http://www.w3.org/2000/svg" width="3.4727in" height="4.609in" version="1.1" viewBox="0 0 88.206 117.07"><defs><radialGradient id="a" cx="55.048" cy="174.57" r="47.154" gradientTransform="matrix(.8959 0 0 .77876 106.38 36.159)" gradientUnits="userSpaceOnUse"><stop stop-color="#3e3e3e" offset="0"/><stop stop-color="#e0e0e0" stop-opacity=".40278" offset="1"/></radialGradient></defs><g transform="translate(-113.55 -135.41)"><g transform="matrix(.63501 0 0 .86765 19.619 23.88)" stroke-width=".85618"><path d="m231.35 187.96c9.1318 12.553 16.475 45.633 7.485 63.897-24.51 13.029-37.849 7.2974-52.19-3.2734 0 0-6.0139-49.212 17.762-63.436 7.0861-4.2392 22.086-3.8646 26.943 2.8121z" stroke-linecap="round" stroke-linejoin="round" stroke-width="2.3858"/><path d="m225.28 256.83s1.6939-43.988 17.96-44.699c13.45-0.58816 4.3586 26.842 0.61056 32.819 8.5904-0.70564 16.415 11.976 9.2466 11.871-18.044-0.26464-27.817 8e-3 -27.817 8e-3z"/><path d="m204.49 256.17s-1.6939-43.988-17.96-44.699c-13.45-0.58816-4.3586 26.842-0.61056 32.819-8.5904-0.70567-16.415 11.976-9.2466 11.871 18.044-0.26464 27.817 8e-3 27.817 8e-3z"/><path d="m226.07 252.92c-4.1473 0.10044-7.4503 2.6025-7.3774 5.5883 3e-3 0.1168 0.0141 0.22655 0.0254 0.33286l-1.2415 2.322 2.1837-0.81607c0.44182 0.26577 1.017 0.41299 1.6927 0.4862l1.1778 2.4997 0.70606-2.4422c0.30341-6e-3 0.62501-0.0169 0.94591-0.0296l1.2306 2.6121 0.77595-2.6848c0.11878-3e-3 0.23247-8e-3 0.3523-0.0113 0.22457-6e-3 0.4445-8e-3 0.66258-0.0113l1.078 2.2879 0.66639-2.3053c0.42509-6e-3 0.84174-0.0141 1.2223-0.0322l1.1325 2.4043 0.77242-2.6721c1.0571-0.31452 1.6672-0.96038 1.6344-2.3039-0.0728-2.9858-3.494-5.325-7.6413-5.2246z" stroke-linecap="square" stroke-linejoin="round" stroke-width=".63033"/><path d="m199.62 252.92c4.1473 0.10044 7.4503 2.6025 7.3774 5.5883-3e-3 0.1168-0.0141 0.22655-0.0254 0.33286l1.2415 2.322-2.1837-0.81607c-0.44185 0.26577-1.017 0.41299-1.6927 0.4862l-1.1778 2.4997-0.70606-2.4422c-0.30341-6e-3 -0.62501-0.0169-0.94591-0.0296l-1.2306 2.6121-0.77595-2.6848c-0.11877-3e-3 -0.23247-8e-3 -0.3523-0.0113-0.22457-6e-3 -0.4445-8e-3 -0.66261-0.0113l-1.078 2.2879-0.66639-2.3053c-0.42509-6e-3 -0.84174-0.0141-1.2223-0.0322l-1.1325 2.4043-0.77242-2.6721c-1.0571-0.31452-1.6672-0.96038-1.6344-2.3039 0.0728-2.9858 3.494-5.325 7.6413-5.2246z" stroke-linecap="square" stroke-linejoin="round" stroke-width=".63033"/><path transform="matrix(-1.0272 -2.292 -3.1902 1.6782 499.73 382.72)" d="m91.529 38.789c-0.51158-0.05871-1.0394 0.03144-1.5024 0.25665-0.46308 0.22521-0.85987 0.5847-1.1296 1.0234-0.26969 0.43866-0.41135 0.95501-0.40327 1.4699 0.0081 0.51487 0.16588 1.0265 0.4492 1.4565 0.32526 0.49364 0.8063 0.87114 1.3329 1.1397 0.52662 0.2686 1.0997 0.43414 1.6761 0.56532 1.1529 0.26237 2.3657 0.40482 3.3834 1.0065 0.9969 0.58938 1.7284 1.6101 1.9662 2.7436 0.23778 1.1334-0.02186 2.3621-0.69784 3.3024" fill="none" stroke="#000" stroke-linecap="round" stroke-linejoin="round" stroke-width="2.4082"/></g><path d="m155.69 135.87c-23.022-1.3e-4 -41.685 16.223-41.685 36.235-1.7e-4 20.012 19.277 31.937 42.299 31.937 23.022-9e-5 41.071-11.925 41.071-31.937-1.1e-4 -20.012-18.663-36.235-41.685-36.235zm0 17.63c11.82 6e-5 21.403 8.3296 21.403 18.605 1.9e-4 10.275-9.5823 18.605-21.403 18.605-11.821 1.5e-4 -21.404-8.3297-21.403-18.605 9e-5 -10.275 9.5828-18.605 21.403-18.605z" fill="url(#a)" stroke="#2b0000" stroke-linecap="round" stroke-linejoin="round" stroke-width=".92396" style="paint-order:fill markers stroke"/><circle cx="155.46" cy="170.42" r="20.36" fill="none" stroke="#500" stroke-linecap="round" stroke-linejoin="round" stroke-width="2.1684" style="paint-order:stroke fill markers"/><g transform="matrix(.46407 -.13799 .13799 .46407 -29.902 153.2)" stroke-linejoin="round"><path d="m430.42 101.22-36.454 9.3571c-8.2431-8.3567-23.405-17.146-50.698-17.084l-14.716-33.147c-1.0976 22.45-6.9671 35.077-17.973 52.928-14.834 22.767-5.7369 49.008 21.857 61.994 32.335 15.217 55.84 21.061 70.674-1.7054 7.984-12.254 9.6391-24.239 7.9613-36.8-2.0847-15.608 8.5182-24.351 19.347-35.543z" stroke-linecap="square" stroke-width=".88398"/><path d="m346.06 130.38c-8.4921-2.0093-19.82-8.6387-21.959 0.40125-2.139 9.04 3.0113 17.997 11.503 20.007 8.4921 2.0093 17.11-3.6901 19.249-12.73 2.139-9.04-0.30072-5.6684-8.7933-7.6777z" fill="#fff" stroke-linecap="square" stroke-width=".88399"/><circle transform="matrix(.23026 -.97313 -.97313 -.23026 0 0)" cx="-58.713" cy="-364.1" r="10.576" stroke-linecap="square" stroke-width=".88399"/><ellipse transform="matrix(.2744 -.96161 -.96161 -.2744 0 0)" cx="-37.819" cy="-398.62" rx="16.82" ry="15.801" fill="#fff" stroke-linecap="square" stroke-width=".88399"/><path d="m357.43 159.32c-2.3431-6.5332-7.6187-7.8683-13.782-5.3308-0.42559 0.76882-1.0284 1.5057-0.0586 2.5262 5.8624 0.8004 3.622 4.2455 2.3465 8.145 0.51836 1.1456 1.3537 1.4878 2.5081 1.0212 1.5296-3.7155 1.987-7.4546 7.4602-4.1642 0.71678-0.0225 1.2713-0.59828 1.5255-2.1976z" fill="#fff" stroke-linecap="square" stroke-width=".88398"/><g transform="matrix(-4.1623 -1.0256 -1.0225 4.1751 591.5 -297.75)" fill-rule="evenodd" stroke="#000" stroke-linecap="round" stroke-width=".20593"><path transform="rotate(-40.832 47.762 100.66)" d="m17.036 93.403-6.1681-2.3498"/><path transform="translate(2.6435 21.515)" d="m17.036 93.403-6.1681-2.3498"/><path transform="rotate(-19.266 82.607 96.345)" d="m17.036 93.403-6.1681-2.3498"/></g><circle transform="matrix(.23026 -.97313 -.97313 -.23026 0 0)" cx="-61.516" cy="-393.08" r="10.576" stroke-linecap="square" stroke-width=".88399"/><circle transform="matrix(.2744 -.96161 -.96161 -.2744 0 0)" cx="-50.43" cy="-395.4" r="2.2685" fill="#fff" stroke-linecap="square" stroke-width=".88399"/><circle transform="matrix(.2744 -.96161 -.96161 -.2744 0 0)" cx="-39.072" cy="-359.7" r="2.2685" fill="#fff" stroke-linecap="square" stroke-width=".88399"/><g transform="matrix(4.104 1.2385 -1.2477 4.1134 381.11 -359.02)" fill-rule="evenodd" stroke="#000" stroke-linecap="round" stroke-width=".20593"><path transform="rotate(-40.832 47.762 100.66)" d="m17.036 93.403-6.1681-2.3498"/><path transform="translate(2.6435 21.515)" d="m17.036 93.403-6.1681-2.3498"/><path transform="rotate(-19.266 82.607 96.345)" d="m17.036 93.403-6.1681-2.3498"/></g></g></g></svg>