<?xml version='1.0' encoding='utf-8'?>
<svg xmlns="http://www.w3.org/2000/svg" width="113.49mm" height="81.817mm" version="1.1" viewBox="0 0 113.49 81.817"> <g transform="translate(-39.596 -41.708)"> <g transform="matrix(.50411 0 0 .50411 53.591 18.169)"> <g transform="translate(-10.194 -4.8909)"> <path d="m166.4 98.073c-1.9613 0.03757-3.5602 0.37411-4.561 0.9002-20.035 10.532-24.376 50.229-16.95 59.477 9.9713 3.7682 23.704 11.43 21.514 21.618-1.6688 7.7637-9.1386 18.671-11.99 19.084-1.1418 0.16543-5.7516-0.24936-8.6331 0.0419-3.4752 0.35123-7.8898 6.8768-2.2856 8.7726 0.84488 1.1929 1.9749 1.3227 3.2959 1.7188 2.578 1.1824 7.5438 0.9403 10.353 0.27595 7.9404-4.4463 7.3708-5.628 21.501-19.226 11.208-20.195 13.533-47.019 14.122-49.883 7.0341-34.169-15.775-42.983-26.366-42.78z"/> <path d="m147.65 202.27c-2.9738 0.13364-4.8698 4.7646-5.0717 5.3015-0.0951-1e-4 0.7362 0.38265 0.9186 0.39747-0.14192-1.127 2.0404-4.6633 4.1531-5.699z" fill="#fff" stroke-linecap="round" stroke-linejoin="round" stroke-width=".75"/> <path d="m151 204.65c-1.2814-0.27499-4.457 4.5507-4.2102 5.0407 0.20203 0.15163 1.5654 0.53943 1.431 0.46891-1.4994-0.7863 2.3572-5.8525 2.7792-5.5096z" fill="#fff" stroke-linecap="round" stroke-linejoin="round" stroke-width=".63844"/> </g> <path transform="matrix(-.22321 -2.6614 2.6593 -.22188 -25.705 318.33)" d="m87.634 72.44c-0.76361-0.69104-1.1616-1.7653-1.0324-2.787s0.78178-1.9632 1.6933-2.4426c0.64384-0.33859 1.4-0.44971 2.1187-0.33671 0.71861 0.113 1.3975 0.44583 1.9449 0.92485 0.54746 0.47902 0.96439 1.101 1.225 1.7802 0.26059 0.67916 0.36669 1.4142 0.33617 2.141-0.06103 1.4536-0.66344 2.8479-1.5169 4.0262-0.85343 1.1783-1.95 2.1591-3.0921 3.0604-5.562 4.3894-12.446 7.0809-19.51 7.6281" fill="none" stroke="#000" stroke-linecap="round" stroke-linejoin="round" stroke-width="4.3066"/> <path d="m59.417 160.78c1.7868-0.79444 18.674 9.0865 25.394 6.2743 12.508-5.2343 17.459-24.935 19.148-31.422 12.406-47.667 81.071-54.539 80.942-25.008-0.0265 6.1106-7.7799 37.869-6.0356 34.429 2.0198-3.983-17.596 21.25-48.031 40.884-18.52 11.843-59.864 8.6727-79.853 2.6935-8.16-2.4409 0.65351-24.391 8.4352-27.851z" stroke-linecap="round" stroke-linejoin="round" stroke-width="2.8743"/> <g transform="translate(3.2768 -1.5233)"> <path d="m166.4 98.073c-1.9613 0.03757-3.5602 0.37411-4.561 0.9002-20.035 10.532-24.376 50.229-16.95 59.477 9.9713 3.7682 23.704 11.43 21.514 21.618-1.6688 7.7637-9.1386 18.671-11.99 19.084-1.1418 0.16543-5.7516-0.24936-8.6331 0.0419-3.4752 0.35123-7.8898 6.8768-2.2856 8.7726 0.84488 1.1929 1.9749 1.3227 3.2959 1.7188 2.578 1.1824 7.5438 0.9403 10.353 0.27595 7.9404-4.4463 7.3708-5.628 21.501-19.226 11.208-20.195 13.533-47.019 14.122-49.883 7.0341-34.169-15.775-42.983-26.366-42.78z"/> <path d="m147.65 202.27c-2.9738 0.13364-4.8698 4.7646-5.0717 5.3015-0.0951-1e-4 0.7362 0.38265 0.9186 0.39747-0.14192-1.127 2.0404-4.6633 4.1531-5.699z" fill="#fff" stroke-linecap="round" stroke-linejoin="round" stroke-width=".75"/> <path d="m151 204.65c-1.2814-0.27499-4.457 4.5507-4.2102 5.0407 0.20203 0.15163 1.5654 0.53943 1.431 0.46891-1.4994-0.7863 2.3572-5.8525 2.7792-5.5096z" fill="#fff" stroke-linecap="round" stroke-linejoin="round" stroke-width=".63844"/> </g> <g transform="translate(-32.808 -5.2917)"> <g transform="rotate(4.7545 -1148.9 -1050.8)"> <g transform="translate(53.133 -4.4901)"> <g transform="translate(-77.732 9.835)"> <g transform="matrix(2.4041 -1.5754 1.5754 2.4041 -412.05 -76.088)"> <path d="m128.18 155.93c1.9754 0.83947 3.1627 2.5281 2.6521 3.7716-0.14483 0.28425-0.4757 0.51245-0.75799 0.58822-0.25448 0.027-0.5541-0.0215-0.89021-0.12064-1.4128-0.55715-2.6789-1.1699-4.0485-1.7731l-1.0101-0.54389c-0.28634-0.21014-0.4054-0.24009-0.51319-0.53783-0.0176-0.0488-0.72906-0.25678-0.74727-0.25078-0.10254 0.0335 0.675-0.10372 0.83657-0.20513 0.0104-0.0796 0.052-0.19218 0.0991-0.23855-0.0185-0.0493-0.80893-0.0449-0.74983-0.13239 0.0357-0.0524 0.81175-0.3486 0.98279-0.41206 0.47775-0.87684 2.6956-0.76242 4.1467-0.1457z" stroke-linecap="square" stroke-linejoin="round" stroke-width=".5"/> <path d="m128.92 156.91c5.3056 3.0796 23.054 5.4831 28.63 6.6658 4.9427 2.0498 8.2814 4.4874 2.2665 7.043-5.731-1.6022-25.506-7.2608-30.852-10.787z"/> </g> </g> </g> </g> </g> <g transform="rotate(.45868 1694.7 -3372.7)"> <g transform="rotate(4.7545 -1148.9 -1050.8)"> <g transform="translate(53.133 -4.4901)"> <g transform="translate(-77.732 9.835)"> <g transform="matrix(2.4041 -1.5754 1.5754 2.4041 -412.05 -76.088)"> <path d="m128.18 155.93c1.9754 0.83947 3.1627 2.5281 2.6521 3.7716-0.14483 0.28425-0.4757 0.51245-0.75799 0.58822-0.25448 0.027-0.5541-0.0215-0.89021-0.12064-1.4128-0.55715-2.6789-1.1699-4.0485-1.7731l-1.0101-0.54389c-0.28634-0.21014-0.4054-0.24009-0.51319-0.53783-0.0176-0.0488-0.72906-0.25678-0.74727-0.25078-0.10254 0.0335 0.675-0.10372 0.83657-0.20513 0.0104-0.0796 0.052-0.19218 0.0991-0.23855-0.0185-0.0493-0.80893-0.0449-0.74983-0.13239 0.0357-0.0524 0.81175-0.3486 0.98279-0.41206 0.47775-0.87684 2.6956-0.76242 4.1467-0.1457z" stroke-linecap="square" stroke-linejoin="round" stroke-width=".5"/> <path d="m128.92 156.91c5.3056 3.0796 23.054 5.4831 28.63 6.6658 4.9427 2.0498 8.2814 4.4874 2.2665 7.043-5.731-1.6022-25.506-7.2608-30.852-10.787z"/> </g> </g> </g> </g> </g> <g transform="rotate(-2.287 1338.8 -603.49)"> <path d="m9.2084 49.45 15.987 19.883c7.8742-1.1863 19.681 0.20267 34.474 11.322l21.47-12.009c-8.5343 12.627-10.482 21.862-11.767 36.019-1.2048 18.378-16.816 28.922-37.079 24.761-23.745-4.8762-38.884-11.252-37.679-29.63 0.64846-9.8917 4.6241-17.067 10.643-23.202 7.4793-7.6221 5.2775-16.673 3.9501-27.144z" stroke-linecap="square" stroke-linejoin="round" stroke-width="1.4371"/> <g transform="matrix(-1.7674 -.93826 -.93908 1.7657 118.04 -45.121)" stroke-width="1.4368"> <g transform="rotate(-13.594 -77.289 193.84)" fill-rule="evenodd" stroke="#000" stroke-linecap="round" stroke-linejoin="round" stroke-width=".71842"> <path transform="rotate(-40.832 47.762 100.66)" d="m17.036 93.403-6.1681-2.3498"/> <path transform="translate(2.6435 21.515)" d="m17.036 93.403-6.1681-2.3498"/> <path transform="rotate(-19.266 82.607 96.345)" d="m17.036 93.403-6.1681-2.3498"/> </g> </g> <g transform="matrix(1.9976 .11381 -.11547 1.9967 -22.597 -119.08)" fill-rule="evenodd" stroke="#000" stroke-linecap="round" stroke-linejoin="round" stroke-width=".71842"> <path transform="rotate(-40.832 47.762 100.66)" d="m17.036 93.403-6.1681-2.3498"/> <path transform="translate(2.6435 21.515)" d="m17.036 93.403-6.1681-2.3498"/> <path transform="rotate(-19.266 82.607 96.345)" d="m17.036 93.403-6.1681-2.3498"/> </g> <g transform="matrix(-1.4181 -.44654 -.44736 1.417 170.2 23.334)" stroke-width="1.529"> <g transform="matrix(1.2141 0 0 1.2141 -4.9209 -30.993)" stroke-width="1.2594"> <ellipse transform="scale(1,-1)" cx="70.713" cy="-102.44" rx="4.9198" ry="4.6217" stroke-linecap="square" stroke-linejoin="round" stroke-width=".6297"/> </g> </g> <g transform="rotate(-10.447 -238.5 282.77)" stroke-linecap="square" stroke-linejoin="round"> <path d="m43.386 167.99c0.03305-4.7041-3.0154-6.7854-7.5333-6.6097-0.45065 0.38954-1.0066 0.718-0.62715 1.5937 3.547 1.878 1.3157 3.547-0.40728 5.7305 0.06268 0.84997 0.51476 1.2628 1.359 1.2354 1.8416-2.0072 3.0061-4.2794 5.7238-0.90791 0.4617 0.15327 0.94938-0.0839 1.4848-1.0421z" fill="#fff" stroke-width="1.4371"/> <ellipse transform="matrix(-.56295 -.82649 .76398 -.64524 0 0)" cx="-139.11" cy="-54.896" rx="9.5525" ry="10.399" fill="#fff" stroke-width="1.3162"/> <ellipse transform="matrix(-.95383 -.30034 -.30105 .95361 0 0)" cx="-78.892" cy="135.84" rx="6.8196" ry="6.8159" stroke-width="2.3486"/> <ellipse transform="matrix(-.95383 -.30034 -.30105 .95361 0 0)" cx="-74.027" cy="135.61" rx="1.5253" ry="1.5245" fill="#fff" stroke-width=".5253"/> <g transform="rotate(12.231 -10.57 237.53)"> <ellipse transform="matrix(-.56295 -.82649 .76398 -.64524 0 0)" cx="-139.11" cy="-54.896" rx="9.5525" ry="10.399" fill="#fff" stroke-width="1.3162"/> <ellipse transform="matrix(-.95383 -.30034 -.30105 .95361 0 0)" cx="-78.892" cy="135.84" rx="6.8196" ry="6.8159" stroke-width="2.3486"/> <ellipse transform="matrix(-.95383 -.30034 -.30105 .95361 0 0)" cx="-74.171" cy="136.96" rx="1.5253" ry="1.5245" fill="#fff" stroke-width=".5253"/> </g> </g> </g> </g> </g> </svg>