<?xml version='1.0' encoding='utf-8'?>
<svg xmlns="http://www.w3.org/2000/svg" width="54.516mm" height="28.861mm" version="1.1" viewBox="0 0 54.516 28.861"> <g transform="translate(-89.555 -147.93)"> <path d="m96.476 147.93c2.4784 7.4546 3.5728 12.616 2.2221 15.48-0.39165 0.83045-0.69768 1.7406-0.91054 2.6856l-1.6769-0.65164a0.24991 0.25009 74.355 0 0-0.32349 0.14263 0.24991 0.25009 74.355 0 0 0.14263 0.32298l1.7575 0.68265c-0.08813 0.47027-0.15195 0.94646-0.1912 1.4252l-1.8691-0.0646a0.24991 0.25009 74.355 0 0-0.25838 0.24132 0.24991 0.25009 74.355 0 0 0.24184 0.25787l1.85 0.0636c-0.0063 0.13912-0.0064 0.27805-0.0083 0.41703-0.65-0.17999-1.3559-0.27946-2.0944-0.27854v5.2e-4c-3.2076 4e-3 -5.8058 1.8782-5.8033 4.1853 0.0011 1.0381 0.48572 1.5251 1.309 1.7472l0.64957 2.0479 0.82786-1.879c0.29451 7e-3 0.61647 4e-3 0.94516 1e-3l0.56069 1.7668 0.78806-1.788c0.16861-3e-3 0.33888-6e-3 0.51263-5e-3 0.09261 0 0.18042 2e-3 0.27233 2e-3l0.65267 2.0583 0.89969-2.0417c0.24828 4e-3 0.49715 7e-3 0.73174 4e-3l0.59376 1.8722 0.73226-1.8696h2.945l3e-3 1e-3 -5.2e-4 -1e-3h29.67l-5.2e-4 1e-3 3e-3 -1e-3h2.945l0.73226 1.8696 0.59376-1.8722c0.23459 3e-3 0.48346-4.2e-4 0.73174-4e-3l0.89968 2.0417 0.65268-2.0583c0.0919 3.5e-4 0.17971-2e-3 0.27233-2e-3 0.17375-5.8e-4 0.34402 2e-3 0.51263 5e-3l0.78807 1.788 0.56017-1.7668c0.32869 3e-3 0.65118 6e-3 0.94568-1e-3l0.82786 1.879 0.64957-2.0479c0.82325-0.22207 1.3074-0.70904 1.3084-1.7472 2e-3 -2.3071-2.5957-4.1812-5.8033-4.1853v-5.2e-4c-1.222-2e-3 -2.3553 0.26929-3.2913 0.73174-0.0316-0.29517-0.0708-0.58715-0.12196-0.87385l1.7436-0.0599a0.25009 0.24991 15.645 0 0 0.24133-0.25787 0.25009 0.24991 15.645 0 0-0.25787-0.24132l-1.8283 0.063c-0.10137-0.46031-0.22768-0.9145-0.37827-1.3668l1.9032-0.73949a0.25009 0.24991 15.645 0 0 0.14314-0.32298 0.25009 0.24991 15.645 0 0-0.32349-0.14263l-1.8883 0.73381c-0.38442-1.0406-0.8901-2.0875-1.511-3.2169-2.6515-4.8227-0.29854-9.0118 1.818-14.027l-10.035 8.1561c-3.7434-1.6818-8.9239-3.6456-17.815-0.17725z" stroke-linecap="square" stroke-linejoin="round" stroke-width=".5"/> <path d="m113.43 172.13c1.5688-1.8513 3.4601-1.6418 5.1668-0.056 0.045 0.3038 0.15202 0.61887-0.29075 0.83404-2.0178-0.45641-1.786 1.8502-1.786 1.8502h-0.92822s0.26393-2.1284-1.9319-1.7221c-0.23197-0.0951-0.34289-0.35159-0.22997-0.90623z" fill="#fff" stroke-linecap="square" stroke-linejoin="round" stroke-width=".5"/> <g transform="matrix(.96926 .017171 -.017418 .96878 32.118 75.733)" stroke-width="1.0318"> <g transform="matrix(1.2141 0 0 1.2141 -4.9209 -30.993)" stroke-linecap="square" stroke-linejoin="round"> <ellipse transform="scale(1,-1)" cx="70.713" cy="-102.44" rx="4.9198" ry="4.6217" fill="#fff" stroke-width=".42494"/> <circle cx="70.619" cy="103.12" r="3.7652" stroke-width=".42493"/> </g> <circle cx="80.911" cy="91.024" r="1.0196" fill="#fff" fill-rule="evenodd"/> </g> <g transform="matrix(.96926 .017171 -.017418 .96878 46.281 75.984)" stroke-width="1.0318"> <g transform="matrix(1.2141 0 0 1.2141 -4.9209 -30.993)" stroke-linecap="square" stroke-linejoin="round"> <ellipse transform="scale(1,-1)" cx="70.713" cy="-102.44" rx="4.9198" ry="4.6217" fill="#fff" stroke-width=".42494"/> <circle cx="70.619" cy="103.12" r="3.7652" stroke-width=".42493"/> </g> <circle cx="80.792" cy="91.148" r="1.0196" fill="#fff" fill-rule="evenodd"/> </g> </g> </svg>